<?xml version="1.0" encoding="UTF-8"?>
<svg id="Layer_1" data-name="Layer 1" xmlns="http://www.w3.org/2000/svg" viewBox="0 0 640 640">
  <defs>
    <style>
      .cls-1 {
        fill: #000;
        stroke-width: 0px;
      }
    </style>
  </defs>
  <path class="cls-1" d="M97.37,243.55c3.55-21.59,8.06-41.41,13.53-59.45,10.38-33.34,23.09-58.35,38.13-75.03,15.03-16.67,35.26-28.15,60.68-34.44,25.42-6.28,61.36-9.43,107.83-9.43s85.28,3.28,111.52,9.84c26.24,6.56,46.74,18.04,61.5,34.44,14.76,16.4,27.33,41,37.72,73.8,6.01,19.14,10.66,39.5,13.94,61.09,3.28,21.6,4.92,49.61,4.92,84.05,0,26.24-1.37,49.89-4.1,70.93-2.74,21.05-7.38,42.23-13.94,63.55-10.39,33.9-23.37,59.18-38.95,75.85-15.58,16.68-36.36,28.02-62.32,34.03-25.97,6.02-62.46,9.02-109.47,9.02s-81.73-3-107.42-9.02c-25.7-6.01-46.61-17.49-62.73-34.44-16.13-16.94-29.11-42.91-38.95-77.9-11.48-40.45-17.22-85.55-17.22-135.3,0-32.8,1.77-59.99,5.33-81.59ZM145.34,391.15c2.73,16.68,6.83,35.13,12.3,55.35,7.1,25.7,15.58,44.28,25.42,55.76,9.84,11.48,24.46,19.14,43.87,22.96,19.4,3.83,49.88,5.74,91.43,5.74s73.8-1.91,93.48-5.74c19.68-3.82,34.44-11.48,44.28-22.96,9.84-11.48,18.58-30.34,26.24-56.58,5.46-17.49,9.43-35.39,11.89-53.71,2.46-18.31,3.69-40.59,3.69-66.83,0-30.06-1.37-53.98-4.1-71.75-2.74-17.76-6.84-35.39-12.3-52.89-8.2-26.24-16.95-44.96-26.24-56.17-9.3-11.2-23.78-18.72-43.46-22.55-19.68-3.82-50.84-5.74-93.48-5.74s-71.89,1.92-91.02,5.74c-19.14,3.83-33.49,11.35-43.05,22.55-9.57,11.21-18.45,30.21-26.65,56.99-5.47,16.95-9.57,34.17-12.3,51.66-2.74,17.5-4.1,41.28-4.1,71.34,0,27.88,1.36,50.16,4.1,66.83ZM227.34,426.82c-20.23-20.77-30.34-54.94-30.34-102.5s9.84-81.31,29.52-102.91c19.68-21.59,50.84-32.39,93.48-32.39,35.53,0,63,6.97,82.41,20.91,19.4,13.94,29.93,34.58,31.57,61.91h-50.84c-2.19-13.12-7.93-22.41-17.22-27.88-9.3-5.46-23.24-8.2-41.82-8.2-27.88,0-47.43,6.7-58.63,20.09-11.21,13.4-16.81,36.22-16.81,68.47s5.74,55.49,17.22,68.06c11.48,12.58,32.25,18.86,62.32,18.86,18.04,0,31.57-2.32,40.59-6.97,9.02-4.64,14.62-13.25,16.81-25.83h51.66c-2.19,27.88-12.3,48.11-30.34,60.68-18.04,12.58-44.83,18.86-80.36,18.86-45.92,0-79-10.38-99.22-31.16Z"/>
</svg>