<?xml version="1.0" encoding="UTF-8"?>
<svg xmlns="http://www.w3.org/2000/svg" id="RSSicon" viewBox="0 0 512 512" width="512" height="512">
  <defs>
    <style type="text/css">
      svg {
        background: black;
        margin: 0;
      }
      
      rect {stroke: darkorange; fill: none;}
    </style>
  </defs>
  <rect x="10.666666666666666" y="10.666666666666666" width="0" height="0" transform="rotate(0 10.666666666666666 10.666666666666666)" /><rect x="31.992592592592594" y="10.659259259259258" width="0.014814814814814814" height="0.014814814814814814" transform="rotate(4 32 10.666666666666666)" /><rect x="53.3037037037037" y="10.637037037037036" width="0.059259259259259255" height="0.059259259259259255" transform="rotate(8 53.33333333333333 10.666666666666666)" /><rect x="74.60000000000001" y="10.6" width="0.13333333333333333" height="0.13333333333333333" transform="rotate(12 74.66666666666667 10.666666666666666)" /><rect x="95.88148148148149" y="10.548148148148147" width="0.23703703703703702" height="0.23703703703703702" transform="rotate(16 96 10.666666666666666)" /><rect x="117.14814814814814" y="10.481481481481481" width="0.3703703703703704" height="0.3703703703703704" transform="rotate(20 117.33333333333333 10.666666666666666)" /><rect x="138.39999999999998" y="10.399999999999999" width="0.5333333333333333" height="0.5333333333333333" transform="rotate(24 138.66666666666666 10.666666666666666)" /><rect x="159.637037037037" y="10.303703703703704" width="0.7259259259259261" height="0.7259259259259261" transform="rotate(28 159.99999999999997 10.666666666666666)" /><rect x="180.85925925925923" y="10.192592592592591" width="0.9481481481481481" height="0.9481481481481481" transform="rotate(32 181.33333333333331 10.666666666666666)" /><rect x="202.06666666666666" y="10.066666666666666" width="1.2" height="1.2" transform="rotate(36 202.66666666666666 10.666666666666666)" /><rect x="223.25925925925924" y="9.925925925925926" width="1.4814814814814816" height="1.4814814814814816" transform="rotate(40 223.99999999999997 10.666666666666666)" /><rect x="244.43703703703702" y="9.77037037037037" width="1.7925925925925923" height="1.7925925925925923" transform="rotate(44 245.33333333333331 10.666666666666666)" /><rect x="265.6" y="9.6" width="2.1333333333333333" height="2.1333333333333333" transform="rotate(48 266.6666666666667 10.666666666666666)" /><rect x="286.7481481481482" y="9.414814814814815" width="2.503703703703703" height="2.503703703703703" transform="rotate(52 288 10.666666666666666)" /><rect x="307.88148148148144" y="9.214814814814813" width="2.9037037037037043" height="2.9037037037037043" transform="rotate(56 309.3333333333333 10.666666666666666)" /><rect x="329" y="9" width="3.3333333333333335" height="3.3333333333333335" transform="rotate(60 330.6666666666667 10.666666666666666)" /><rect x="350.10370370370373" y="8.77037037037037" width="3.7925925925925923" height="3.7925925925925923" transform="rotate(64 352 10.666666666666666)" /><rect x="371.1925925925926" y="8.525925925925925" width="4.281481481481482" height="4.281481481481482" transform="rotate(68 373.3333333333333 10.666666666666666)" /><rect x="392.2666666666667" y="8.266666666666666" width="4.8" height="4.8" transform="rotate(72 394.6666666666667 10.666666666666666)" /><rect x="413.3259259259259" y="7.992592592592592" width="5.348148148148147" height="5.348148148148147" transform="rotate(76 416 10.666666666666666)" /><rect x="434.3703703703703" y="7.703703703703702" width="5.9259259259259265" height="5.9259259259259265" transform="rotate(80 437.3333333333333 10.666666666666666)" /><rect x="455.40000000000003" y="7.3999999999999995" width="6.533333333333333" height="6.533333333333333" transform="rotate(84 458.6666666666667 10.666666666666666)" /><rect x="476.4148148148148" y="7.0814814814814815" width="7.170370370370369" height="7.170370370370369" transform="rotate(88 480 10.666666666666666)" /><rect x="497.4148148148148" y="6.748148148148147" width="7.837037037037038" height="7.837037037037038" transform="rotate(92 501.3333333333333 10.666666666666666)" /><rect x="10.659259259259258" y="31.992592592592594" width="0.014814814814814814" height="0.014814814814814814" transform="rotate(4 10.666666666666666 32)" /><rect x="31.985185185185184" y="31.985185185185184" width="0.029629629629629627" height="0.029629629629629627" transform="rotate(8 32 32)" /><rect x="53.29629629629629" y="31.962962962962962" width="0.07407407407407407" height="0.07407407407407407" transform="rotate(12 53.33333333333333 32)" /><rect x="74.5925925925926" y="31.925925925925927" width="0.14814814814814814" height="0.14814814814814814" transform="rotate(16 74.66666666666667 32)" /><rect x="95.87407407407407" y="31.874074074074073" width="0.2518518518518518" height="0.2518518518518518" transform="rotate(20 96 32)" /><rect x="117.14074074074074" y="31.807407407407407" width="0.38518518518518524" height="0.38518518518518524" transform="rotate(24 117.33333333333333 32)" /><rect x="138.3925925925926" y="31.725925925925925" width="0.548148148148148" height="0.548148148148148" transform="rotate(28 138.66666666666666 32)" /><rect x="159.6296296296296" y="31.62962962962963" width="0.7407407407407408" height="0.7407407407407408" transform="rotate(32 159.99999999999997 32)" /><rect x="180.85185185185182" y="31.51851851851852" width="0.9629629629629628" height="0.9629629629629628" transform="rotate(36 181.33333333333331 32)" /><rect x="202.05925925925925" y="31.392592592592592" width="1.2148148148148148" height="1.2148148148148148" transform="rotate(40 202.66666666666666 32)" /><rect x="223.25185185185182" y="31.251851851851853" width="1.4962962962962965" height="1.4962962962962965" transform="rotate(44 223.99999999999997 32)" /><rect x="244.4296296296296" y="31.096296296296295" width="1.8074074074074071" height="1.8074074074074071" transform="rotate(48 245.33333333333331 32)" /><rect x="265.5925925925926" y="30.925925925925927" width="2.148148148148148" height="2.148148148148148" transform="rotate(52 266.6666666666667 32)" /><rect x="286.74074074074076" y="30.74074074074074" width="2.518518518518518" height="2.518518518518518" transform="rotate(56 288 32)" /><rect x="307.87407407407403" y="30.54074074074074" width="2.918518518518519" height="2.918518518518519" transform="rotate(60 309.3333333333333 32)" /><rect x="328.9925925925926" y="30.325925925925926" width="3.348148148148148" height="3.348148148148148" transform="rotate(64 330.6666666666667 32)" /><rect x="350.0962962962963" y="30.096296296296295" width="3.807407407407407" height="3.807407407407407" transform="rotate(68 352 32)" /><rect x="371.18518518518516" y="29.85185185185185" width="4.296296296296297" height="4.296296296296297" transform="rotate(72 373.3333333333333 32)" /><rect x="392.2592592592593" y="29.59259259259259" width="4.814814814814815" height="4.814814814814815" transform="rotate(76 394.6666666666667 32)" /><rect x="413.31851851851854" y="29.31851851851852" width="5.362962962962963" height="5.362962962962963" transform="rotate(80 416 32)" /><rect x="434.36296296296297" y="29.02962962962963" width="5.9407407407407415" height="5.9407407407407415" transform="rotate(84 437.3333333333333 32)" /><rect x="455.3925925925926" y="28.725925925925925" width="6.548148148148148" height="6.548148148148148" transform="rotate(88 458.6666666666667 32)" /><rect x="476.4074074074074" y="28.40740740740741" width="7.185185185185184" height="7.185185185185184" transform="rotate(92 480 32)" /><rect x="497.4074074074074" y="28.074074074074073" width="7.851851851851853" height="7.851851851851853" transform="rotate(96 501.3333333333333 32)" /><rect x="10.637037037037036" y="53.3037037037037" width="0.059259259259259255" height="0.059259259259259255" transform="rotate(8 10.666666666666666 53.33333333333333)" /><rect x="31.962962962962962" y="53.29629629629629" width="0.07407407407407407" height="0.07407407407407407" transform="rotate(12 32 53.33333333333333)" /><rect x="53.27407407407407" y="53.27407407407407" width="0.11851851851851851" height="0.11851851851851851" transform="rotate(16 53.33333333333333 53.33333333333333)" /><rect x="74.57037037037037" y="53.237037037037034" width="0.1925925925925926" height="0.1925925925925926" transform="rotate(20 74.66666666666667 53.33333333333333)" /><rect x="95.85185185185185" y="53.18518518518518" width="0.2962962962962963" height="0.2962962962962963" transform="rotate(24 96 53.33333333333333)" /><rect x="117.11851851851851" y="53.11851851851851" width="0.42962962962962964" height="0.42962962962962964" transform="rotate(28 117.33333333333333 53.33333333333333)" /><rect x="138.37037037037035" y="53.03703703703703" width="0.5925925925925926" height="0.5925925925925926" transform="rotate(32 138.66666666666666 53.33333333333333)" /><rect x="159.60740740740738" y="52.940740740740736" width="0.7851851851851853" height="0.7851851851851853" transform="rotate(36 159.99999999999997 53.33333333333333)" /><rect x="180.8296296296296" y="52.82962962962962" width="1.0074074074074073" height="1.0074074074074073" transform="rotate(40 181.33333333333331 53.33333333333333)" /><rect x="202.03703703703704" y="52.7037037037037" width="1.2592592592592593" height="1.2592592592592593" transform="rotate(44 202.66666666666666 53.33333333333333)" /><rect x="223.2296296296296" y="52.562962962962956" width="1.540740740740741" height="1.540740740740741" transform="rotate(48 223.99999999999997 53.33333333333333)" /><rect x="244.4074074074074" y="52.407407407407405" width="1.8518518518518516" height="1.8518518518518516" transform="rotate(52 245.33333333333331 53.33333333333333)" /><rect x="265.57037037037037" y="52.237037037037034" width="2.192592592592592" height="2.192592592592592" transform="rotate(56 266.6666666666667 53.33333333333333)" /><rect x="286.7185185185185" y="52.05185185185185" width="2.5629629629629624" height="2.5629629629629624" transform="rotate(60 288 53.33333333333333)" /><rect x="307.85185185185185" y="51.85185185185185" width="2.9629629629629632" height="2.9629629629629632" transform="rotate(64 309.3333333333333 53.33333333333333)" /><rect x="328.9703703703704" y="51.63703703703703" width="3.3925925925925924" height="3.3925925925925924" transform="rotate(68 330.6666666666667 53.33333333333333)" /><rect x="350.0740740740741" y="51.407407407407405" width="3.851851851851851" height="3.851851851851851" transform="rotate(72 352 53.33333333333333)" /><rect x="371.1629629629629" y="51.16296296296296" width="4.340740740740741" height="4.340740740740741" transform="rotate(76 373.3333333333333 53.33333333333333)" /><rect x="392.23703703703706" y="50.9037037037037" width="4.859259259259259" height="4.859259259259259" transform="rotate(80 394.6666666666667 53.33333333333333)" /><rect x="413.2962962962963" y="50.629629629629626" width="5.4074074074074066" height="5.4074074074074066" transform="rotate(84 416 53.33333333333333)" /><rect x="434.3407407407407" y="50.340740740740735" width="5.985185185185186" height="5.985185185185186" transform="rotate(88 437.3333333333333 53.33333333333333)" /><rect x="455.3703703703704" y="50.03703703703703" width="6.592592592592593" height="6.592592592592593" transform="rotate(92 458.6666666666667 53.33333333333333)" /><rect x="476.3851851851852" y="49.718518518518515" width="7.2296296296296285" height="7.2296296296296285" transform="rotate(96 480 53.33333333333333)" /><rect x="497.38518518518515" y="49.38518518518518" width="7.896296296296297" height="7.896296296296297" transform="rotate(100 501.3333333333333 53.33333333333333)" /><rect x="10.6" y="74.60000000000001" width="0.13333333333333333" height="0.13333333333333333" transform="rotate(12 10.666666666666666 74.66666666666667)" /><rect x="31.925925925925927" y="74.5925925925926" width="0.14814814814814814" height="0.14814814814814814" transform="rotate(16 32 74.66666666666667)" /><rect x="53.237037037037034" y="74.57037037037037" width="0.1925925925925926" height="0.1925925925925926" transform="rotate(20 53.33333333333333 74.66666666666667)" /><rect x="74.53333333333333" y="74.53333333333333" width="0.26666666666666666" height="0.26666666666666666" transform="rotate(24 74.66666666666667 74.66666666666667)" /><rect x="95.81481481481481" y="74.48148148148148" width="0.37037037037037035" height="0.37037037037037035" transform="rotate(28 96 74.66666666666667)" /><rect x="117.08148148148148" y="74.41481481481482" width="0.5037037037037038" height="0.5037037037037038" transform="rotate(32 117.33333333333333 74.66666666666667)" /><rect x="138.33333333333331" y="74.33333333333334" width="0.6666666666666666" height="0.6666666666666666" transform="rotate(36 138.66666666666666 74.66666666666667)" /><rect x="159.57037037037034" y="74.23703703703704" width="0.8592592592592594" height="0.8592592592592594" transform="rotate(40 159.99999999999997 74.66666666666667)" /><rect x="180.79259259259257" y="74.12592592592593" width="1.0814814814814815" height="1.0814814814814815" transform="rotate(44 181.33333333333331 74.66666666666667)" /><rect x="202" y="74" width="1.3333333333333333" height="1.3333333333333333" transform="rotate(48 202.66666666666666 74.66666666666667)" /><rect x="223.19259259259258" y="73.85925925925926" width="1.614814814814815" height="1.614814814814815" transform="rotate(52 223.99999999999997 74.66666666666667)" /><rect x="244.37037037037035" y="73.70370370370371" width="1.9259259259259256" height="1.9259259259259256" transform="rotate(56 245.33333333333331 74.66666666666667)" /><rect x="265.53333333333336" y="73.53333333333333" width="2.2666666666666666" height="2.2666666666666666" transform="rotate(60 266.6666666666667 74.66666666666667)" /><rect x="286.68148148148146" y="73.34814814814816" width="2.637037037037037" height="2.637037037037037" transform="rotate(64 288 74.66666666666667)" /><rect x="307.8148148148148" y="73.14814814814815" width="3.0370370370370376" height="3.0370370370370376" transform="rotate(68 309.3333333333333 74.66666666666667)" /><rect x="328.93333333333334" y="72.93333333333334" width="3.466666666666667" height="3.466666666666667" transform="rotate(72 330.6666666666667 74.66666666666667)" /><rect x="350.037037037037" y="72.70370370370371" width="3.9259259259259256" height="3.9259259259259256" transform="rotate(76 352 74.66666666666667)" /><rect x="371.1259259259259" y="72.45925925925927" width="4.414814814814815" height="4.414814814814815" transform="rotate(80 373.3333333333333 74.66666666666667)" /><rect x="392.20000000000005" y="72.2" width="4.933333333333334" height="4.933333333333334" transform="rotate(84 394.6666666666667 74.66666666666667)" /><rect x="413.25925925925924" y="71.92592592592592" width="5.481481481481481" height="5.481481481481481" transform="rotate(88 416 74.66666666666667)" /><rect x="434.30370370370366" y="71.63703703703705" width="6.05925925925926" height="6.05925925925926" transform="rotate(92 437.3333333333333 74.66666666666667)" /><rect x="455.33333333333337" y="71.33333333333334" width="6.666666666666667" height="6.666666666666667" transform="rotate(96 458.6666666666667 74.66666666666667)" /><rect x="476.34814814814814" y="71.01481481481483" width="7.303703703703703" height="7.303703703703703" transform="rotate(100 480 74.66666666666667)" /><rect x="497.34814814814814" y="70.68148148148148" width="7.970370370370372" height="7.970370370370372" transform="rotate(104 501.3333333333333 74.66666666666667)" /><rect x="10.548148148148147" y="95.88148148148149" width="0.23703703703703702" height="0.23703703703703702" transform="rotate(16 10.666666666666666 96)" /><rect x="31.874074074074073" y="95.87407407407407" width="0.2518518518518518" height="0.2518518518518518" transform="rotate(20 32 96)" /><rect x="53.18518518518518" y="95.85185185185185" width="0.2962962962962963" height="0.2962962962962963" transform="rotate(24 53.33333333333333 96)" /><rect x="74.48148148148148" y="95.81481481481481" width="0.37037037037037035" height="0.37037037037037035" transform="rotate(28 74.66666666666667 96)" /><rect x="95.76296296296296" y="95.76296296296296" width="0.47407407407407404" height="0.47407407407407404" transform="rotate(32 96 96)" /><rect x="117.02962962962962" y="95.6962962962963" width="0.6074074074074074" height="0.6074074074074074" transform="rotate(36 117.33333333333333 96)" /><rect x="138.28148148148148" y="95.61481481481482" width="0.7703703703703704" height="0.7703703703703704" transform="rotate(40 138.66666666666666 96)" /><rect x="159.51851851851848" y="95.51851851851852" width="0.9629629629629631" height="0.9629629629629631" transform="rotate(44 159.99999999999997 96)" /><rect x="180.74074074074073" y="95.4074074074074" width="1.1851851851851851" height="1.1851851851851851" transform="rotate(48 181.33333333333331 96)" /><rect x="201.94814814814814" y="95.28148148148148" width="1.4370370370370371" height="1.4370370370370371" transform="rotate(52 202.66666666666666 96)" /><rect x="223.1407407407407" y="95.14074074074074" width="1.7185185185185186" height="1.7185185185185186" transform="rotate(56 223.99999999999997 96)" /><rect x="244.3185185185185" y="94.98518518518519" width="2.0296296296296297" height="2.0296296296296297" transform="rotate(60 245.33333333333331 96)" /><rect x="265.4814814814815" y="94.81481481481481" width="2.3703703703703702" height="2.3703703703703702" transform="rotate(64 266.6666666666667 96)" /><rect x="286.6296296296296" y="94.62962962962963" width="2.7407407407407405" height="2.7407407407407405" transform="rotate(68 288 96)" /><rect x="307.76296296296294" y="94.42962962962963" width="3.1407407407407413" height="3.1407407407407413" transform="rotate(72 309.3333333333333 96)" /><rect x="328.8814814814815" y="94.21481481481482" width="3.5703703703703704" height="3.5703703703703704" transform="rotate(76 330.6666666666667 96)" /><rect x="349.9851851851852" y="93.98518518518519" width="4.029629629629629" height="4.029629629629629" transform="rotate(80 352 96)" /><rect x="371.0740740740741" y="93.74074074074073" width="4.518518518518519" height="4.518518518518519" transform="rotate(84 373.3333333333333 96)" /><rect x="392.14814814814815" y="93.48148148148148" width="5.037037037037037" height="5.037037037037037" transform="rotate(88 394.6666666666667 96)" /><rect x="413.2074074074074" y="93.2074074074074" width="5.585185185185185" height="5.585185185185185" transform="rotate(92 416 96)" /><rect x="434.2518518518518" y="92.91851851851852" width="6.162962962962964" height="6.162962962962964" transform="rotate(96 437.3333333333333 96)" /><rect x="455.2814814814815" y="92.61481481481482" width="6.770370370370371" height="6.770370370370371" transform="rotate(100 458.6666666666667 96)" /><rect x="476.2962962962963" y="92.29629629629629" width="7.4074074074074066" height="7.4074074074074066" transform="rotate(104 480 96)" /><rect x="497.2962962962963" y="91.96296296296296" width="8.074074074074074" height="8.074074074074074" transform="rotate(108 501.3333333333333 96)" /><rect x="10.481481481481481" y="117.14814814814814" width="0.3703703703703704" height="0.3703703703703704" transform="rotate(20 10.666666666666666 117.33333333333333)" /><rect x="31.807407407407407" y="117.14074074074074" width="0.38518518518518524" height="0.38518518518518524" transform="rotate(24 32 117.33333333333333)" /><rect x="53.11851851851851" y="117.11851851851851" width="0.42962962962962964" height="0.42962962962962964" transform="rotate(28 53.33333333333333 117.33333333333333)" /><rect x="74.41481481481482" y="117.08148148148148" width="0.5037037037037038" height="0.5037037037037038" transform="rotate(32 74.66666666666667 117.33333333333333)" /><rect x="95.6962962962963" y="117.02962962962962" width="0.6074074074074074" height="0.6074074074074074" transform="rotate(36 96 117.33333333333333)" /><rect x="116.96296296296296" y="116.96296296296296" width="0.7407407407407408" height="0.7407407407407408" transform="rotate(40 117.33333333333333 117.33333333333333)" /><rect x="138.21481481481482" y="116.88148148148147" width="0.9037037037037038" height="0.9037037037037038" transform="rotate(44 138.66666666666666 117.33333333333333)" /><rect x="159.4518518518518" y="116.78518518518518" width="1.0962962962962963" height="1.0962962962962963" transform="rotate(48 159.99999999999997 117.33333333333333)" /><rect x="180.67407407407404" y="116.67407407407407" width="1.3185185185185186" height="1.3185185185185186" transform="rotate(52 181.33333333333331 117.33333333333333)" /><rect x="201.88148148148147" y="116.54814814814814" width="1.5703703703703704" height="1.5703703703703704" transform="rotate(56 202.66666666666666 117.33333333333333)" /><rect x="223.07407407407405" y="116.4074074074074" width="1.851851851851852" height="1.851851851851852" transform="rotate(60 223.99999999999997 117.33333333333333)" /><rect x="244.25185185185182" y="116.25185185185185" width="2.162962962962963" height="2.162962962962963" transform="rotate(64 245.33333333333331 117.33333333333333)" /><rect x="265.41481481481486" y="116.08148148148148" width="2.503703703703704" height="2.503703703703704" transform="rotate(68 266.6666666666667 117.33333333333333)" /><rect x="286.56296296296296" y="115.89629629629628" width="2.874074074074074" height="2.874074074074074" transform="rotate(72 288 117.33333333333333)" /><rect x="307.6962962962963" y="115.6962962962963" width="3.2740740740740746" height="3.2740740740740746" transform="rotate(76 309.3333333333333 117.33333333333333)" /><rect x="328.81481481481484" y="115.48148148148148" width="3.7037037037037037" height="3.7037037037037037" transform="rotate(80 330.6666666666667 117.33333333333333)" /><rect x="349.9185185185185" y="115.25185185185185" width="4.162962962962963" height="4.162962962962963" transform="rotate(84 352 117.33333333333333)" /><rect x="371.0074074074074" y="115.0074074074074" width="4.651851851851852" height="4.651851851851852" transform="rotate(88 373.3333333333333 117.33333333333333)" /><rect x="392.0814814814815" y="114.74814814814815" width="5.17037037037037" height="5.17037037037037" transform="rotate(92 394.6666666666667 117.33333333333333)" /><rect x="413.14074074074074" y="114.47407407407407" width="5.718518518518518" height="5.718518518518518" transform="rotate(96 416 117.33333333333333)" /><rect x="434.18518518518516" y="114.18518518518518" width="6.296296296296297" height="6.296296296296297" transform="rotate(100 437.3333333333333 117.33333333333333)" /><rect x="455.2148148148148" y="113.88148148148147" width="6.9037037037037035" height="6.9037037037037035" transform="rotate(104 458.6666666666667 117.33333333333333)" /><rect x="476.22962962962964" y="113.56296296296296" width="7.54074074074074" height="7.54074074074074" transform="rotate(108 480 117.33333333333333)" /><rect x="497.2296296296296" y="113.22962962962963" width="8.207407407407409" height="8.207407407407409" transform="rotate(112 501.3333333333333 117.33333333333333)" /><rect x="10.399999999999999" y="138.39999999999998" width="0.5333333333333333" height="0.5333333333333333" transform="rotate(24 10.666666666666666 138.66666666666666)" /><rect x="31.725925925925925" y="138.3925925925926" width="0.548148148148148" height="0.548148148148148" transform="rotate(28 32 138.66666666666666)" /><rect x="53.03703703703703" y="138.37037037037035" width="0.5925925925925926" height="0.5925925925925926" transform="rotate(32 53.33333333333333 138.66666666666666)" /><rect x="74.33333333333334" y="138.33333333333331" width="0.6666666666666666" height="0.6666666666666666" transform="rotate(36 74.66666666666667 138.66666666666666)" /><rect x="95.61481481481482" y="138.28148148148148" width="0.7703703703703704" height="0.7703703703703704" transform="rotate(40 96 138.66666666666666)" /><rect x="116.88148148148147" y="138.21481481481482" width="0.9037037037037038" height="0.9037037037037038" transform="rotate(44 117.33333333333333 138.66666666666666)" /><rect x="138.13333333333333" y="138.13333333333333" width="1.0666666666666667" height="1.0666666666666667" transform="rotate(48 138.66666666666666 138.66666666666666)" /><rect x="159.37037037037035" y="138.03703703703704" width="1.2592592592592595" height="1.2592592592592595" transform="rotate(52 159.99999999999997 138.66666666666666)" /><rect x="180.59259259259258" y="137.92592592592592" width="1.4814814814814814" height="1.4814814814814814" transform="rotate(56 181.33333333333331 138.66666666666666)" /><rect x="201.79999999999998" y="137.79999999999998" width="1.7333333333333334" height="1.7333333333333334" transform="rotate(60 202.66666666666666 138.66666666666666)" /><rect x="222.99259259259256" y="137.65925925925924" width="2.014814814814815" height="2.014814814814815" transform="rotate(64 223.99999999999997 138.66666666666666)" /><rect x="244.17037037037036" y="137.5037037037037" width="2.3259259259259255" height="2.3259259259259255" transform="rotate(68 245.33333333333331 138.66666666666666)" /><rect x="265.33333333333337" y="137.33333333333331" width="2.6666666666666665" height="2.6666666666666665" transform="rotate(72 266.6666666666667 138.66666666666666)" /><rect x="286.48148148148147" y="137.14814814814815" width="3.0370370370370368" height="3.0370370370370368" transform="rotate(76 288 138.66666666666666)" /><rect x="307.6148148148148" y="136.94814814814814" width="3.4370370370370376" height="3.4370370370370376" transform="rotate(80 309.3333333333333 138.66666666666666)" /><rect x="328.73333333333335" y="136.73333333333332" width="3.8666666666666667" height="3.8666666666666667" transform="rotate(84 330.6666666666667 138.66666666666666)" /><rect x="349.837037037037" y="136.5037037037037" width="4.325925925925926" height="4.325925925925926" transform="rotate(88 352 138.66666666666666)" /><rect x="370.9259259259259" y="136.25925925925924" width="4.814814814814815" height="4.814814814814815" transform="rotate(92 373.3333333333333 138.66666666666666)" /><rect x="392" y="136" width="5.333333333333333" height="5.333333333333333" transform="rotate(96 394.6666666666667 138.66666666666666)" /><rect x="413.05925925925925" y="135.7259259259259" width="5.881481481481481" height="5.881481481481481" transform="rotate(100 416 138.66666666666666)" /><rect x="434.1037037037037" y="135.43703703703702" width="6.45925925925926" height="6.45925925925926" transform="rotate(104 437.3333333333333 138.66666666666666)" /><rect x="455.1333333333333" y="135.13333333333333" width="7.066666666666666" height="7.066666666666666" transform="rotate(108 458.6666666666667 138.66666666666666)" /><rect x="476.14814814814815" y="134.8148148148148" width="7.703703703703702" height="7.703703703703702" transform="rotate(112 480 138.66666666666666)" /><rect x="497.14814814814815" y="134.48148148148147" width="8.370370370370372" height="8.370370370370372" transform="rotate(116 501.3333333333333 138.66666666666666)" /><rect x="10.303703703703704" y="159.637037037037" width="0.7259259259259261" height="0.7259259259259261" transform="rotate(28 10.666666666666666 159.99999999999997)" /><rect x="31.62962962962963" y="159.6296296296296" width="0.7407407407407408" height="0.7407407407407408" transform="rotate(32 32 159.99999999999997)" /><rect x="52.940740740740736" y="159.60740740740738" width="0.7851851851851853" height="0.7851851851851853" transform="rotate(36 53.33333333333333 159.99999999999997)" /><rect x="74.23703703703704" y="159.57037037037034" width="0.8592592592592594" height="0.8592592592592594" transform="rotate(40 74.66666666666667 159.99999999999997)" /><rect x="95.51851851851852" y="159.51851851851848" width="0.9629629629629631" height="0.9629629629629631" transform="rotate(44 96 159.99999999999997)" /><rect x="116.78518518518518" y="159.4518518518518" width="1.0962962962962963" height="1.0962962962962963" transform="rotate(48 117.33333333333333 159.99999999999997)" /><rect x="138.03703703703704" y="159.37037037037035" width="1.2592592592592595" height="1.2592592592592595" transform="rotate(52 138.66666666666666 159.99999999999997)" /><rect x="159.27407407407404" y="159.27407407407404" width="1.4518518518518522" height="1.4518518518518522" transform="rotate(56 159.99999999999997 159.99999999999997)" /><rect x="180.49629629629626" y="159.16296296296292" width="1.6740740740740743" height="1.6740740740740743" transform="rotate(60 181.33333333333331 159.99999999999997)" /><rect x="201.7037037037037" y="159.037037037037" width="1.9259259259259263" height="1.9259259259259263" transform="rotate(64 202.66666666666666 159.99999999999997)" /><rect x="222.89629629629627" y="158.89629629629627" width="2.2074074074074077" height="2.2074074074074077" transform="rotate(68 223.99999999999997 159.99999999999997)" /><rect x="244.07407407407405" y="158.7407407407407" width="2.5185185185185186" height="2.5185185185185186" transform="rotate(72 245.33333333333331 159.99999999999997)" /><rect x="265.23703703703706" y="158.57037037037034" width="2.8592592592592596" height="2.8592592592592596" transform="rotate(76 266.6666666666667 159.99999999999997)" /><rect x="286.3851851851852" y="158.38518518518515" width="3.2296296296296294" height="3.2296296296296294" transform="rotate(80 288 159.99999999999997)" /><rect x="307.5185185185185" y="158.18518518518516" width="3.62962962962963" height="3.62962962962963" transform="rotate(84 309.3333333333333 159.99999999999997)" /><rect x="328.63703703703703" y="157.97037037037035" width="4.059259259259259" height="4.059259259259259" transform="rotate(88 330.6666666666667 159.99999999999997)" /><rect x="349.74074074074076" y="157.7407407407407" width="4.518518518518518" height="4.518518518518518" transform="rotate(92 352 159.99999999999997)" /><rect x="370.8296296296296" y="157.49629629629626" width="5.007407407407408" height="5.007407407407408" transform="rotate(96 373.3333333333333 159.99999999999997)" /><rect x="391.90370370370374" y="157.237037037037" width="5.525925925925925" height="5.525925925925925" transform="rotate(100 394.6666666666667 159.99999999999997)" /><rect x="412.962962962963" y="156.96296296296293" width="6.0740740740740735" height="6.0740740740740735" transform="rotate(104 416 159.99999999999997)" /><rect x="434.0074074074074" y="156.67407407407404" width="6.651851851851852" height="6.651851851851852" transform="rotate(108 437.3333333333333 159.99999999999997)" /><rect x="455.03703703703707" y="156.37037037037035" width="7.259259259259259" height="7.259259259259259" transform="rotate(112 458.6666666666667 159.99999999999997)" /><rect x="476.05185185185184" y="156.05185185185184" width="7.8962962962962955" height="7.8962962962962955" transform="rotate(116 480 159.99999999999997)" /><rect x="497.05185185185184" y="155.7185185185185" width="8.562962962962963" height="8.562962962962963" transform="rotate(120 501.3333333333333 159.99999999999997)" /><rect x="10.192592592592591" y="180.85925925925923" width="0.9481481481481481" height="0.9481481481481481" transform="rotate(32 10.666666666666666 181.33333333333331)" /><rect x="31.51851851851852" y="180.85185185185182" width="0.9629629629629628" height="0.9629629629629628" transform="rotate(36 32 181.33333333333331)" /><rect x="52.82962962962962" y="180.8296296296296" width="1.0074074074074073" height="1.0074074074074073" transform="rotate(40 53.33333333333333 181.33333333333331)" /><rect x="74.12592592592593" y="180.79259259259257" width="1.0814814814814815" height="1.0814814814814815" transform="rotate(44 74.66666666666667 181.33333333333331)" /><rect x="95.4074074074074" y="180.74074074074073" width="1.1851851851851851" height="1.1851851851851851" transform="rotate(48 96 181.33333333333331)" /><rect x="116.67407407407407" y="180.67407407407404" width="1.3185185185185186" height="1.3185185185185186" transform="rotate(52 117.33333333333333 181.33333333333331)" /><rect x="137.92592592592592" y="180.59259259259258" width="1.4814814814814814" height="1.4814814814814814" transform="rotate(56 138.66666666666666 181.33333333333331)" /><rect x="159.16296296296292" y="180.49629629629626" width="1.6740740740740743" height="1.6740740740740743" transform="rotate(60 159.99999999999997 181.33333333333331)" /><rect x="180.38518518518518" y="180.38518518518518" width="1.8962962962962961" height="1.8962962962962961" transform="rotate(64 181.33333333333331 181.33333333333331)" /><rect x="201.59259259259258" y="180.25925925925924" width="2.148148148148148" height="2.148148148148148" transform="rotate(68 202.66666666666666 181.33333333333331)" /><rect x="222.78518518518516" y="180.1185185185185" width="2.4296296296296296" height="2.4296296296296296" transform="rotate(72 223.99999999999997 181.33333333333331)" /><rect x="243.96296296296293" y="179.96296296296293" width="2.7407407407407405" height="2.7407407407407405" transform="rotate(76 245.33333333333331 181.33333333333331)" /><rect x="265.12592592592597" y="179.79259259259257" width="3.0814814814814815" height="3.0814814814814815" transform="rotate(80 266.6666666666667 181.33333333333331)" /><rect x="286.27407407407406" y="179.60740740740738" width="3.4518518518518513" height="3.4518518518518513" transform="rotate(84 288 181.33333333333331)" /><rect x="307.4074074074074" y="179.4074074074074" width="3.8518518518518525" height="3.8518518518518525" transform="rotate(88 309.3333333333333 181.33333333333331)" /><rect x="328.52592592592595" y="179.19259259259258" width="4.281481481481482" height="4.281481481481482" transform="rotate(92 330.6666666666667 181.33333333333331)" /><rect x="349.6296296296296" y="178.96296296296293" width="4.7407407407407405" height="4.7407407407407405" transform="rotate(96 352 181.33333333333331)" /><rect x="370.7185185185185" y="178.7185185185185" width="5.22962962962963" height="5.22962962962963" transform="rotate(100 373.3333333333333 181.33333333333331)" /><rect x="391.7925925925926" y="178.45925925925923" width="5.7481481481481485" height="5.7481481481481485" transform="rotate(104 394.6666666666667 181.33333333333331)" /><rect x="412.85185185185185" y="178.18518518518516" width="6.296296296296295" height="6.296296296296295" transform="rotate(108 416 181.33333333333331)" /><rect x="433.89629629629627" y="177.89629629629627" width="6.874074074074074" height="6.874074074074074" transform="rotate(112 437.3333333333333 181.33333333333331)" /><rect x="454.9259259259259" y="177.59259259259258" width="7.481481481481482" height="7.481481481481482" transform="rotate(116 458.6666666666667 181.33333333333331)" /><rect x="475.94074074074075" y="177.27407407407406" width="8.118518518518519" height="8.118518518518519" transform="rotate(120 480 181.33333333333331)" /><rect x="496.9407407407407" y="176.94074074074072" width="8.785185185185187" height="8.785185185185187" transform="rotate(124 501.3333333333333 181.33333333333331)" /><rect x="10.066666666666666" y="202.06666666666666" width="1.2" height="1.2" transform="rotate(36 10.666666666666666 202.66666666666666)" /><rect x="31.392592592592592" y="202.05925925925925" width="1.2148148148148148" height="1.2148148148148148" transform="rotate(40 32 202.66666666666666)" /><rect x="52.7037037037037" y="202.03703703703704" width="1.2592592592592593" height="1.2592592592592593" transform="rotate(44 53.33333333333333 202.66666666666666)" /><rect x="74" y="202" width="1.3333333333333333" height="1.3333333333333333" transform="rotate(48 74.66666666666667 202.66666666666666)" /><rect x="95.28148148148148" y="201.94814814814814" width="1.4370370370370371" height="1.4370370370370371" transform="rotate(52 96 202.66666666666666)" /><rect x="116.54814814814814" y="201.88148148148147" width="1.5703703703703704" height="1.5703703703703704" transform="rotate(56 117.33333333333333 202.66666666666666)" /><rect x="137.79999999999998" y="201.79999999999998" width="1.7333333333333334" height="1.7333333333333334" transform="rotate(60 138.66666666666666 202.66666666666666)" /><rect x="159.037037037037" y="201.7037037037037" width="1.9259259259259263" height="1.9259259259259263" transform="rotate(64 159.99999999999997 202.66666666666666)" /><rect x="180.25925925925924" y="201.59259259259258" width="2.148148148148148" height="2.148148148148148" transform="rotate(68 181.33333333333331 202.66666666666666)" /><rect x="201.46666666666667" y="201.46666666666667" width="2.4" height="2.4" transform="rotate(72 202.66666666666666 202.66666666666666)" /><rect x="222.65925925925924" y="201.32592592592593" width="2.681481481481482" height="2.681481481481482" transform="rotate(76 223.99999999999997 202.66666666666666)" /><rect x="243.83703703703702" y="201.17037037037036" width="2.9925925925925925" height="2.9925925925925925" transform="rotate(80 245.33333333333331 202.66666666666666)" /><rect x="265" y="201" width="3.3333333333333335" height="3.3333333333333335" transform="rotate(84 266.6666666666667 202.66666666666666)" /><rect x="286.14814814814815" y="200.8148148148148" width="3.7037037037037033" height="3.7037037037037033" transform="rotate(88 288 202.66666666666666)" /><rect x="307.2814814814815" y="200.6148148148148" width="4.1037037037037045" height="4.1037037037037045" transform="rotate(92 309.3333333333333 202.66666666666666)" /><rect x="328.40000000000003" y="200.39999999999998" width="4.533333333333333" height="4.533333333333333" transform="rotate(96 330.6666666666667 202.66666666666666)" /><rect x="349.5037037037037" y="200.17037037037036" width="4.992592592592592" height="4.992592592592592" transform="rotate(100 352 202.66666666666666)" /><rect x="370.59259259259255" y="199.92592592592592" width="5.481481481481482" height="5.481481481481482" transform="rotate(104 373.3333333333333 202.66666666666666)" /><rect x="391.6666666666667" y="199.66666666666666" width="6" height="6" transform="rotate(108 394.6666666666667 202.66666666666666)" /><rect x="412.72592592592594" y="199.3925925925926" width="6.548148148148147" height="6.548148148148147" transform="rotate(112 416 202.66666666666666)" /><rect x="433.77037037037036" y="199.1037037037037" width="7.125925925925927" height="7.125925925925927" transform="rotate(116 437.3333333333333 202.66666666666666)" /><rect x="454.8" y="198.79999999999998" width="7.733333333333333" height="7.733333333333333" transform="rotate(120 458.6666666666667 202.66666666666666)" /><rect x="475.81481481481484" y="198.48148148148147" width="8.37037037037037" height="8.37037037037037" transform="rotate(124 480 202.66666666666666)" /><rect x="496.8148148148148" y="198.14814814814815" width="9.037037037037038" height="9.037037037037038" transform="rotate(128 501.3333333333333 202.66666666666666)" /><rect x="9.925925925925926" y="223.25925925925924" width="1.4814814814814816" height="1.4814814814814816" transform="rotate(40 10.666666666666666 223.99999999999997)" /><rect x="31.251851851851853" y="223.25185185185182" width="1.4962962962962965" height="1.4962962962962965" transform="rotate(44 32 223.99999999999997)" /><rect x="52.562962962962956" y="223.2296296296296" width="1.540740740740741" height="1.540740740740741" transform="rotate(48 53.33333333333333 223.99999999999997)" /><rect x="73.85925925925926" y="223.19259259259258" width="1.614814814814815" height="1.614814814814815" transform="rotate(52 74.66666666666667 223.99999999999997)" /><rect x="95.14074074074074" y="223.1407407407407" width="1.7185185185185186" height="1.7185185185185186" transform="rotate(56 96 223.99999999999997)" /><rect x="116.4074074074074" y="223.07407407407405" width="1.851851851851852" height="1.851851851851852" transform="rotate(60 117.33333333333333 223.99999999999997)" /><rect x="137.65925925925924" y="222.99259259259256" width="2.014814814814815" height="2.014814814814815" transform="rotate(64 138.66666666666666 223.99999999999997)" /><rect x="158.89629629629627" y="222.89629629629627" width="2.2074074074074077" height="2.2074074074074077" transform="rotate(68 159.99999999999997 223.99999999999997)" /><rect x="180.1185185185185" y="222.78518518518516" width="2.4296296296296296" height="2.4296296296296296" transform="rotate(72 181.33333333333331 223.99999999999997)" /><rect x="201.32592592592593" y="222.65925925925924" width="2.681481481481482" height="2.681481481481482" transform="rotate(76 202.66666666666666 223.99999999999997)" /><rect x="222.51851851851848" y="222.51851851851848" width="2.9629629629629632" height="2.9629629629629632" transform="rotate(80 223.99999999999997 223.99999999999997)" /><rect x="243.69629629629628" y="222.36296296296294" width="3.274074074074074" height="3.274074074074074" transform="rotate(84 245.33333333333331 223.99999999999997)" /><rect x="264.85925925925926" y="222.19259259259258" width="3.614814814814815" height="3.614814814814815" transform="rotate(88 266.6666666666667 223.99999999999997)" /><rect x="286.0074074074074" y="222.00740740740738" width="3.9851851851851845" height="3.9851851851851845" transform="rotate(92 288 223.99999999999997)" /><rect x="307.14074074074074" y="221.80740740740737" width="4.385185185185185" height="4.385185185185185" transform="rotate(96 309.3333333333333 223.99999999999997)" /><rect x="328.2592592592593" y="221.59259259259255" width="4.814814814814815" height="4.814814814814815" transform="rotate(100 330.6666666666667 223.99999999999997)" /><rect x="349.36296296296297" y="221.36296296296294" width="5.274074074074075" height="5.274074074074075" transform="rotate(104 352 223.99999999999997)" /><rect x="370.4518518518518" y="221.1185185185185" width="5.7629629629629635" height="5.7629629629629635" transform="rotate(108 373.3333333333333 223.99999999999997)" /><rect x="391.52592592592595" y="220.85925925925923" width="6.281481481481482" height="6.281481481481482" transform="rotate(112 394.6666666666667 223.99999999999997)" /><rect x="412.5851851851852" y="220.58518518518517" width="6.829629629629629" height="6.829629629629629" transform="rotate(116 416 223.99999999999997)" /><rect x="433.6296296296296" y="220.29629629629628" width="7.407407407407408" height="7.407407407407408" transform="rotate(120 437.3333333333333 223.99999999999997)" /><rect x="454.6592592592593" y="219.99259259259256" width="8.014814814814816" height="8.014814814814816" transform="rotate(124 458.6666666666667 223.99999999999997)" /><rect x="475.6740740740741" y="219.67407407407404" width="8.651851851851852" height="8.651851851851852" transform="rotate(128 480 223.99999999999997)" /><rect x="496.67407407407404" y="219.3407407407407" width="9.31851851851852" height="9.31851851851852" transform="rotate(132 501.3333333333333 223.99999999999997)" /><rect x="9.77037037037037" y="244.43703703703702" width="1.7925925925925923" height="1.7925925925925923" transform="rotate(44 10.666666666666666 245.33333333333331)" /><rect x="31.096296296296295" y="244.4296296296296" width="1.8074074074074071" height="1.8074074074074071" transform="rotate(48 32 245.33333333333331)" /><rect x="52.407407407407405" y="244.4074074074074" width="1.8518518518518516" height="1.8518518518518516" transform="rotate(52 53.33333333333333 245.33333333333331)" /><rect x="73.70370370370371" y="244.37037037037035" width="1.9259259259259256" height="1.9259259259259256" transform="rotate(56 74.66666666666667 245.33333333333331)" /><rect x="94.98518518518519" y="244.3185185185185" width="2.0296296296296297" height="2.0296296296296297" transform="rotate(60 96 245.33333333333331)" /><rect x="116.25185185185185" y="244.25185185185182" width="2.162962962962963" height="2.162962962962963" transform="rotate(64 117.33333333333333 245.33333333333331)" /><rect x="137.5037037037037" y="244.17037037037036" width="2.3259259259259255" height="2.3259259259259255" transform="rotate(68 138.66666666666666 245.33333333333331)" /><rect x="158.7407407407407" y="244.07407407407405" width="2.5185185185185186" height="2.5185185185185186" transform="rotate(72 159.99999999999997 245.33333333333331)" /><rect x="179.96296296296293" y="243.96296296296293" width="2.7407407407407405" height="2.7407407407407405" transform="rotate(76 181.33333333333331 245.33333333333331)" /><rect x="201.17037037037036" y="243.83703703703702" width="2.9925925925925925" height="2.9925925925925925" transform="rotate(80 202.66666666666666 245.33333333333331)" /><rect x="222.36296296296294" y="243.69629629629628" width="3.274074074074074" height="3.274074074074074" transform="rotate(84 223.99999999999997 245.33333333333331)" /><rect x="243.54074074074072" y="243.54074074074072" width="3.5851851851851846" height="3.5851851851851846" transform="rotate(88 245.33333333333331 245.33333333333331)" /><rect x="264.7037037037037" y="243.37037037037035" width="3.9259259259259256" height="3.9259259259259256" transform="rotate(92 266.6666666666667 245.33333333333331)" /><rect x="285.85185185185185" y="243.18518518518516" width="4.296296296296295" height="4.296296296296295" transform="rotate(96 288 245.33333333333331)" /><rect x="306.9851851851852" y="242.98518518518517" width="4.696296296296297" height="4.696296296296297" transform="rotate(100 309.3333333333333 245.33333333333331)" /><rect x="328.10370370370373" y="242.77037037037036" width="5.125925925925926" height="5.125925925925926" transform="rotate(104 330.6666666666667 245.33333333333331)" /><rect x="349.2074074074074" y="242.54074074074072" width="5.585185185185185" height="5.585185185185185" transform="rotate(108 352 245.33333333333331)" /><rect x="370.2962962962963" y="242.29629629629628" width="6.074074074074074" height="6.074074074074074" transform="rotate(112 373.3333333333333 245.33333333333331)" /><rect x="391.3703703703704" y="242.037037037037" width="6.592592592592593" height="6.592592592592593" transform="rotate(116 394.6666666666667 245.33333333333331)" /><rect x="412.42962962962963" y="241.76296296296294" width="7.14074074074074" height="7.14074074074074" transform="rotate(120 416 245.33333333333331)" /><rect x="433.47407407407405" y="241.47407407407405" width="7.718518518518519" height="7.718518518518519" transform="rotate(124 437.3333333333333 245.33333333333331)" /><rect x="454.5037037037037" y="241.17037037037036" width="8.325925925925926" height="8.325925925925926" transform="rotate(128 458.6666666666667 245.33333333333331)" /><rect x="475.51851851851853" y="240.85185185185185" width="8.962962962962962" height="8.962962962962962" transform="rotate(132 480 245.33333333333331)" /><rect x="496.5185185185185" y="240.5185185185185" width="9.62962962962963" height="9.62962962962963" transform="rotate(136 501.3333333333333 245.33333333333331)" /><rect x="9.6" y="265.6" width="2.1333333333333333" height="2.1333333333333333" transform="rotate(48 10.666666666666666 266.6666666666667)" /><rect x="30.925925925925927" y="265.5925925925926" width="2.148148148148148" height="2.148148148148148" transform="rotate(52 32 266.6666666666667)" /><rect x="52.237037037037034" y="265.57037037037037" width="2.192592592592592" height="2.192592592592592" transform="rotate(56 53.33333333333333 266.6666666666667)" /><rect x="73.53333333333333" y="265.53333333333336" width="2.2666666666666666" height="2.2666666666666666" transform="rotate(60 74.66666666666667 266.6666666666667)" /><rect x="94.81481481481481" y="265.4814814814815" width="2.3703703703703702" height="2.3703703703703702" transform="rotate(64 96 266.6666666666667)" /><rect x="116.08148148148148" y="265.41481481481486" width="2.503703703703704" height="2.503703703703704" transform="rotate(68 117.33333333333333 266.6666666666667)" /><rect x="137.33333333333331" y="265.33333333333337" width="2.6666666666666665" height="2.6666666666666665" transform="rotate(72 138.66666666666666 266.6666666666667)" /><rect x="158.57037037037034" y="265.23703703703706" width="2.8592592592592596" height="2.8592592592592596" transform="rotate(76 159.99999999999997 266.6666666666667)" /><rect x="179.79259259259257" y="265.12592592592597" width="3.0814814814814815" height="3.0814814814814815" transform="rotate(80 181.33333333333331 266.6666666666667)" /><rect x="201" y="265" width="3.3333333333333335" height="3.3333333333333335" transform="rotate(84 202.66666666666666 266.6666666666667)" /><rect x="222.19259259259258" y="264.85925925925926" width="3.614814814814815" height="3.614814814814815" transform="rotate(88 223.99999999999997 266.6666666666667)" /><rect x="243.37037037037035" y="264.7037037037037" width="3.9259259259259256" height="3.9259259259259256" transform="rotate(92 245.33333333333331 266.6666666666667)" /><rect x="264.53333333333336" y="264.53333333333336" width="4.266666666666667" height="4.266666666666667" transform="rotate(96 266.6666666666667 266.6666666666667)" /><rect x="285.68148148148146" y="264.34814814814814" width="4.637037037037036" height="4.637037037037036" transform="rotate(100 288 266.6666666666667)" /><rect x="306.8148148148148" y="264.14814814814815" width="5.037037037037038" height="5.037037037037038" transform="rotate(104 309.3333333333333 266.6666666666667)" /><rect x="327.93333333333334" y="263.93333333333334" width="5.466666666666667" height="5.466666666666667" transform="rotate(108 330.6666666666667 266.6666666666667)" /><rect x="349.037037037037" y="263.7037037037037" width="5.925925925925926" height="5.925925925925926" transform="rotate(112 352 266.6666666666667)" /><rect x="370.1259259259259" y="263.4592592592593" width="6.414814814814815" height="6.414814814814815" transform="rotate(116 373.3333333333333 266.6666666666667)" /><rect x="391.20000000000005" y="263.20000000000005" width="6.933333333333334" height="6.933333333333334" transform="rotate(120 394.6666666666667 266.6666666666667)" /><rect x="412.25925925925924" y="262.9259259259259" width="7.481481481481481" height="7.481481481481481" transform="rotate(124 416 266.6666666666667)" /><rect x="433.30370370370366" y="262.63703703703703" width="8.05925925925926" height="8.05925925925926" transform="rotate(128 437.3333333333333 266.6666666666667)" /><rect x="454.33333333333337" y="262.33333333333337" width="8.666666666666666" height="8.666666666666666" transform="rotate(132 458.6666666666667 266.6666666666667)" /><rect x="475.34814814814814" y="262.0148148148148" width="9.303703703703702" height="9.303703703703702" transform="rotate(136 480 266.6666666666667)" /><rect x="496.34814814814814" y="261.6814814814815" width="9.970370370370372" height="9.970370370370372" transform="rotate(140 501.3333333333333 266.6666666666667)" /><rect x="9.414814814814815" y="286.7481481481482" width="2.503703703703703" height="2.503703703703703" transform="rotate(52 10.666666666666666 288)" /><rect x="30.74074074074074" y="286.74074074074076" width="2.518518518518518" height="2.518518518518518" transform="rotate(56 32 288)" /><rect x="52.05185185185185" y="286.7185185185185" width="2.5629629629629624" height="2.5629629629629624" transform="rotate(60 53.33333333333333 288)" /><rect x="73.34814814814816" y="286.68148148148146" width="2.637037037037037" height="2.637037037037037" transform="rotate(64 74.66666666666667 288)" /><rect x="94.62962962962963" y="286.6296296296296" width="2.7407407407407405" height="2.7407407407407405" transform="rotate(68 96 288)" /><rect x="115.89629629629628" y="286.56296296296296" width="2.874074074074074" height="2.874074074074074" transform="rotate(72 117.33333333333333 288)" /><rect x="137.14814814814815" y="286.48148148148147" width="3.0370370370370368" height="3.0370370370370368" transform="rotate(76 138.66666666666666 288)" /><rect x="158.38518518518515" y="286.3851851851852" width="3.2296296296296294" height="3.2296296296296294" transform="rotate(80 159.99999999999997 288)" /><rect x="179.60740740740738" y="286.27407407407406" width="3.4518518518518513" height="3.4518518518518513" transform="rotate(84 181.33333333333331 288)" /><rect x="200.8148148148148" y="286.14814814814815" width="3.7037037037037033" height="3.7037037037037033" transform="rotate(88 202.66666666666666 288)" /><rect x="222.00740740740738" y="286.0074074074074" width="3.9851851851851845" height="3.9851851851851845" transform="rotate(92 223.99999999999997 288)" /><rect x="243.18518518518516" y="285.85185185185185" width="4.296296296296295" height="4.296296296296295" transform="rotate(96 245.33333333333331 288)" /><rect x="264.34814814814814" y="285.68148148148146" width="4.637037037037036" height="4.637037037037036" transform="rotate(100 266.6666666666667 288)" /><rect x="285.4962962962963" y="285.4962962962963" width="5.007407407407406" height="5.007407407407406" transform="rotate(104 288 288)" /><rect x="306.6296296296296" y="285.2962962962963" width="5.407407407407407" height="5.407407407407407" transform="rotate(108 309.3333333333333 288)" /><rect x="327.7481481481482" y="285.0814814814815" width="5.837037037037036" height="5.837037037037036" transform="rotate(112 330.6666666666667 288)" /><rect x="348.85185185185185" y="284.85185185185185" width="6.296296296296295" height="6.296296296296295" transform="rotate(116 352 288)" /><rect x="369.9407407407407" y="284.60740740740744" width="6.785185185185185" height="6.785185185185185" transform="rotate(120 373.3333333333333 288)" /><rect x="391.0148148148148" y="284.34814814814814" width="7.303703703703703" height="7.303703703703703" transform="rotate(124 394.6666666666667 288)" /><rect x="412.0740740740741" y="284.0740740740741" width="7.851851851851851" height="7.851851851851851" transform="rotate(128 416 288)" /><rect x="433.1185185185185" y="283.7851851851852" width="8.42962962962963" height="8.42962962962963" transform="rotate(132 437.3333333333333 288)" /><rect x="454.14814814814815" y="283.48148148148147" width="9.037037037037036" height="9.037037037037036" transform="rotate(136 458.6666666666667 288)" /><rect x="475.162962962963" y="283.162962962963" width="9.674074074074072" height="9.674074074074072" transform="rotate(140 480 288)" /><rect x="496.1629629629629" y="282.8296296296296" width="10.34074074074074" height="10.34074074074074" transform="rotate(144 501.3333333333333 288)" /><rect x="9.214814814814813" y="307.88148148148144" width="2.9037037037037043" height="2.9037037037037043" transform="rotate(56 10.666666666666666 309.3333333333333)" /><rect x="30.54074074074074" y="307.87407407407403" width="2.918518518518519" height="2.918518518518519" transform="rotate(60 32 309.3333333333333)" /><rect x="51.85185185185185" y="307.85185185185185" width="2.9629629629629632" height="2.9629629629629632" transform="rotate(64 53.33333333333333 309.3333333333333)" /><rect x="73.14814814814815" y="307.8148148148148" width="3.0370370370370376" height="3.0370370370370376" transform="rotate(68 74.66666666666667 309.3333333333333)" /><rect x="94.42962962962963" y="307.76296296296294" width="3.1407407407407413" height="3.1407407407407413" transform="rotate(72 96 309.3333333333333)" /><rect x="115.6962962962963" y="307.6962962962963" width="3.2740740740740746" height="3.2740740740740746" transform="rotate(76 117.33333333333333 309.3333333333333)" /><rect x="136.94814814814814" y="307.6148148148148" width="3.4370370370370376" height="3.4370370370370376" transform="rotate(80 138.66666666666666 309.3333333333333)" /><rect x="158.18518518518516" y="307.5185185185185" width="3.62962962962963" height="3.62962962962963" transform="rotate(84 159.99999999999997 309.3333333333333)" /><rect x="179.4074074074074" y="307.4074074074074" width="3.8518518518518525" height="3.8518518518518525" transform="rotate(88 181.33333333333331 309.3333333333333)" /><rect x="200.6148148148148" y="307.2814814814815" width="4.1037037037037045" height="4.1037037037037045" transform="rotate(92 202.66666666666666 309.3333333333333)" /><rect x="221.80740740740737" y="307.14074074074074" width="4.385185185185185" height="4.385185185185185" transform="rotate(96 223.99999999999997 309.3333333333333)" /><rect x="242.98518518518517" y="306.9851851851852" width="4.696296296296297" height="4.696296296296297" transform="rotate(100 245.33333333333331 309.3333333333333)" /><rect x="264.14814814814815" y="306.8148148148148" width="5.037037037037038" height="5.037037037037038" transform="rotate(104 266.6666666666667 309.3333333333333)" /><rect x="285.2962962962963" y="306.6296296296296" width="5.407407407407407" height="5.407407407407407" transform="rotate(108 288 309.3333333333333)" /><rect x="306.42962962962963" y="306.42962962962963" width="5.807407407407409" height="5.807407407407409" transform="rotate(112 309.3333333333333 309.3333333333333)" /><rect x="327.5481481481482" y="306.2148148148148" width="6.237037037037038" height="6.237037037037038" transform="rotate(116 330.6666666666667 309.3333333333333)" /><rect x="348.65185185185186" y="305.9851851851852" width="6.696296296296297" height="6.696296296296297" transform="rotate(120 352 309.3333333333333)" /><rect x="369.7407407407407" y="305.7407407407407" width="7.185185185185187" height="7.185185185185187" transform="rotate(124 373.3333333333333 309.3333333333333)" /><rect x="390.81481481481484" y="305.48148148148147" width="7.703703703703705" height="7.703703703703705" transform="rotate(128 394.6666666666667 309.3333333333333)" /><rect x="411.8740740740741" y="305.2074074074074" width="8.251851851851852" height="8.251851851851852" transform="rotate(132 416 309.3333333333333)" /><rect x="432.9185185185185" y="304.9185185185185" width="8.82962962962963" height="8.82962962962963" transform="rotate(136 437.3333333333333 309.3333333333333)" /><rect x="453.94814814814816" y="304.6148148148148" width="9.437037037037038" height="9.437037037037038" transform="rotate(140 458.6666666666667 309.3333333333333)" /><rect x="474.962962962963" y="304.2962962962963" width="10.074074074074074" height="10.074074074074074" transform="rotate(144 480 309.3333333333333)" /><rect x="495.96296296296293" y="303.96296296296293" width="10.740740740740742" height="10.740740740740742" transform="rotate(148 501.3333333333333 309.3333333333333)" /><rect x="9" y="329" width="3.3333333333333335" height="3.3333333333333335" transform="rotate(60 10.666666666666666 330.6666666666667)" /><rect x="30.325925925925926" y="328.9925925925926" width="3.348148148148148" height="3.348148148148148" transform="rotate(64 32 330.6666666666667)" /><rect x="51.63703703703703" y="328.9703703703704" width="3.3925925925925924" height="3.3925925925925924" transform="rotate(68 53.33333333333333 330.6666666666667)" /><rect x="72.93333333333334" y="328.93333333333334" width="3.466666666666667" height="3.466666666666667" transform="rotate(72 74.66666666666667 330.6666666666667)" /><rect x="94.21481481481482" y="328.8814814814815" width="3.5703703703703704" height="3.5703703703703704" transform="rotate(76 96 330.6666666666667)" /><rect x="115.48148148148148" y="328.81481481481484" width="3.7037037037037037" height="3.7037037037037037" transform="rotate(80 117.33333333333333 330.6666666666667)" /><rect x="136.73333333333332" y="328.73333333333335" width="3.8666666666666667" height="3.8666666666666667" transform="rotate(84 138.66666666666666 330.6666666666667)" /><rect x="157.97037037037035" y="328.63703703703703" width="4.059259259259259" height="4.059259259259259" transform="rotate(88 159.99999999999997 330.6666666666667)" /><rect x="179.19259259259258" y="328.52592592592595" width="4.281481481481482" height="4.281481481481482" transform="rotate(92 181.33333333333331 330.6666666666667)" /><rect x="200.39999999999998" y="328.40000000000003" width="4.533333333333333" height="4.533333333333333" transform="rotate(96 202.66666666666666 330.6666666666667)" /><rect x="221.59259259259255" y="328.2592592592593" width="4.814814814814815" height="4.814814814814815" transform="rotate(100 223.99999999999997 330.6666666666667)" /><rect x="242.77037037037036" y="328.10370370370373" width="5.125925925925926" height="5.125925925925926" transform="rotate(104 245.33333333333331 330.6666666666667)" /><rect x="263.93333333333334" y="327.93333333333334" width="5.466666666666667" height="5.466666666666667" transform="rotate(108 266.6666666666667 330.6666666666667)" /><rect x="285.0814814814815" y="327.7481481481482" width="5.837037037037036" height="5.837037037037036" transform="rotate(112 288 330.6666666666667)" /><rect x="306.2148148148148" y="327.5481481481482" width="6.237037037037038" height="6.237037037037038" transform="rotate(116 309.3333333333333 330.6666666666667)" /><rect x="327.33333333333337" y="327.33333333333337" width="6.666666666666667" height="6.666666666666667" transform="rotate(120 330.6666666666667 330.6666666666667)" /><rect x="348.43703703703704" y="327.10370370370373" width="7.125925925925926" height="7.125925925925926" transform="rotate(124 352 330.6666666666667)" /><rect x="369.5259259259259" y="326.85925925925926" width="7.614814814814815" height="7.614814814814815" transform="rotate(128 373.3333333333333 330.6666666666667)" /><rect x="390.6" y="326.6" width="8.133333333333333" height="8.133333333333333" transform="rotate(132 394.6666666666667 330.6666666666667)" /><rect x="411.6592592592593" y="326.32592592592596" width="8.681481481481482" height="8.681481481481482" transform="rotate(136 416 330.6666666666667)" /><rect x="432.7037037037037" y="326.03703703703707" width="9.259259259259261" height="9.259259259259261" transform="rotate(140 437.3333333333333 330.6666666666667)" /><rect x="453.73333333333335" y="325.73333333333335" width="9.866666666666667" height="9.866666666666667" transform="rotate(144 458.6666666666667 330.6666666666667)" /><rect x="474.7481481481482" y="325.41481481481486" width="10.503703703703703" height="10.503703703703703" transform="rotate(148 480 330.6666666666667)" /><rect x="495.7481481481481" y="325.0814814814815" width="11.170370370370371" height="11.170370370370371" transform="rotate(152 501.3333333333333 330.6666666666667)" /><rect x="8.77037037037037" y="350.10370370370373" width="3.7925925925925923" height="3.7925925925925923" transform="rotate(64 10.666666666666666 352)" /><rect x="30.096296296296295" y="350.0962962962963" width="3.807407407407407" height="3.807407407407407" transform="rotate(68 32 352)" /><rect x="51.407407407407405" y="350.0740740740741" width="3.851851851851851" height="3.851851851851851" transform="rotate(72 53.33333333333333 352)" /><rect x="72.70370370370371" y="350.037037037037" width="3.9259259259259256" height="3.9259259259259256" transform="rotate(76 74.66666666666667 352)" /><rect x="93.98518518518519" y="349.9851851851852" width="4.029629629629629" height="4.029629629629629" transform="rotate(80 96 352)" /><rect x="115.25185185185185" y="349.9185185185185" width="4.162962962962963" height="4.162962962962963" transform="rotate(84 117.33333333333333 352)" /><rect x="136.5037037037037" y="349.837037037037" width="4.325925925925926" height="4.325925925925926" transform="rotate(88 138.66666666666666 352)" /><rect x="157.7407407407407" y="349.74074074074076" width="4.518518518518518" height="4.518518518518518" transform="rotate(92 159.99999999999997 352)" /><rect x="178.96296296296293" y="349.6296296296296" width="4.7407407407407405" height="4.7407407407407405" transform="rotate(96 181.33333333333331 352)" /><rect x="200.17037037037036" y="349.5037037037037" width="4.992592592592592" height="4.992592592592592" transform="rotate(100 202.66666666666666 352)" /><rect x="221.36296296296294" y="349.36296296296297" width="5.274074074074075" height="5.274074074074075" transform="rotate(104 223.99999999999997 352)" /><rect x="242.54074074074072" y="349.2074074074074" width="5.585185185185185" height="5.585185185185185" transform="rotate(108 245.33333333333331 352)" /><rect x="263.7037037037037" y="349.037037037037" width="5.925925925925926" height="5.925925925925926" transform="rotate(112 266.6666666666667 352)" /><rect x="284.85185185185185" y="348.85185185185185" width="6.296296296296295" height="6.296296296296295" transform="rotate(116 288 352)" /><rect x="305.9851851851852" y="348.65185185185186" width="6.696296296296297" height="6.696296296296297" transform="rotate(120 309.3333333333333 352)" /><rect x="327.10370370370373" y="348.43703703703704" width="7.125925925925926" height="7.125925925925926" transform="rotate(124 330.6666666666667 352)" /><rect x="348.2074074074074" y="348.2074074074074" width="7.585185185185185" height="7.585185185185185" transform="rotate(128 352 352)" /><rect x="369.2962962962963" y="347.962962962963" width="8.074074074074074" height="8.074074074074074" transform="rotate(132 373.3333333333333 352)" /><rect x="390.3703703703704" y="347.7037037037037" width="8.592592592592592" height="8.592592592592592" transform="rotate(136 394.6666666666667 352)" /><rect x="411.42962962962963" y="347.42962962962963" width="9.140740740740739" height="9.140740740740739" transform="rotate(140 416 352)" /><rect x="432.47407407407405" y="347.14074074074074" width="9.718518518518518" height="9.718518518518518" transform="rotate(144 437.3333333333333 352)" /><rect x="453.5037037037037" y="346.837037037037" width="10.325925925925926" height="10.325925925925926" transform="rotate(148 458.6666666666667 352)" /><rect x="474.51851851851853" y="346.51851851851853" width="10.962962962962962" height="10.962962962962962" transform="rotate(152 480 352)" /><rect x="495.5185185185185" y="346.18518518518516" width="11.62962962962963" height="11.62962962962963" transform="rotate(156 501.3333333333333 352)" /><rect x="8.525925925925925" y="371.1925925925926" width="4.281481481481482" height="4.281481481481482" transform="rotate(68 10.666666666666666 373.3333333333333)" /><rect x="29.85185185185185" y="371.18518518518516" width="4.296296296296297" height="4.296296296296297" transform="rotate(72 32 373.3333333333333)" /><rect x="51.16296296296296" y="371.1629629629629" width="4.340740740740741" height="4.340740740740741" transform="rotate(76 53.33333333333333 373.3333333333333)" /><rect x="72.45925925925927" y="371.1259259259259" width="4.414814814814815" height="4.414814814814815" transform="rotate(80 74.66666666666667 373.3333333333333)" /><rect x="93.74074074074073" y="371.0740740740741" width="4.518518518518519" height="4.518518518518519" transform="rotate(84 96 373.3333333333333)" /><rect x="115.0074074074074" y="371.0074074074074" width="4.651851851851852" height="4.651851851851852" transform="rotate(88 117.33333333333333 373.3333333333333)" /><rect x="136.25925925925924" y="370.9259259259259" width="4.814814814814815" height="4.814814814814815" transform="rotate(92 138.66666666666666 373.3333333333333)" /><rect x="157.49629629629626" y="370.8296296296296" width="5.007407407407408" height="5.007407407407408" transform="rotate(96 159.99999999999997 373.3333333333333)" /><rect x="178.7185185185185" y="370.7185185185185" width="5.22962962962963" height="5.22962962962963" transform="rotate(100 181.33333333333331 373.3333333333333)" /><rect x="199.92592592592592" y="370.59259259259255" width="5.481481481481482" height="5.481481481481482" transform="rotate(104 202.66666666666666 373.3333333333333)" /><rect x="221.1185185185185" y="370.4518518518518" width="5.7629629629629635" height="5.7629629629629635" transform="rotate(108 223.99999999999997 373.3333333333333)" /><rect x="242.29629629629628" y="370.2962962962963" width="6.074074074074074" height="6.074074074074074" transform="rotate(112 245.33333333333331 373.3333333333333)" /><rect x="263.4592592592593" y="370.1259259259259" width="6.414814814814815" height="6.414814814814815" transform="rotate(116 266.6666666666667 373.3333333333333)" /><rect x="284.60740740740744" y="369.9407407407407" width="6.785185185185185" height="6.785185185185185" transform="rotate(120 288 373.3333333333333)" /><rect x="305.7407407407407" y="369.7407407407407" width="7.185185185185187" height="7.185185185185187" transform="rotate(124 309.3333333333333 373.3333333333333)" /><rect x="326.85925925925926" y="369.5259259259259" width="7.614814814814815" height="7.614814814814815" transform="rotate(128 330.6666666666667 373.3333333333333)" /><rect x="347.962962962963" y="369.2962962962963" width="8.074074074074074" height="8.074074074074074" transform="rotate(132 352 373.3333333333333)" /><rect x="369.05185185185184" y="369.05185185185184" width="8.562962962962963" height="8.562962962962963" transform="rotate(136 373.3333333333333 373.3333333333333)" /><rect x="390.12592592592597" y="368.7925925925926" width="9.081481481481482" height="9.081481481481482" transform="rotate(140 394.6666666666667 373.3333333333333)" /><rect x="411.18518518518516" y="368.5185185185185" width="9.62962962962963" height="9.62962962962963" transform="rotate(144 416 373.3333333333333)" /><rect x="432.2296296296296" y="368.2296296296296" width="10.207407407407409" height="10.207407407407409" transform="rotate(148 437.3333333333333 373.3333333333333)" /><rect x="453.2592592592593" y="367.9259259259259" width="10.814814814814815" height="10.814814814814815" transform="rotate(152 458.6666666666667 373.3333333333333)" /><rect x="474.27407407407406" y="367.6074074074074" width="11.45185185185185" height="11.45185185185185" transform="rotate(156 480 373.3333333333333)" /><rect x="495.27407407407406" y="367.27407407407406" width="12.11851851851852" height="12.11851851851852" transform="rotate(160 501.3333333333333 373.3333333333333)" /><rect x="8.266666666666666" y="392.2666666666667" width="4.8" height="4.8" transform="rotate(72 10.666666666666666 394.6666666666667)" /><rect x="29.59259259259259" y="392.2592592592593" width="4.814814814814815" height="4.814814814814815" transform="rotate(76 32 394.6666666666667)" /><rect x="50.9037037037037" y="392.23703703703706" width="4.859259259259259" height="4.859259259259259" transform="rotate(80 53.33333333333333 394.6666666666667)" /><rect x="72.2" y="392.20000000000005" width="4.933333333333334" height="4.933333333333334" transform="rotate(84 74.66666666666667 394.6666666666667)" /><rect x="93.48148148148148" y="392.14814814814815" width="5.037037037037037" height="5.037037037037037" transform="rotate(88 96 394.6666666666667)" /><rect x="114.74814814814815" y="392.0814814814815" width="5.17037037037037" height="5.17037037037037" transform="rotate(92 117.33333333333333 394.6666666666667)" /><rect x="136" y="392" width="5.333333333333333" height="5.333333333333333" transform="rotate(96 138.66666666666666 394.6666666666667)" /><rect x="157.237037037037" y="391.90370370370374" width="5.525925925925925" height="5.525925925925925" transform="rotate(100 159.99999999999997 394.6666666666667)" /><rect x="178.45925925925923" y="391.7925925925926" width="5.7481481481481485" height="5.7481481481481485" transform="rotate(104 181.33333333333331 394.6666666666667)" /><rect x="199.66666666666666" y="391.6666666666667" width="6" height="6" transform="rotate(108 202.66666666666666 394.6666666666667)" /><rect x="220.85925925925923" y="391.52592592592595" width="6.281481481481482" height="6.281481481481482" transform="rotate(112 223.99999999999997 394.6666666666667)" /><rect x="242.037037037037" y="391.3703703703704" width="6.592592592592593" height="6.592592592592593" transform="rotate(116 245.33333333333331 394.6666666666667)" /><rect x="263.20000000000005" y="391.20000000000005" width="6.933333333333334" height="6.933333333333334" transform="rotate(120 266.6666666666667 394.6666666666667)" /><rect x="284.34814814814814" y="391.0148148148148" width="7.303703703703703" height="7.303703703703703" transform="rotate(124 288 394.6666666666667)" /><rect x="305.48148148148147" y="390.81481481481484" width="7.703703703703705" height="7.703703703703705" transform="rotate(128 309.3333333333333 394.6666666666667)" /><rect x="326.6" y="390.6" width="8.133333333333333" height="8.133333333333333" transform="rotate(132 330.6666666666667 394.6666666666667)" /><rect x="347.7037037037037" y="390.3703703703704" width="8.592592592592592" height="8.592592592592592" transform="rotate(136 352 394.6666666666667)" /><rect x="368.7925925925926" y="390.12592592592597" width="9.081481481481482" height="9.081481481481482" transform="rotate(140 373.3333333333333 394.6666666666667)" /><rect x="389.8666666666667" y="389.8666666666667" width="9.6" height="9.6" transform="rotate(144 394.6666666666667 394.6666666666667)" /><rect x="410.9259259259259" y="389.5925925925926" width="10.148148148148149" height="10.148148148148149" transform="rotate(148 416 394.6666666666667)" /><rect x="431.97037037037035" y="389.3037037037037" width="10.725925925925928" height="10.725925925925928" transform="rotate(152 437.3333333333333 394.6666666666667)" /><rect x="453" y="389" width="11.333333333333334" height="11.333333333333334" transform="rotate(156 458.6666666666667 394.6666666666667)" /><rect x="474.0148148148148" y="388.6814814814815" width="11.97037037037037" height="11.97037037037037" transform="rotate(160 480 394.6666666666667)" /><rect x="495.01481481481477" y="388.34814814814814" width="12.637037037037038" height="12.637037037037038" transform="rotate(164 501.3333333333333 394.6666666666667)" /><rect x="7.992592592592592" y="413.3259259259259" width="5.348148148148147" height="5.348148148148147" transform="rotate(76 10.666666666666666 416)" /><rect x="29.31851851851852" y="413.31851851851854" width="5.362962962962963" height="5.362962962962963" transform="rotate(80 32 416)" /><rect x="50.629629629629626" y="413.2962962962963" width="5.4074074074074066" height="5.4074074074074066" transform="rotate(84 53.33333333333333 416)" /><rect x="71.92592592592592" y="413.25925925925924" width="5.481481481481481" height="5.481481481481481" transform="rotate(88 74.66666666666667 416)" /><rect x="93.2074074074074" y="413.2074074074074" width="5.585185185185185" height="5.585185185185185" transform="rotate(92 96 416)" /><rect x="114.47407407407407" y="413.14074074074074" width="5.718518518518518" height="5.718518518518518" transform="rotate(96 117.33333333333333 416)" /><rect x="135.7259259259259" y="413.05925925925925" width="5.881481481481481" height="5.881481481481481" transform="rotate(100 138.66666666666666 416)" /><rect x="156.96296296296293" y="412.962962962963" width="6.0740740740740735" height="6.0740740740740735" transform="rotate(104 159.99999999999997 416)" /><rect x="178.18518518518516" y="412.85185185185185" width="6.296296296296295" height="6.296296296296295" transform="rotate(108 181.33333333333331 416)" /><rect x="199.3925925925926" y="412.72592592592594" width="6.548148148148147" height="6.548148148148147" transform="rotate(112 202.66666666666666 416)" /><rect x="220.58518518518517" y="412.5851851851852" width="6.829629629629629" height="6.829629629629629" transform="rotate(116 223.99999999999997 416)" /><rect x="241.76296296296294" y="412.42962962962963" width="7.14074074074074" height="7.14074074074074" transform="rotate(120 245.33333333333331 416)" /><rect x="262.9259259259259" y="412.25925925925924" width="7.481481481481481" height="7.481481481481481" transform="rotate(124 266.6666666666667 416)" /><rect x="284.0740740740741" y="412.0740740740741" width="7.851851851851851" height="7.851851851851851" transform="rotate(128 288 416)" /><rect x="305.2074074074074" y="411.8740740740741" width="8.251851851851852" height="8.251851851851852" transform="rotate(132 309.3333333333333 416)" /><rect x="326.32592592592596" y="411.6592592592593" width="8.681481481481482" height="8.681481481481482" transform="rotate(136 330.6666666666667 416)" /><rect x="347.42962962962963" y="411.42962962962963" width="9.140740740740739" height="9.140740740740739" transform="rotate(140 352 416)" /><rect x="368.5185185185185" y="411.18518518518516" width="9.62962962962963" height="9.62962962962963" transform="rotate(144 373.3333333333333 416)" /><rect x="389.5925925925926" y="410.9259259259259" width="10.148148148148149" height="10.148148148148149" transform="rotate(148 394.6666666666667 416)" /><rect x="410.65185185185186" y="410.65185185185186" width="10.696296296296294" height="10.696296296296294" transform="rotate(152 416 416)" /><rect x="431.6962962962963" y="410.36296296296297" width="11.274074074074074" height="11.274074074074074" transform="rotate(156 437.3333333333333 416)" /><rect x="452.72592592592594" y="410.05925925925925" width="11.881481481481481" height="11.881481481481481" transform="rotate(160 458.6666666666667 416)" /><rect x="473.74074074074076" y="409.74074074074076" width="12.518518518518517" height="12.518518518518517" transform="rotate(164 480 416)" /><rect x="494.7407407407407" y="409.4074074074074" width="13.185185185185185" height="13.185185185185185" transform="rotate(168 501.3333333333333 416)" /><rect x="7.703703703703702" y="434.3703703703703" width="5.9259259259259265" height="5.9259259259259265" transform="rotate(80 10.666666666666666 437.3333333333333)" /><rect x="29.02962962962963" y="434.36296296296297" width="5.9407407407407415" height="5.9407407407407415" transform="rotate(84 32 437.3333333333333)" /><rect x="50.340740740740735" y="434.3407407407407" width="5.985185185185186" height="5.985185185185186" transform="rotate(88 53.33333333333333 437.3333333333333)" /><rect x="71.63703703703705" y="434.30370370370366" width="6.05925925925926" height="6.05925925925926" transform="rotate(92 74.66666666666667 437.3333333333333)" /><rect x="92.91851851851852" y="434.2518518518518" width="6.162962962962964" height="6.162962962962964" transform="rotate(96 96 437.3333333333333)" /><rect x="114.18518518518518" y="434.18518518518516" width="6.296296296296297" height="6.296296296296297" transform="rotate(100 117.33333333333333 437.3333333333333)" /><rect x="135.43703703703702" y="434.1037037037037" width="6.45925925925926" height="6.45925925925926" transform="rotate(104 138.66666666666666 437.3333333333333)" /><rect x="156.67407407407404" y="434.0074074074074" width="6.651851851851852" height="6.651851851851852" transform="rotate(108 159.99999999999997 437.3333333333333)" /><rect x="177.89629629629627" y="433.89629629629627" width="6.874074074074074" height="6.874074074074074" transform="rotate(112 181.33333333333331 437.3333333333333)" /><rect x="199.1037037037037" y="433.77037037037036" width="7.125925925925927" height="7.125925925925927" transform="rotate(116 202.66666666666666 437.3333333333333)" /><rect x="220.29629629629628" y="433.6296296296296" width="7.407407407407408" height="7.407407407407408" transform="rotate(120 223.99999999999997 437.3333333333333)" /><rect x="241.47407407407405" y="433.47407407407405" width="7.718518518518519" height="7.718518518518519" transform="rotate(124 245.33333333333331 437.3333333333333)" /><rect x="262.63703703703703" y="433.30370370370366" width="8.05925925925926" height="8.05925925925926" transform="rotate(128 266.6666666666667 437.3333333333333)" /><rect x="283.7851851851852" y="433.1185185185185" width="8.42962962962963" height="8.42962962962963" transform="rotate(132 288 437.3333333333333)" /><rect x="304.9185185185185" y="432.9185185185185" width="8.82962962962963" height="8.82962962962963" transform="rotate(136 309.3333333333333 437.3333333333333)" /><rect x="326.03703703703707" y="432.7037037037037" width="9.259259259259261" height="9.259259259259261" transform="rotate(140 330.6666666666667 437.3333333333333)" /><rect x="347.14074074074074" y="432.47407407407405" width="9.718518518518518" height="9.718518518518518" transform="rotate(144 352 437.3333333333333)" /><rect x="368.2296296296296" y="432.2296296296296" width="10.207407407407409" height="10.207407407407409" transform="rotate(148 373.3333333333333 437.3333333333333)" /><rect x="389.3037037037037" y="431.97037037037035" width="10.725925925925928" height="10.725925925925928" transform="rotate(152 394.6666666666667 437.3333333333333)" /><rect x="410.36296296296297" y="431.6962962962963" width="11.274074074074074" height="11.274074074074074" transform="rotate(156 416 437.3333333333333)" /><rect x="431.4074074074074" y="431.4074074074074" width="11.851851851851853" height="11.851851851851853" transform="rotate(160 437.3333333333333 437.3333333333333)" /><rect x="452.43703703703704" y="431.1037037037037" width="12.45925925925926" height="12.45925925925926" transform="rotate(164 458.6666666666667 437.3333333333333)" /><rect x="473.45185185185187" y="430.7851851851852" width="13.096296296296297" height="13.096296296296297" transform="rotate(168 480 437.3333333333333)" /><rect x="494.4518518518518" y="430.4518518518518" width="13.762962962962964" height="13.762962962962964" transform="rotate(172 501.3333333333333 437.3333333333333)" /><rect x="7.3999999999999995" y="455.40000000000003" width="6.533333333333333" height="6.533333333333333" transform="rotate(84 10.666666666666666 458.6666666666667)" /><rect x="28.725925925925925" y="455.3925925925926" width="6.548148148148148" height="6.548148148148148" transform="rotate(88 32 458.6666666666667)" /><rect x="50.03703703703703" y="455.3703703703704" width="6.592592592592593" height="6.592592592592593" transform="rotate(92 53.33333333333333 458.6666666666667)" /><rect x="71.33333333333334" y="455.33333333333337" width="6.666666666666667" height="6.666666666666667" transform="rotate(96 74.66666666666667 458.6666666666667)" /><rect x="92.61481481481482" y="455.2814814814815" width="6.770370370370371" height="6.770370370370371" transform="rotate(100 96 458.6666666666667)" /><rect x="113.88148148148147" y="455.2148148148148" width="6.9037037037037035" height="6.9037037037037035" transform="rotate(104 117.33333333333333 458.6666666666667)" /><rect x="135.13333333333333" y="455.1333333333333" width="7.066666666666666" height="7.066666666666666" transform="rotate(108 138.66666666666666 458.6666666666667)" /><rect x="156.37037037037035" y="455.03703703703707" width="7.259259259259259" height="7.259259259259259" transform="rotate(112 159.99999999999997 458.6666666666667)" /><rect x="177.59259259259258" y="454.9259259259259" width="7.481481481481482" height="7.481481481481482" transform="rotate(116 181.33333333333331 458.6666666666667)" /><rect x="198.79999999999998" y="454.8" width="7.733333333333333" height="7.733333333333333" transform="rotate(120 202.66666666666666 458.6666666666667)" /><rect x="219.99259259259256" y="454.6592592592593" width="8.014814814814816" height="8.014814814814816" transform="rotate(124 223.99999999999997 458.6666666666667)" /><rect x="241.17037037037036" y="454.5037037037037" width="8.325925925925926" height="8.325925925925926" transform="rotate(128 245.33333333333331 458.6666666666667)" /><rect x="262.33333333333337" y="454.33333333333337" width="8.666666666666666" height="8.666666666666666" transform="rotate(132 266.6666666666667 458.6666666666667)" /><rect x="283.48148148148147" y="454.14814814814815" width="9.037037037037036" height="9.037037037037036" transform="rotate(136 288 458.6666666666667)" /><rect x="304.6148148148148" y="453.94814814814816" width="9.437037037037038" height="9.437037037037038" transform="rotate(140 309.3333333333333 458.6666666666667)" /><rect x="325.73333333333335" y="453.73333333333335" width="9.866666666666667" height="9.866666666666667" transform="rotate(144 330.6666666666667 458.6666666666667)" /><rect x="346.837037037037" y="453.5037037037037" width="10.325925925925926" height="10.325925925925926" transform="rotate(148 352 458.6666666666667)" /><rect x="367.9259259259259" y="453.2592592592593" width="10.814814814814815" height="10.814814814814815" transform="rotate(152 373.3333333333333 458.6666666666667)" /><rect x="389" y="453" width="11.333333333333334" height="11.333333333333334" transform="rotate(156 394.6666666666667 458.6666666666667)" /><rect x="410.05925925925925" y="452.72592592592594" width="11.881481481481481" height="11.881481481481481" transform="rotate(160 416 458.6666666666667)" /><rect x="431.1037037037037" y="452.43703703703704" width="12.45925925925926" height="12.45925925925926" transform="rotate(164 437.3333333333333 458.6666666666667)" /><rect x="452.1333333333333" y="452.1333333333333" width="13.066666666666666" height="13.066666666666666" transform="rotate(168 458.6666666666667 458.6666666666667)" /><rect x="473.14814814814815" y="451.81481481481484" width="13.703703703703702" height="13.703703703703702" transform="rotate(172 480 458.6666666666667)" /><rect x="494.14814814814815" y="451.4814814814815" width="14.370370370370372" height="14.370370370370372" transform="rotate(176 501.3333333333333 458.6666666666667)" /><rect x="7.0814814814814815" y="476.4148148148148" width="7.170370370370369" height="7.170370370370369" transform="rotate(88 10.666666666666666 480)" /><rect x="28.40740740740741" y="476.4074074074074" width="7.185185185185184" height="7.185185185185184" transform="rotate(92 32 480)" /><rect x="49.718518518518515" y="476.3851851851852" width="7.2296296296296285" height="7.2296296296296285" transform="rotate(96 53.33333333333333 480)" /><rect x="71.01481481481483" y="476.34814814814814" width="7.303703703703703" height="7.303703703703703" transform="rotate(100 74.66666666666667 480)" /><rect x="92.29629629629629" y="476.2962962962963" width="7.4074074074074066" height="7.4074074074074066" transform="rotate(104 96 480)" /><rect x="113.56296296296296" y="476.22962962962964" width="7.54074074074074" height="7.54074074074074" transform="rotate(108 117.33333333333333 480)" /><rect x="134.8148148148148" y="476.14814814814815" width="7.703703703703702" height="7.703703703703702" transform="rotate(112 138.66666666666666 480)" /><rect x="156.05185185185184" y="476.05185185185184" width="7.8962962962962955" height="7.8962962962962955" transform="rotate(116 159.99999999999997 480)" /><rect x="177.27407407407406" y="475.94074074074075" width="8.118518518518519" height="8.118518518518519" transform="rotate(120 181.33333333333331 480)" /><rect x="198.48148148148147" y="475.81481481481484" width="8.37037037037037" height="8.37037037037037" transform="rotate(124 202.66666666666666 480)" /><rect x="219.67407407407404" y="475.6740740740741" width="8.651851851851852" height="8.651851851851852" transform="rotate(128 223.99999999999997 480)" /><rect x="240.85185185185185" y="475.51851851851853" width="8.962962962962962" height="8.962962962962962" transform="rotate(132 245.33333333333331 480)" /><rect x="262.0148148148148" y="475.34814814814814" width="9.303703703703702" height="9.303703703703702" transform="rotate(136 266.6666666666667 480)" /><rect x="283.162962962963" y="475.162962962963" width="9.674074074074072" height="9.674074074074072" transform="rotate(140 288 480)" /><rect x="304.2962962962963" y="474.962962962963" width="10.074074074074074" height="10.074074074074074" transform="rotate(144 309.3333333333333 480)" /><rect x="325.41481481481486" y="474.7481481481482" width="10.503703703703703" height="10.503703703703703" transform="rotate(148 330.6666666666667 480)" /><rect x="346.51851851851853" y="474.51851851851853" width="10.962962962962962" height="10.962962962962962" transform="rotate(152 352 480)" /><rect x="367.6074074074074" y="474.27407407407406" width="11.45185185185185" height="11.45185185185185" transform="rotate(156 373.3333333333333 480)" /><rect x="388.6814814814815" y="474.0148148148148" width="11.97037037037037" height="11.97037037037037" transform="rotate(160 394.6666666666667 480)" /><rect x="409.74074074074076" y="473.74074074074076" width="12.518518518518517" height="12.518518518518517" transform="rotate(164 416 480)" /><rect x="430.7851851851852" y="473.45185185185187" width="13.096296296296297" height="13.096296296296297" transform="rotate(168 437.3333333333333 480)" /><rect x="451.81481481481484" y="473.14814814814815" width="13.703703703703702" height="13.703703703703702" transform="rotate(172 458.6666666666667 480)" /><rect x="472.8296296296296" y="472.8296296296296" width="14.340740740740738" height="14.340740740740738" transform="rotate(176 480 480)" /><rect x="493.8296296296296" y="472.4962962962963" width="15.007407407407408" height="15.007407407407408" transform="rotate(180 501.3333333333333 480)" /><rect x="6.748148148148147" y="497.4148148148148" width="7.837037037037038" height="7.837037037037038" transform="rotate(92 10.666666666666666 501.3333333333333)" /><rect x="28.074074074074073" y="497.4074074074074" width="7.851851851851853" height="7.851851851851853" transform="rotate(96 32 501.3333333333333)" /><rect x="49.38518518518518" y="497.38518518518515" width="7.896296296296297" height="7.896296296296297" transform="rotate(100 53.33333333333333 501.3333333333333)" /><rect x="70.68148148148148" y="497.34814814814814" width="7.970370370370372" height="7.970370370370372" transform="rotate(104 74.66666666666667 501.3333333333333)" /><rect x="91.96296296296296" y="497.2962962962963" width="8.074074074074074" height="8.074074074074074" transform="rotate(108 96 501.3333333333333)" /><rect x="113.22962962962963" y="497.2296296296296" width="8.207407407407409" height="8.207407407407409" transform="rotate(112 117.33333333333333 501.3333333333333)" /><rect x="134.48148148148147" y="497.14814814814815" width="8.370370370370372" height="8.370370370370372" transform="rotate(116 138.66666666666666 501.3333333333333)" /><rect x="155.7185185185185" y="497.05185185185184" width="8.562962962962963" height="8.562962962962963" transform="rotate(120 159.99999999999997 501.3333333333333)" /><rect x="176.94074074074072" y="496.9407407407407" width="8.785185185185187" height="8.785185185185187" transform="rotate(124 181.33333333333331 501.3333333333333)" /><rect x="198.14814814814815" y="496.8148148148148" width="9.037037037037038" height="9.037037037037038" transform="rotate(128 202.66666666666666 501.3333333333333)" /><rect x="219.3407407407407" y="496.67407407407404" width="9.31851851851852" height="9.31851851851852" transform="rotate(132 223.99999999999997 501.3333333333333)" /><rect x="240.5185185185185" y="496.5185185185185" width="9.62962962962963" height="9.62962962962963" transform="rotate(136 245.33333333333331 501.3333333333333)" /><rect x="261.6814814814815" y="496.34814814814814" width="9.970370370370372" height="9.970370370370372" transform="rotate(140 266.6666666666667 501.3333333333333)" /><rect x="282.8296296296296" y="496.1629629629629" width="10.34074074074074" height="10.34074074074074" transform="rotate(144 288 501.3333333333333)" /><rect x="303.96296296296293" y="495.96296296296293" width="10.740740740740742" height="10.740740740740742" transform="rotate(148 309.3333333333333 501.3333333333333)" /><rect x="325.0814814814815" y="495.7481481481481" width="11.170370370370371" height="11.170370370370371" transform="rotate(152 330.6666666666667 501.3333333333333)" /><rect x="346.18518518518516" y="495.5185185185185" width="11.62962962962963" height="11.62962962962963" transform="rotate(156 352 501.3333333333333)" /><rect x="367.27407407407406" y="495.27407407407406" width="12.11851851851852" height="12.11851851851852" transform="rotate(160 373.3333333333333 501.3333333333333)" /><rect x="388.34814814814814" y="495.01481481481477" width="12.637037037037038" height="12.637037037037038" transform="rotate(164 394.6666666666667 501.3333333333333)" /><rect x="409.4074074074074" y="494.7407407407407" width="13.185185185185185" height="13.185185185185185" transform="rotate(168 416 501.3333333333333)" /><rect x="430.4518518518518" y="494.4518518518518" width="13.762962962962964" height="13.762962962962964" transform="rotate(172 437.3333333333333 501.3333333333333)" /><rect x="451.4814814814815" y="494.14814814814815" width="14.370370370370372" height="14.370370370370372" transform="rotate(176 458.6666666666667 501.3333333333333)" /><rect x="472.4962962962963" y="493.8296296296296" width="15.007407407407408" height="15.007407407407408" transform="rotate(180 480 501.3333333333333)" /><rect x="493.4962962962963" y="493.4962962962963" width="15.674074074074076" height="15.674074074074076" transform="rotate(184 501.3333333333333 501.3333333333333)" />
</svg>
