<?xml version="1.0" encoding="UTF-8"?>
<svg xmlns="http://www.w3.org/2000/svg" id="RSSicon" viewBox="-50 -70 600 700" width="512" height="512">
  <defs>
    <style type="text/css">
      svg {
        background: black;
        margin: 0;
      }
      
      rect {stroke: darkorange; fill: none;}
    </style>
  </defs>
  <rect x="10.666666666666666" y="10.666666666666666" width="0" height="0" transform="rotate(0 10.666666666666666 10.666666666666666)" /><rect x="28.99074074074074" y="13.657407407407407" width="0.018518518518518517" height="0.018518518518518517" transform="rotate(4 32 10.666666666666666)" /><rect x="47.29629629629629" y="16.62962962962963" width="0.07407407407407407" height="0.07407407407407407" transform="rotate(8 53.33333333333333 10.666666666666666)" /><rect x="65.58333333333334" y="19.583333333333332" width="0.16666666666666666" height="0.16666666666666666" transform="rotate(12 74.66666666666667 10.666666666666666)" /><rect x="83.85185185185185" y="22.51851851851852" width="0.2962962962962963" height="0.2962962962962963" transform="rotate(16 96 10.666666666666666)" /><rect x="102.10185185185185" y="25.435185185185183" width="0.462962962962963" height="0.462962962962963" transform="rotate(20 117.33333333333333 10.666666666666666)" /><rect x="120.33333333333331" y="28.333333333333332" width="0.6666666666666666" height="0.6666666666666666" transform="rotate(24 138.66666666666666 10.666666666666666)" /><rect x="138.54629629629628" y="31.212962962962962" width="0.9074074074074076" height="0.9074074074074076" transform="rotate(28 159.99999999999997 10.666666666666666)" /><rect x="156.74074074074073" y="34.074074074074076" width="1.1851851851851851" height="1.1851851851851851" transform="rotate(32 181.33333333333331 10.666666666666666)" /><rect x="174.91666666666666" y="36.916666666666664" width="1.5" height="1.5" transform="rotate(36 202.66666666666666 10.666666666666666)" /><rect x="193.07407407407405" y="39.74074074074074" width="1.851851851851852" height="1.851851851851852" transform="rotate(40 223.99999999999997 10.666666666666666)" /><rect x="211.21296296296293" y="42.5462962962963" width="2.2407407407407405" height="2.2407407407407405" transform="rotate(44 245.33333333333331 10.666666666666666)" /><rect x="229.33333333333337" y="45.33333333333333" width="2.6666666666666665" height="2.6666666666666665" transform="rotate(48 266.6666666666667 10.666666666666666)" /><rect x="247.43518518518516" y="48.10185185185185" width="3.129629629629629" height="3.129629629629629" transform="rotate(52 288 10.666666666666666)" /><rect x="265.5185185185185" y="50.85185185185185" width="3.62962962962963" height="3.62962962962963" transform="rotate(56 309.3333333333333 10.666666666666666)" /><rect x="283.58333333333337" y="53.58333333333333" width="4.166666666666666" height="4.166666666666666" transform="rotate(60 330.6666666666667 10.666666666666666)" /><rect x="301.6296296296296" y="56.2962962962963" width="4.7407407407407405" height="4.7407407407407405" transform="rotate(64 352 10.666666666666666)" /><rect x="319.6574074074074" y="58.99074074074074" width="5.351851851851852" height="5.351851851851852" transform="rotate(68 373.3333333333333 10.666666666666666)" /><rect x="337.6666666666667" y="61.666666666666664" width="6" height="6" transform="rotate(72 394.6666666666667 10.666666666666666)" /><rect x="355.6574074074074" y="64.32407407407408" width="6.685185185185184" height="6.685185185185184" transform="rotate(76 416 10.666666666666666)" /><rect x="373.6296296296296" y="66.96296296296296" width="7.407407407407408" height="7.407407407407408" transform="rotate(80 437.3333333333333 10.666666666666666)" /><rect x="391.58333333333337" y="69.58333333333333" width="8.166666666666666" height="8.166666666666666" transform="rotate(84 458.6666666666667 10.666666666666666)" /><rect x="409.51851851851853" y="72.18518518518519" width="8.962962962962962" height="8.962962962962962" transform="rotate(88 480 10.666666666666666)" /><rect x="427.43518518518516" y="74.76851851851852" width="9.796296296296298" height="9.796296296296298" transform="rotate(92 501.3333333333333 10.666666666666666)" /><rect x="13.657407407407407" y="28.99074074074074" width="0.018518518518518517" height="0.018518518518518517" transform="rotate(4 10.666666666666666 32)" /><rect x="31.98148148148148" y="31.98148148148148" width="0.037037037037037035" height="0.037037037037037035" transform="rotate(8 32 32)" /><rect x="50.28703703703703" y="34.9537037037037" width="0.09259259259259259" height="0.09259259259259259" transform="rotate(12 53.33333333333333 32)" /><rect x="68.57407407407408" y="37.907407407407405" width="0.18518518518518517" height="0.18518518518518517" transform="rotate(16 74.66666666666667 32)" /><rect x="86.8425925925926" y="40.842592592592595" width="0.31481481481481477" height="0.31481481481481477" transform="rotate(20 96 32)" /><rect x="105.09259259259258" y="43.75925925925926" width="0.4814814814814815" height="0.4814814814814815" transform="rotate(24 117.33333333333333 32)" /><rect x="123.32407407407408" y="46.657407407407405" width="0.6851851851851851" height="0.6851851851851851" transform="rotate(28 138.66666666666666 32)" /><rect x="141.537037037037" y="49.53703703703704" width="0.925925925925926" height="0.925925925925926" transform="rotate(32 159.99999999999997 32)" /><rect x="159.73148148148147" y="52.39814814814815" width="1.2037037037037035" height="1.2037037037037035" transform="rotate(36 181.33333333333331 32)" /><rect x="177.9074074074074" y="55.24074074074074" width="1.5185185185185184" height="1.5185185185185184" transform="rotate(40 202.66666666666666 32)" /><rect x="196.06481481481478" y="58.06481481481481" width="1.8703703703703705" height="1.8703703703703705" transform="rotate(44 223.99999999999997 32)" /><rect x="214.2037037037037" y="60.87037037037037" width="2.2592592592592586" height="2.2592592592592586" transform="rotate(48 245.33333333333331 32)" /><rect x="232.32407407407408" y="63.657407407407405" width="2.685185185185185" height="2.685185185185185" transform="rotate(52 266.6666666666667 32)" /><rect x="250.42592592592592" y="66.42592592592592" width="3.1481481481481475" height="3.1481481481481475" transform="rotate(56 288 32)" /><rect x="268.50925925925924" y="69.17592592592592" width="3.648148148148149" height="3.648148148148149" transform="rotate(60 309.3333333333333 32)" /><rect x="286.5740740740741" y="71.9074074074074" width="4.185185185185185" height="4.185185185185185" transform="rotate(64 330.6666666666667 32)" /><rect x="304.6203703703704" y="74.62037037037037" width="4.759259259259259" height="4.759259259259259" transform="rotate(68 352 32)" /><rect x="322.64814814814815" y="77.31481481481481" width="5.370370370370371" height="5.370370370370371" transform="rotate(72 373.3333333333333 32)" /><rect x="340.65740740740745" y="79.99074074074073" width="6.018518518518519" height="6.018518518518519" transform="rotate(76 394.6666666666667 32)" /><rect x="358.64814814814815" y="82.64814814814815" width="6.703703703703703" height="6.703703703703703" transform="rotate(80 416 32)" /><rect x="376.6203703703703" y="85.28703703703704" width="7.425925925925927" height="7.425925925925927" transform="rotate(84 437.3333333333333 32)" /><rect x="394.5740740740741" y="87.9074074074074" width="8.185185185185185" height="8.185185185185185" transform="rotate(88 458.6666666666667 32)" /><rect x="412.50925925925924" y="90.50925925925927" width="8.981481481481481" height="8.981481481481481" transform="rotate(92 480 32)" /><rect x="430.4259259259259" y="93.0925925925926" width="9.814814814814817" height="9.814814814814817" transform="rotate(96 501.3333333333333 32)" /><rect x="16.62962962962963" y="47.29629629629629" width="0.07407407407407407" height="0.07407407407407407" transform="rotate(8 10.666666666666666 53.33333333333333)" /><rect x="34.9537037037037" y="50.28703703703703" width="0.09259259259259259" height="0.09259259259259259" transform="rotate(12 32 53.33333333333333)" /><rect x="53.25925925925925" y="53.25925925925925" width="0.14814814814814814" height="0.14814814814814814" transform="rotate(16 53.33333333333333 53.33333333333333)" /><rect x="71.5462962962963" y="56.212962962962955" width="0.24074074074074073" height="0.24074074074074073" transform="rotate(20 74.66666666666667 53.33333333333333)" /><rect x="89.81481481481481" y="59.14814814814815" width="0.37037037037037035" height="0.37037037037037035" transform="rotate(24 96 53.33333333333333)" /><rect x="108.06481481481481" y="62.06481481481481" width="0.537037037037037" height="0.537037037037037" transform="rotate(28 117.33333333333333 53.33333333333333)" /><rect x="126.29629629629628" y="64.96296296296296" width="0.7407407407407407" height="0.7407407407407407" transform="rotate(32 138.66666666666666 53.33333333333333)" /><rect x="144.50925925925924" y="67.84259259259258" width="0.9814814814814816" height="0.9814814814814816" transform="rotate(36 159.99999999999997 53.33333333333333)" /><rect x="162.7037037037037" y="70.7037037037037" width="1.259259259259259" height="1.259259259259259" transform="rotate(40 181.33333333333331 53.33333333333333)" /><rect x="180.87962962962962" y="73.54629629629629" width="1.574074074074074" height="1.574074074074074" transform="rotate(44 202.66666666666666 53.33333333333333)" /><rect x="199.037037037037" y="76.37037037037037" width="1.925925925925926" height="1.925925925925926" transform="rotate(48 223.99999999999997 53.33333333333333)" /><rect x="217.1759259259259" y="79.17592592592592" width="2.3148148148148144" height="2.3148148148148144" transform="rotate(52 245.33333333333331 53.33333333333333)" /><rect x="235.2962962962963" y="81.96296296296296" width="2.7407407407407405" height="2.7407407407407405" transform="rotate(56 266.6666666666667 53.33333333333333)" /><rect x="253.39814814814815" y="84.73148148148147" width="3.203703703703703" height="3.203703703703703" transform="rotate(60 288 53.33333333333333)" /><rect x="271.48148148148147" y="87.48148148148147" width="3.703703703703704" height="3.703703703703704" transform="rotate(64 309.3333333333333 53.33333333333333)" /><rect x="289.5462962962963" y="90.21296296296296" width="4.2407407407407405" height="4.2407407407407405" transform="rotate(68 330.6666666666667 53.33333333333333)" /><rect x="307.5925925925926" y="92.92592592592592" width="4.814814814814814" height="4.814814814814814" transform="rotate(72 352 53.33333333333333)" /><rect x="325.6203703703703" y="95.62037037037037" width="5.425925925925926" height="5.425925925925926" transform="rotate(76 373.3333333333333 53.33333333333333)" /><rect x="343.6296296296297" y="98.29629629629629" width="6.0740740740740735" height="6.0740740740740735" transform="rotate(80 394.6666666666667 53.33333333333333)" /><rect x="361.6203703703704" y="100.9537037037037" width="6.759259259259258" height="6.759259259259258" transform="rotate(84 416 53.33333333333333)" /><rect x="379.59259259259255" y="103.59259259259258" width="7.481481481481482" height="7.481481481481482" transform="rotate(88 437.3333333333333 53.33333333333333)" /><rect x="397.5462962962963" y="106.21296296296296" width="8.24074074074074" height="8.24074074074074" transform="rotate(92 458.6666666666667 53.33333333333333)" /><rect x="415.48148148148147" y="108.81481481481481" width="9.037037037037035" height="9.037037037037035" transform="rotate(96 480 53.33333333333333)" /><rect x="433.39814814814815" y="111.39814814814815" width="9.87037037037037" height="9.87037037037037" transform="rotate(100 501.3333333333333 53.33333333333333)" /><rect x="19.583333333333332" y="65.58333333333334" width="0.16666666666666666" height="0.16666666666666666" transform="rotate(12 10.666666666666666 74.66666666666667)" /><rect x="37.907407407407405" y="68.57407407407408" width="0.18518518518518517" height="0.18518518518518517" transform="rotate(16 32 74.66666666666667)" /><rect x="56.212962962962955" y="71.5462962962963" width="0.24074074074074073" height="0.24074074074074073" transform="rotate(20 53.33333333333333 74.66666666666667)" /><rect x="74.5" y="74.5" width="0.3333333333333333" height="0.3333333333333333" transform="rotate(24 74.66666666666667 74.66666666666667)" /><rect x="92.76851851851852" y="77.43518518518519" width="0.4629629629629629" height="0.4629629629629629" transform="rotate(28 96 74.66666666666667)" /><rect x="111.01851851851852" y="80.35185185185186" width="0.6296296296296297" height="0.6296296296296297" transform="rotate(32 117.33333333333333 74.66666666666667)" /><rect x="129.25" y="83.25" width="0.8333333333333333" height="0.8333333333333333" transform="rotate(36 138.66666666666666 74.66666666666667)" /><rect x="147.46296296296293" y="86.12962962962963" width="1.0740740740740742" height="1.0740740740740742" transform="rotate(40 159.99999999999997 74.66666666666667)" /><rect x="165.6574074074074" y="88.99074074074075" width="1.3518518518518516" height="1.3518518518518516" transform="rotate(44 181.33333333333331 74.66666666666667)" /><rect x="183.83333333333331" y="91.83333333333334" width="1.6666666666666665" height="1.6666666666666665" transform="rotate(48 202.66666666666666 74.66666666666667)" /><rect x="201.9907407407407" y="94.65740740740742" width="2.0185185185185186" height="2.0185185185185186" transform="rotate(52 223.99999999999997 74.66666666666667)" /><rect x="220.12962962962962" y="97.46296296296296" width="2.407407407407407" height="2.407407407407407" transform="rotate(56 245.33333333333331 74.66666666666667)" /><rect x="238.25" y="100.25" width="2.833333333333333" height="2.833333333333333" transform="rotate(60 266.6666666666667 74.66666666666667)" /><rect x="256.35185185185185" y="103.01851851851852" width="3.296296296296296" height="3.296296296296296" transform="rotate(64 288 74.66666666666667)" /><rect x="274.43518518518516" y="105.76851851851852" width="3.7962962962962967" height="3.7962962962962967" transform="rotate(68 309.3333333333333 74.66666666666667)" /><rect x="292.5" y="108.5" width="4.333333333333333" height="4.333333333333333" transform="rotate(72 330.6666666666667 74.66666666666667)" /><rect x="310.5462962962963" y="111.21296296296296" width="4.9074074074074066" height="4.9074074074074066" transform="rotate(76 352 74.66666666666667)" /><rect x="328.5740740740741" y="113.90740740740742" width="5.518518518518519" height="5.518518518518519" transform="rotate(80 373.3333333333333 74.66666666666667)" /><rect x="346.58333333333337" y="116.58333333333334" width="6.166666666666666" height="6.166666666666666" transform="rotate(84 394.6666666666667 74.66666666666667)" /><rect x="364.5740740740741" y="119.24074074074076" width="6.851851851851851" height="6.851851851851851" transform="rotate(88 416 74.66666666666667)" /><rect x="382.5462962962963" y="121.87962962962962" width="7.574074074074074" height="7.574074074074074" transform="rotate(92 437.3333333333333 74.66666666666667)" /><rect x="400.5" y="124.5" width="8.333333333333332" height="8.333333333333332" transform="rotate(96 458.6666666666667 74.66666666666667)" /><rect x="418.43518518518516" y="127.10185185185185" width="9.129629629629628" height="9.129629629629628" transform="rotate(100 480 74.66666666666667)" /><rect x="436.35185185185185" y="129.6851851851852" width="9.962962962962964" height="9.962962962962964" transform="rotate(104 501.3333333333333 74.66666666666667)" /><rect x="22.51851851851852" y="83.85185185185185" width="0.2962962962962963" height="0.2962962962962963" transform="rotate(16 10.666666666666666 96)" /><rect x="40.842592592592595" y="86.8425925925926" width="0.31481481481481477" height="0.31481481481481477" transform="rotate(20 32 96)" /><rect x="59.14814814814815" y="89.81481481481481" width="0.37037037037037035" height="0.37037037037037035" transform="rotate(24 53.33333333333333 96)" /><rect x="77.43518518518519" y="92.76851851851852" width="0.4629629629629629" height="0.4629629629629629" transform="rotate(28 74.66666666666667 96)" /><rect x="95.70370370370371" y="95.70370370370371" width="0.5925925925925926" height="0.5925925925925926" transform="rotate(32 96 96)" /><rect x="113.9537037037037" y="98.62037037037037" width="0.7592592592592592" height="0.7592592592592592" transform="rotate(36 117.33333333333333 96)" /><rect x="132.18518518518516" y="101.51851851851852" width="0.9629629629629629" height="0.9629629629629629" transform="rotate(40 138.66666666666666 96)" /><rect x="150.39814814814812" y="104.39814814814815" width="1.2037037037037037" height="1.2037037037037037" transform="rotate(44 159.99999999999997 96)" /><rect x="168.59259259259258" y="107.25925925925925" width="1.4814814814814814" height="1.4814814814814814" transform="rotate(48 181.33333333333331 96)" /><rect x="186.7685185185185" y="110.10185185185185" width="1.7962962962962963" height="1.7962962962962963" transform="rotate(52 202.66666666666666 96)" /><rect x="204.9259259259259" y="112.92592592592592" width="2.148148148148148" height="2.148148148148148" transform="rotate(56 223.99999999999997 96)" /><rect x="223.06481481481478" y="115.73148148148148" width="2.5370370370370368" height="2.5370370370370368" transform="rotate(60 245.33333333333331 96)" /><rect x="241.18518518518522" y="118.51851851851853" width="2.962962962962963" height="2.962962962962963" transform="rotate(64 266.6666666666667 96)" /><rect x="259.287037037037" y="121.28703703703704" width="3.4259259259259256" height="3.4259259259259256" transform="rotate(68 288 96)" /><rect x="277.3703703703703" y="124.03703703703704" width="3.9259259259259265" height="3.9259259259259265" transform="rotate(72 309.3333333333333 96)" /><rect x="295.4351851851852" y="126.76851851851853" width="4.462962962962963" height="4.462962962962963" transform="rotate(76 330.6666666666667 96)" /><rect x="313.48148148148147" y="129.48148148148147" width="5.037037037037036" height="5.037037037037036" transform="rotate(80 352 96)" /><rect x="331.50925925925924" y="132.17592592592592" width="5.648148148148149" height="5.648148148148149" transform="rotate(84 373.3333333333333 96)" /><rect x="349.51851851851853" y="134.85185185185185" width="6.296296296296296" height="6.296296296296296" transform="rotate(88 394.6666666666667 96)" /><rect x="367.50925925925924" y="137.50925925925927" width="6.981481481481481" height="6.981481481481481" transform="rotate(92 416 96)" /><rect x="385.48148148148147" y="140.14814814814815" width="7.703703703703704" height="7.703703703703704" transform="rotate(96 437.3333333333333 96)" /><rect x="403.4351851851852" y="142.76851851851853" width="8.462962962962962" height="8.462962962962962" transform="rotate(100 458.6666666666667 96)" /><rect x="421.3703703703704" y="145.37037037037038" width="9.259259259259258" height="9.259259259259258" transform="rotate(104 480 96)" /><rect x="439.287037037037" y="147.9537037037037" width="10.092592592592593" height="10.092592592592593" transform="rotate(108 501.3333333333333 96)" /><rect x="25.435185185185183" y="102.10185185185185" width="0.462962962962963" height="0.462962962962963" transform="rotate(20 10.666666666666666 117.33333333333333)" /><rect x="43.75925925925926" y="105.09259259259258" width="0.4814814814814815" height="0.4814814814814815" transform="rotate(24 32 117.33333333333333)" /><rect x="62.06481481481481" y="108.06481481481481" width="0.537037037037037" height="0.537037037037037" transform="rotate(28 53.33333333333333 117.33333333333333)" /><rect x="80.35185185185186" y="111.01851851851852" width="0.6296296296296297" height="0.6296296296296297" transform="rotate(32 74.66666666666667 117.33333333333333)" /><rect x="98.62037037037037" y="113.9537037037037" width="0.7592592592592592" height="0.7592592592592592" transform="rotate(36 96 117.33333333333333)" /><rect x="116.87037037037038" y="116.87037037037038" width="0.925925925925926" height="0.925925925925926" transform="rotate(40 117.33333333333333 117.33333333333333)" /><rect x="135.10185185185185" y="119.76851851851853" width="1.1296296296296298" height="1.1296296296296298" transform="rotate(44 138.66666666666666 117.33333333333333)" /><rect x="153.31481481481478" y="122.64814814814815" width="1.3703703703703705" height="1.3703703703703705" transform="rotate(48 159.99999999999997 117.33333333333333)" /><rect x="171.50925925925924" y="125.50925925925924" width="1.6481481481481481" height="1.6481481481481481" transform="rotate(52 181.33333333333331 117.33333333333333)" /><rect x="189.68518518518516" y="128.35185185185185" width="1.962962962962963" height="1.962962962962963" transform="rotate(56 202.66666666666666 117.33333333333333)" /><rect x="207.84259259259255" y="131.17592592592592" width="2.314814814814815" height="2.314814814814815" transform="rotate(60 223.99999999999997 117.33333333333333)" /><rect x="225.98148148148147" y="133.98148148148147" width="2.7037037037037033" height="2.7037037037037033" transform="rotate(64 245.33333333333331 117.33333333333333)" /><rect x="244.10185185185185" y="136.76851851851853" width="3.1296296296296298" height="3.1296296296296298" transform="rotate(68 266.6666666666667 117.33333333333333)" /><rect x="262.2037037037037" y="139.53703703703704" width="3.592592592592592" height="3.592592592592592" transform="rotate(72 288 117.33333333333333)" /><rect x="280.287037037037" y="142.28703703703704" width="4.0925925925925934" height="4.0925925925925934" transform="rotate(76 309.3333333333333 117.33333333333333)" /><rect x="298.35185185185185" y="145.01851851851853" width="4.62962962962963" height="4.62962962962963" transform="rotate(80 330.6666666666667 117.33333333333333)" /><rect x="316.39814814814815" y="147.73148148148147" width="5.203703703703703" height="5.203703703703703" transform="rotate(84 352 117.33333333333333)" /><rect x="334.4259259259259" y="150.42592592592592" width="5.814814814814815" height="5.814814814814815" transform="rotate(88 373.3333333333333 117.33333333333333)" /><rect x="352.4351851851852" y="153.10185185185185" width="6.462962962962963" height="6.462962962962963" transform="rotate(92 394.6666666666667 117.33333333333333)" /><rect x="370.4259259259259" y="155.75925925925924" width="7.148148148148147" height="7.148148148148147" transform="rotate(96 416 117.33333333333333)" /><rect x="388.39814814814815" y="158.39814814814815" width="7.870370370370371" height="7.870370370370371" transform="rotate(100 437.3333333333333 117.33333333333333)" /><rect x="406.35185185185185" y="161.01851851851853" width="8.62962962962963" height="8.62962962962963" transform="rotate(104 458.6666666666667 117.33333333333333)" /><rect x="424.28703703703707" y="163.62037037037038" width="9.425925925925924" height="9.425925925925924" transform="rotate(108 480 117.33333333333333)" /><rect x="442.2037037037037" y="166.2037037037037" width="10.25925925925926" height="10.25925925925926" transform="rotate(112 501.3333333333333 117.33333333333333)" /><rect x="28.333333333333332" y="120.33333333333331" width="0.6666666666666666" height="0.6666666666666666" transform="rotate(24 10.666666666666666 138.66666666666666)" /><rect x="46.657407407407405" y="123.32407407407408" width="0.6851851851851851" height="0.6851851851851851" transform="rotate(28 32 138.66666666666666)" /><rect x="64.96296296296296" y="126.29629629629628" width="0.7407407407407407" height="0.7407407407407407" transform="rotate(32 53.33333333333333 138.66666666666666)" /><rect x="83.25" y="129.25" width="0.8333333333333333" height="0.8333333333333333" transform="rotate(36 74.66666666666667 138.66666666666666)" /><rect x="101.51851851851852" y="132.18518518518516" width="0.9629629629629629" height="0.9629629629629629" transform="rotate(40 96 138.66666666666666)" /><rect x="119.76851851851853" y="135.10185185185185" width="1.1296296296296298" height="1.1296296296296298" transform="rotate(44 117.33333333333333 138.66666666666666)" /><rect x="138" y="138" width="1.3333333333333333" height="1.3333333333333333" transform="rotate(48 138.66666666666666 138.66666666666666)" /><rect x="156.21296296296293" y="140.87962962962962" width="1.5740740740740744" height="1.5740740740740744" transform="rotate(52 159.99999999999997 138.66666666666666)" /><rect x="174.4074074074074" y="143.74074074074073" width="1.8518518518518516" height="1.8518518518518516" transform="rotate(56 181.33333333333331 138.66666666666666)" /><rect x="192.58333333333331" y="146.58333333333331" width="2.1666666666666665" height="2.1666666666666665" transform="rotate(60 202.66666666666666 138.66666666666666)" /><rect x="210.7407407407407" y="149.4074074074074" width="2.5185185185185186" height="2.5185185185185186" transform="rotate(64 223.99999999999997 138.66666666666666)" /><rect x="228.87962962962962" y="152.21296296296296" width="2.907407407407407" height="2.907407407407407" transform="rotate(68 245.33333333333331 138.66666666666666)" /><rect x="247" y="155" width="3.333333333333333" height="3.333333333333333" transform="rotate(72 266.6666666666667 138.66666666666666)" /><rect x="265.10185185185185" y="157.7685185185185" width="3.796296296296296" height="3.796296296296296" transform="rotate(76 288 138.66666666666666)" /><rect x="283.18518518518516" y="160.5185185185185" width="4.296296296296297" height="4.296296296296297" transform="rotate(80 309.3333333333333 138.66666666666666)" /><rect x="301.25" y="163.25" width="4.833333333333333" height="4.833333333333333" transform="rotate(84 330.6666666666667 138.66666666666666)" /><rect x="319.2962962962963" y="165.96296296296296" width="5.4074074074074066" height="5.4074074074074066" transform="rotate(88 352 138.66666666666666)" /><rect x="337.3240740740741" y="168.6574074074074" width="6.018518518518519" height="6.018518518518519" transform="rotate(92 373.3333333333333 138.66666666666666)" /><rect x="355.33333333333337" y="171.33333333333331" width="6.666666666666666" height="6.666666666666666" transform="rotate(96 394.6666666666667 138.66666666666666)" /><rect x="373.3240740740741" y="173.99074074074073" width="7.351851851851851" height="7.351851851851851" transform="rotate(100 416 138.66666666666666)" /><rect x="391.2962962962963" y="176.62962962962962" width="8.074074074074074" height="8.074074074074074" transform="rotate(104 437.3333333333333 138.66666666666666)" /><rect x="409.25" y="179.25" width="8.833333333333332" height="8.833333333333332" transform="rotate(108 458.6666666666667 138.66666666666666)" /><rect x="427.18518518518516" y="181.85185185185185" width="9.629629629629628" height="9.629629629629628" transform="rotate(112 480 138.66666666666666)" /><rect x="445.10185185185185" y="184.43518518518516" width="10.462962962962964" height="10.462962962962964" transform="rotate(116 501.3333333333333 138.66666666666666)" /><rect x="31.212962962962962" y="138.54629629629628" width="0.9074074074074076" height="0.9074074074074076" transform="rotate(28 10.666666666666666 159.99999999999997)" /><rect x="49.53703703703704" y="141.537037037037" width="0.925925925925926" height="0.925925925925926" transform="rotate(32 32 159.99999999999997)" /><rect x="67.84259259259258" y="144.50925925925924" width="0.9814814814814816" height="0.9814814814814816" transform="rotate(36 53.33333333333333 159.99999999999997)" /><rect x="86.12962962962963" y="147.46296296296293" width="1.0740740740740742" height="1.0740740740740742" transform="rotate(40 74.66666666666667 159.99999999999997)" /><rect x="104.39814814814815" y="150.39814814814812" width="1.2037037037037037" height="1.2037037037037037" transform="rotate(44 96 159.99999999999997)" /><rect x="122.64814814814815" y="153.31481481481478" width="1.3703703703703705" height="1.3703703703703705" transform="rotate(48 117.33333333333333 159.99999999999997)" /><rect x="140.87962962962962" y="156.21296296296293" width="1.5740740740740744" height="1.5740740740740744" transform="rotate(52 138.66666666666666 159.99999999999997)" /><rect x="159.09259259259255" y="159.09259259259255" width="1.814814814814815" height="1.814814814814815" transform="rotate(56 159.99999999999997 159.99999999999997)" /><rect x="177.287037037037" y="161.95370370370367" width="2.0925925925925926" height="2.0925925925925926" transform="rotate(60 181.33333333333331 159.99999999999997)" /><rect x="195.46296296296296" y="164.79629629629628" width="2.4074074074074074" height="2.4074074074074074" transform="rotate(64 202.66666666666666 159.99999999999997)" /><rect x="213.62037037037035" y="167.62037037037035" width="2.7592592592592595" height="2.7592592592592595" transform="rotate(68 223.99999999999997 159.99999999999997)" /><rect x="231.75925925925924" y="170.4259259259259" width="3.148148148148148" height="3.148148148148148" transform="rotate(72 245.33333333333331 159.99999999999997)" /><rect x="249.87962962962968" y="173.21296296296293" width="3.5740740740740744" height="3.5740740740740744" transform="rotate(76 266.6666666666667 159.99999999999997)" /><rect x="267.98148148148147" y="175.98148148148147" width="4.037037037037036" height="4.037037037037036" transform="rotate(80 288 159.99999999999997)" /><rect x="286.0648148148148" y="178.73148148148147" width="4.537037037037038" height="4.537037037037038" transform="rotate(84 309.3333333333333 159.99999999999997)" /><rect x="304.1296296296297" y="181.46296296296293" width="5.074074074074074" height="5.074074074074074" transform="rotate(88 330.6666666666667 159.99999999999997)" /><rect x="322.1759259259259" y="184.1759259259259" width="5.648148148148147" height="5.648148148148147" transform="rotate(92 352 159.99999999999997)" /><rect x="340.2037037037037" y="186.87037037037035" width="6.2592592592592595" height="6.2592592592592595" transform="rotate(96 373.3333333333333 159.99999999999997)" /><rect x="358.212962962963" y="189.54629629629628" width="6.9074074074074066" height="6.9074074074074066" transform="rotate(100 394.6666666666667 159.99999999999997)" /><rect x="376.2037037037037" y="192.20370370370367" width="7.592592592592592" height="7.592592592592592" transform="rotate(104 416 159.99999999999997)" /><rect x="394.1759259259259" y="194.84259259259255" width="8.314814814814815" height="8.314814814814815" transform="rotate(108 437.3333333333333 159.99999999999997)" /><rect x="412.1296296296297" y="197.46296296296293" width="9.074074074074073" height="9.074074074074073" transform="rotate(112 458.6666666666667 159.99999999999997)" /><rect x="430.06481481481484" y="200.06481481481478" width="9.870370370370368" height="9.870370370370368" transform="rotate(116 480 159.99999999999997)" /><rect x="447.9814814814815" y="202.64814814814812" width="10.703703703703704" height="10.703703703703704" transform="rotate(120 501.3333333333333 159.99999999999997)" /><rect x="34.074074074074076" y="156.74074074074073" width="1.1851851851851851" height="1.1851851851851851" transform="rotate(32 10.666666666666666 181.33333333333331)" /><rect x="52.39814814814815" y="159.73148148148147" width="1.2037037037037035" height="1.2037037037037035" transform="rotate(36 32 181.33333333333331)" /><rect x="70.7037037037037" y="162.7037037037037" width="1.259259259259259" height="1.259259259259259" transform="rotate(40 53.33333333333333 181.33333333333331)" /><rect x="88.99074074074075" y="165.6574074074074" width="1.3518518518518516" height="1.3518518518518516" transform="rotate(44 74.66666666666667 181.33333333333331)" /><rect x="107.25925925925925" y="168.59259259259258" width="1.4814814814814814" height="1.4814814814814814" transform="rotate(48 96 181.33333333333331)" /><rect x="125.50925925925924" y="171.50925925925924" width="1.6481481481481481" height="1.6481481481481481" transform="rotate(52 117.33333333333333 181.33333333333331)" /><rect x="143.74074074074073" y="174.4074074074074" width="1.8518518518518516" height="1.8518518518518516" transform="rotate(56 138.66666666666666 181.33333333333331)" /><rect x="161.95370370370367" y="177.287037037037" width="2.0925925925925926" height="2.0925925925925926" transform="rotate(60 159.99999999999997 181.33333333333331)" /><rect x="180.14814814814812" y="180.14814814814812" width="2.3703703703703702" height="2.3703703703703702" transform="rotate(64 181.33333333333331 181.33333333333331)" /><rect x="198.32407407407408" y="182.99074074074073" width="2.685185185185185" height="2.685185185185185" transform="rotate(68 202.66666666666666 181.33333333333331)" /><rect x="216.48148148148147" y="185.8148148148148" width="3.0370370370370368" height="3.0370370370370368" transform="rotate(72 223.99999999999997 181.33333333333331)" /><rect x="234.62037037037032" y="188.62037037037035" width="3.4259259259259256" height="3.4259259259259256" transform="rotate(76 245.33333333333331 181.33333333333331)" /><rect x="252.74074074074076" y="191.4074074074074" width="3.8518518518518516" height="3.8518518518518516" transform="rotate(80 266.6666666666667 181.33333333333331)" /><rect x="270.8425925925926" y="194.1759259259259" width="4.314814814814814" height="4.314814814814814" transform="rotate(84 288 181.33333333333331)" /><rect x="288.9259259259259" y="196.9259259259259" width="4.814814814814815" height="4.814814814814815" transform="rotate(88 309.3333333333333 181.33333333333331)" /><rect x="306.99074074074076" y="199.6574074074074" width="5.351851851851852" height="5.351851851851852" transform="rotate(92 330.6666666666667 181.33333333333331)" /><rect x="325.037037037037" y="202.37037037037035" width="5.925925925925926" height="5.925925925925926" transform="rotate(96 352 181.33333333333331)" /><rect x="343.0648148148148" y="205.06481481481478" width="6.537037037037038" height="6.537037037037038" transform="rotate(100 373.3333333333333 181.33333333333331)" /><rect x="361.0740740740741" y="207.74074074074073" width="7.185185185185185" height="7.185185185185185" transform="rotate(104 394.6666666666667 181.33333333333331)" /><rect x="379.06481481481484" y="210.39814814814812" width="7.8703703703703685" height="7.8703703703703685" transform="rotate(108 416 181.33333333333331)" /><rect x="397.037037037037" y="213.037037037037" width="8.592592592592592" height="8.592592592592592" transform="rotate(112 437.3333333333333 181.33333333333331)" /><rect x="414.99074074074076" y="215.6574074074074" width="9.351851851851851" height="9.351851851851851" transform="rotate(116 458.6666666666667 181.33333333333331)" /><rect x="432.9259259259259" y="218.25925925925924" width="10.148148148148147" height="10.148148148148147" transform="rotate(120 480 181.33333333333331)" /><rect x="450.8425925925926" y="220.84259259259258" width="10.981481481481483" height="10.981481481481483" transform="rotate(124 501.3333333333333 181.33333333333331)" /><rect x="36.916666666666664" y="174.91666666666666" width="1.5" height="1.5" transform="rotate(36 10.666666666666666 202.66666666666666)" /><rect x="55.24074074074074" y="177.9074074074074" width="1.5185185185185184" height="1.5185185185185184" transform="rotate(40 32 202.66666666666666)" /><rect x="73.54629629629629" y="180.87962962962962" width="1.574074074074074" height="1.574074074074074" transform="rotate(44 53.33333333333333 202.66666666666666)" /><rect x="91.83333333333334" y="183.83333333333331" width="1.6666666666666665" height="1.6666666666666665" transform="rotate(48 74.66666666666667 202.66666666666666)" /><rect x="110.10185185185185" y="186.7685185185185" width="1.7962962962962963" height="1.7962962962962963" transform="rotate(52 96 202.66666666666666)" /><rect x="128.35185185185185" y="189.68518518518516" width="1.962962962962963" height="1.962962962962963" transform="rotate(56 117.33333333333333 202.66666666666666)" /><rect x="146.58333333333331" y="192.58333333333331" width="2.1666666666666665" height="2.1666666666666665" transform="rotate(60 138.66666666666666 202.66666666666666)" /><rect x="164.79629629629628" y="195.46296296296296" width="2.4074074074074074" height="2.4074074074074074" transform="rotate(64 159.99999999999997 202.66666666666666)" /><rect x="182.99074074074073" y="198.32407407407408" width="2.685185185185185" height="2.685185185185185" transform="rotate(68 181.33333333333331 202.66666666666666)" /><rect x="201.16666666666666" y="201.16666666666666" width="3" height="3" transform="rotate(72 202.66666666666666 202.66666666666666)" /><rect x="219.32407407407405" y="203.99074074074073" width="3.351851851851852" height="3.351851851851852" transform="rotate(76 223.99999999999997 202.66666666666666)" /><rect x="237.46296296296293" y="206.79629629629628" width="3.7407407407407405" height="3.7407407407407405" transform="rotate(80 245.33333333333331 202.66666666666666)" /><rect x="255.58333333333337" y="209.58333333333331" width="4.166666666666666" height="4.166666666666666" transform="rotate(84 266.6666666666667 202.66666666666666)" /><rect x="273.68518518518516" y="212.35185185185185" width="4.629629629629629" height="4.629629629629629" transform="rotate(88 288 202.66666666666666)" /><rect x="291.7685185185185" y="215.10185185185185" width="5.12962962962963" height="5.12962962962963" transform="rotate(92 309.3333333333333 202.66666666666666)" /><rect x="309.83333333333337" y="217.83333333333331" width="5.666666666666666" height="5.666666666666666" transform="rotate(96 330.6666666666667 202.66666666666666)" /><rect x="327.8796296296296" y="220.54629629629628" width="6.2407407407407405" height="6.2407407407407405" transform="rotate(100 352 202.66666666666666)" /><rect x="345.9074074074074" y="223.24074074074073" width="6.851851851851852" height="6.851851851851852" transform="rotate(104 373.3333333333333 202.66666666666666)" /><rect x="363.9166666666667" y="225.91666666666666" width="7.5" height="7.5" transform="rotate(108 394.6666666666667 202.66666666666666)" /><rect x="381.9074074074074" y="228.57407407407408" width="8.185185185185183" height="8.185185185185183" transform="rotate(112 416 202.66666666666666)" /><rect x="399.8796296296296" y="231.21296296296293" width="8.907407407407408" height="8.907407407407408" transform="rotate(116 437.3333333333333 202.66666666666666)" /><rect x="417.83333333333337" y="233.83333333333331" width="9.666666666666666" height="9.666666666666666" transform="rotate(120 458.6666666666667 202.66666666666666)" /><rect x="435.76851851851853" y="236.43518518518516" width="10.462962962962962" height="10.462962962962962" transform="rotate(124 480 202.66666666666666)" /><rect x="453.6851851851852" y="239.01851851851848" width="11.296296296296298" height="11.296296296296298" transform="rotate(128 501.3333333333333 202.66666666666666)" /><rect x="39.74074074074074" y="193.07407407407405" width="1.851851851851852" height="1.851851851851852" transform="rotate(40 10.666666666666666 223.99999999999997)" /><rect x="58.06481481481481" y="196.06481481481478" width="1.8703703703703705" height="1.8703703703703705" transform="rotate(44 32 223.99999999999997)" /><rect x="76.37037037037037" y="199.037037037037" width="1.925925925925926" height="1.925925925925926" transform="rotate(48 53.33333333333333 223.99999999999997)" /><rect x="94.65740740740742" y="201.9907407407407" width="2.0185185185185186" height="2.0185185185185186" transform="rotate(52 74.66666666666667 223.99999999999997)" /><rect x="112.92592592592592" y="204.9259259259259" width="2.148148148148148" height="2.148148148148148" transform="rotate(56 96 223.99999999999997)" /><rect x="131.17592592592592" y="207.84259259259255" width="2.314814814814815" height="2.314814814814815" transform="rotate(60 117.33333333333333 223.99999999999997)" /><rect x="149.4074074074074" y="210.7407407407407" width="2.5185185185185186" height="2.5185185185185186" transform="rotate(64 138.66666666666666 223.99999999999997)" /><rect x="167.62037037037035" y="213.62037037037035" width="2.7592592592592595" height="2.7592592592592595" transform="rotate(68 159.99999999999997 223.99999999999997)" /><rect x="185.8148148148148" y="216.48148148148147" width="3.0370370370370368" height="3.0370370370370368" transform="rotate(72 181.33333333333331 223.99999999999997)" /><rect x="203.99074074074073" y="219.32407407407405" width="3.351851851851852" height="3.351851851851852" transform="rotate(76 202.66666666666666 223.99999999999997)" /><rect x="222.14814814814812" y="222.14814814814812" width="3.703703703703704" height="3.703703703703704" transform="rotate(80 223.99999999999997 223.99999999999997)" /><rect x="240.287037037037" y="224.95370370370367" width="4.092592592592593" height="4.092592592592593" transform="rotate(84 245.33333333333331 223.99999999999997)" /><rect x="258.40740740740745" y="227.7407407407407" width="4.518518518518519" height="4.518518518518519" transform="rotate(88 266.6666666666667 223.99999999999997)" /><rect x="276.50925925925924" y="230.50925925925924" width="4.981481481481481" height="4.981481481481481" transform="rotate(92 288 223.99999999999997)" /><rect x="294.59259259259255" y="233.25925925925924" width="5.481481481481482" height="5.481481481481482" transform="rotate(96 309.3333333333333 223.99999999999997)" /><rect x="312.65740740740745" y="235.9907407407407" width="6.018518518518519" height="6.018518518518519" transform="rotate(100 330.6666666666667 223.99999999999997)" /><rect x="330.7037037037037" y="238.7037037037037" width="6.592592592592593" height="6.592592592592593" transform="rotate(104 352 223.99999999999997)" /><rect x="348.73148148148147" y="241.39814814814815" width="7.203703703703704" height="7.203703703703704" transform="rotate(108 373.3333333333333 223.99999999999997)" /><rect x="366.74074074074076" y="244.07407407407402" width="7.851851851851852" height="7.851851851851852" transform="rotate(112 394.6666666666667 223.99999999999997)" /><rect x="384.73148148148147" y="246.73148148148147" width="8.537037037037036" height="8.537037037037036" transform="rotate(116 416 223.99999999999997)" /><rect x="402.7037037037037" y="249.37037037037032" width="9.25925925925926" height="9.25925925925926" transform="rotate(120 437.3333333333333 223.99999999999997)" /><rect x="420.65740740740745" y="251.9907407407407" width="10.018518518518519" height="10.018518518518519" transform="rotate(124 458.6666666666667 223.99999999999997)" /><rect x="438.5925925925926" y="254.59259259259255" width="10.814814814814813" height="10.814814814814813" transform="rotate(128 480 223.99999999999997)" /><rect x="456.50925925925924" y="257.17592592592587" width="11.648148148148149" height="11.648148148148149" transform="rotate(132 501.3333333333333 223.99999999999997)" /><rect x="42.5462962962963" y="211.21296296296293" width="2.2407407407407405" height="2.2407407407407405" transform="rotate(44 10.666666666666666 245.33333333333331)" /><rect x="60.87037037037037" y="214.2037037037037" width="2.2592592592592586" height="2.2592592592592586" transform="rotate(48 32 245.33333333333331)" /><rect x="79.17592592592592" y="217.1759259259259" width="2.3148148148148144" height="2.3148148148148144" transform="rotate(52 53.33333333333333 245.33333333333331)" /><rect x="97.46296296296296" y="220.12962962962962" width="2.407407407407407" height="2.407407407407407" transform="rotate(56 74.66666666666667 245.33333333333331)" /><rect x="115.73148148148148" y="223.06481481481478" width="2.5370370370370368" height="2.5370370370370368" transform="rotate(60 96 245.33333333333331)" /><rect x="133.98148148148147" y="225.98148148148147" width="2.7037037037037033" height="2.7037037037037033" transform="rotate(64 117.33333333333333 245.33333333333331)" /><rect x="152.21296296296296" y="228.87962962962962" width="2.907407407407407" height="2.907407407407407" transform="rotate(68 138.66666666666666 245.33333333333331)" /><rect x="170.4259259259259" y="231.75925925925924" width="3.148148148148148" height="3.148148148148148" transform="rotate(72 159.99999999999997 245.33333333333331)" /><rect x="188.62037037037035" y="234.62037037037032" width="3.4259259259259256" height="3.4259259259259256" transform="rotate(76 181.33333333333331 245.33333333333331)" /><rect x="206.79629629629628" y="237.46296296296293" width="3.7407407407407405" height="3.7407407407407405" transform="rotate(80 202.66666666666666 245.33333333333331)" /><rect x="224.95370370370367" y="240.287037037037" width="4.092592592592593" height="4.092592592592593" transform="rotate(84 223.99999999999997 245.33333333333331)" /><rect x="243.0925925925926" y="243.0925925925926" width="4.481481481481481" height="4.481481481481481" transform="rotate(88 245.33333333333331 245.33333333333331)" /><rect x="261.212962962963" y="245.87962962962962" width="4.9074074074074066" height="4.9074074074074066" transform="rotate(92 266.6666666666667 245.33333333333331)" /><rect x="279.31481481481484" y="248.64814814814815" width="5.3703703703703685" height="5.3703703703703685" transform="rotate(96 288 245.33333333333331)" /><rect x="297.39814814814815" y="251.39814814814815" width="5.870370370370371" height="5.870370370370371" transform="rotate(100 309.3333333333333 245.33333333333331)" /><rect x="315.462962962963" y="254.12962962962962" width="6.4074074074074066" height="6.4074074074074066" transform="rotate(104 330.6666666666667 245.33333333333331)" /><rect x="333.50925925925924" y="256.8425925925926" width="6.981481481481481" height="6.981481481481481" transform="rotate(108 352 245.33333333333331)" /><rect x="351.537037037037" y="259.537037037037" width="7.592592592592593" height="7.592592592592593" transform="rotate(112 373.3333333333333 245.33333333333331)" /><rect x="369.5462962962963" y="262.21296296296293" width="8.24074074074074" height="8.24074074074074" transform="rotate(116 394.6666666666667 245.33333333333331)" /><rect x="387.53703703703707" y="264.8703703703703" width="8.925925925925924" height="8.925925925925924" transform="rotate(120 416 245.33333333333331)" /><rect x="405.50925925925924" y="267.50925925925924" width="9.648148148148149" height="9.648148148148149" transform="rotate(124 437.3333333333333 245.33333333333331)" /><rect x="423.462962962963" y="270.1296296296296" width="10.407407407407407" height="10.407407407407407" transform="rotate(128 458.6666666666667 245.33333333333331)" /><rect x="441.39814814814815" y="272.73148148148147" width="11.203703703703702" height="11.203703703703702" transform="rotate(132 480 245.33333333333331)" /><rect x="459.3148148148148" y="275.3148148148148" width="12.037037037037038" height="12.037037037037038" transform="rotate(136 501.3333333333333 245.33333333333331)" /><rect x="45.33333333333333" y="229.33333333333337" width="2.6666666666666665" height="2.6666666666666665" transform="rotate(48 10.666666666666666 266.6666666666667)" /><rect x="63.657407407407405" y="232.32407407407408" width="2.685185185185185" height="2.685185185185185" transform="rotate(52 32 266.6666666666667)" /><rect x="81.96296296296296" y="235.2962962962963" width="2.7407407407407405" height="2.7407407407407405" transform="rotate(56 53.33333333333333 266.6666666666667)" /><rect x="100.25" y="238.25" width="2.833333333333333" height="2.833333333333333" transform="rotate(60 74.66666666666667 266.6666666666667)" /><rect x="118.51851851851853" y="241.18518518518522" width="2.962962962962963" height="2.962962962962963" transform="rotate(64 96 266.6666666666667)" /><rect x="136.76851851851853" y="244.10185185185185" width="3.1296296296296298" height="3.1296296296296298" transform="rotate(68 117.33333333333333 266.6666666666667)" /><rect x="155" y="247" width="3.333333333333333" height="3.333333333333333" transform="rotate(72 138.66666666666666 266.6666666666667)" /><rect x="173.21296296296293" y="249.87962962962968" width="3.5740740740740744" height="3.5740740740740744" transform="rotate(76 159.99999999999997 266.6666666666667)" /><rect x="191.4074074074074" y="252.74074074074076" width="3.8518518518518516" height="3.8518518518518516" transform="rotate(80 181.33333333333331 266.6666666666667)" /><rect x="209.58333333333331" y="255.58333333333337" width="4.166666666666666" height="4.166666666666666" transform="rotate(84 202.66666666666666 266.6666666666667)" /><rect x="227.7407407407407" y="258.40740740740745" width="4.518518518518519" height="4.518518518518519" transform="rotate(88 223.99999999999997 266.6666666666667)" /><rect x="245.87962962962962" y="261.212962962963" width="4.9074074074074066" height="4.9074074074074066" transform="rotate(92 245.33333333333331 266.6666666666667)" /><rect x="264" y="264" width="5.333333333333333" height="5.333333333333333" transform="rotate(96 266.6666666666667 266.6666666666667)" /><rect x="282.10185185185185" y="266.76851851851853" width="5.796296296296295" height="5.796296296296295" transform="rotate(100 288 266.6666666666667)" /><rect x="300.18518518518516" y="269.51851851851853" width="6.296296296296298" height="6.296296296296298" transform="rotate(104 309.3333333333333 266.6666666666667)" /><rect x="318.25" y="272.25" width="6.833333333333333" height="6.833333333333333" transform="rotate(108 330.6666666666667 266.6666666666667)" /><rect x="336.2962962962963" y="274.962962962963" width="7.4074074074074066" height="7.4074074074074066" transform="rotate(112 352 266.6666666666667)" /><rect x="354.3240740740741" y="277.65740740740745" width="8.018518518518519" height="8.018518518518519" transform="rotate(116 373.3333333333333 266.6666666666667)" /><rect x="372.33333333333337" y="280.33333333333337" width="8.666666666666666" height="8.666666666666666" transform="rotate(120 394.6666666666667 266.6666666666667)" /><rect x="390.3240740740741" y="282.99074074074076" width="9.351851851851851" height="9.351851851851851" transform="rotate(124 416 266.6666666666667)" /><rect x="408.2962962962963" y="285.6296296296297" width="10.074074074074074" height="10.074074074074074" transform="rotate(128 437.3333333333333 266.6666666666667)" /><rect x="426.25" y="288.25" width="10.833333333333332" height="10.833333333333332" transform="rotate(132 458.6666666666667 266.6666666666667)" /><rect x="444.18518518518516" y="290.85185185185185" width="11.629629629629628" height="11.629629629629628" transform="rotate(136 480 266.6666666666667)" /><rect x="462.10185185185185" y="293.4351851851852" width="12.462962962962964" height="12.462962962962964" transform="rotate(140 501.3333333333333 266.6666666666667)" /><rect x="48.10185185185185" y="247.43518518518516" width="3.129629629629629" height="3.129629629629629" transform="rotate(52 10.666666666666666 288)" /><rect x="66.42592592592592" y="250.42592592592592" width="3.1481481481481475" height="3.1481481481481475" transform="rotate(56 32 288)" /><rect x="84.73148148148147" y="253.39814814814815" width="3.203703703703703" height="3.203703703703703" transform="rotate(60 53.33333333333333 288)" /><rect x="103.01851851851852" y="256.35185185185185" width="3.296296296296296" height="3.296296296296296" transform="rotate(64 74.66666666666667 288)" /><rect x="121.28703703703704" y="259.287037037037" width="3.4259259259259256" height="3.4259259259259256" transform="rotate(68 96 288)" /><rect x="139.53703703703704" y="262.2037037037037" width="3.592592592592592" height="3.592592592592592" transform="rotate(72 117.33333333333333 288)" /><rect x="157.7685185185185" y="265.10185185185185" width="3.796296296296296" height="3.796296296296296" transform="rotate(76 138.66666666666666 288)" /><rect x="175.98148148148147" y="267.98148148148147" width="4.037037037037036" height="4.037037037037036" transform="rotate(80 159.99999999999997 288)" /><rect x="194.1759259259259" y="270.8425925925926" width="4.314814814814814" height="4.314814814814814" transform="rotate(84 181.33333333333331 288)" /><rect x="212.35185185185185" y="273.68518518518516" width="4.629629629629629" height="4.629629629629629" transform="rotate(88 202.66666666666666 288)" /><rect x="230.50925925925924" y="276.50925925925924" width="4.981481481481481" height="4.981481481481481" transform="rotate(92 223.99999999999997 288)" /><rect x="248.64814814814815" y="279.31481481481484" width="5.3703703703703685" height="5.3703703703703685" transform="rotate(96 245.33333333333331 288)" /><rect x="266.76851851851853" y="282.10185185185185" width="5.796296296296295" height="5.796296296296295" transform="rotate(100 266.6666666666667 288)" /><rect x="284.8703703703704" y="284.8703703703704" width="6.259259259259258" height="6.259259259259258" transform="rotate(104 288 288)" /><rect x="302.9537037037037" y="287.6203703703704" width="6.7592592592592595" height="6.7592592592592595" transform="rotate(108 309.3333333333333 288)" /><rect x="321.01851851851853" y="290.35185185185185" width="7.296296296296295" height="7.296296296296295" transform="rotate(112 330.6666666666667 288)" /><rect x="339.06481481481484" y="293.06481481481484" width="7.8703703703703685" height="7.8703703703703685" transform="rotate(116 352 288)" /><rect x="357.09259259259255" y="295.75925925925924" width="8.481481481481481" height="8.481481481481481" transform="rotate(120 373.3333333333333 288)" /><rect x="375.10185185185185" y="298.43518518518516" width="9.129629629629628" height="9.129629629629628" transform="rotate(124 394.6666666666667 288)" /><rect x="393.0925925925926" y="301.0925925925926" width="9.814814814814813" height="9.814814814814813" transform="rotate(128 416 288)" /><rect x="411.0648148148148" y="303.73148148148147" width="10.537037037037038" height="10.537037037037038" transform="rotate(132 437.3333333333333 288)" /><rect x="429.01851851851853" y="306.35185185185185" width="11.296296296296294" height="11.296296296296294" transform="rotate(136 458.6666666666667 288)" /><rect x="446.9537037037037" y="308.9537037037037" width="12.09259259259259" height="12.09259259259259" transform="rotate(140 480 288)" /><rect x="464.8703703703703" y="311.537037037037" width="12.925925925925926" height="12.925925925925926" transform="rotate(144 501.3333333333333 288)" /><rect x="50.85185185185185" y="265.5185185185185" width="3.62962962962963" height="3.62962962962963" transform="rotate(56 10.666666666666666 309.3333333333333)" /><rect x="69.17592592592592" y="268.50925925925924" width="3.648148148148149" height="3.648148148148149" transform="rotate(60 32 309.3333333333333)" /><rect x="87.48148148148147" y="271.48148148148147" width="3.703703703703704" height="3.703703703703704" transform="rotate(64 53.33333333333333 309.3333333333333)" /><rect x="105.76851851851852" y="274.43518518518516" width="3.7962962962962967" height="3.7962962962962967" transform="rotate(68 74.66666666666667 309.3333333333333)" /><rect x="124.03703703703704" y="277.3703703703703" width="3.9259259259259265" height="3.9259259259259265" transform="rotate(72 96 309.3333333333333)" /><rect x="142.28703703703704" y="280.287037037037" width="4.0925925925925934" height="4.0925925925925934" transform="rotate(76 117.33333333333333 309.3333333333333)" /><rect x="160.5185185185185" y="283.18518518518516" width="4.296296296296297" height="4.296296296296297" transform="rotate(80 138.66666666666666 309.3333333333333)" /><rect x="178.73148148148147" y="286.0648148148148" width="4.537037037037038" height="4.537037037037038" transform="rotate(84 159.99999999999997 309.3333333333333)" /><rect x="196.9259259259259" y="288.9259259259259" width="4.814814814814815" height="4.814814814814815" transform="rotate(88 181.33333333333331 309.3333333333333)" /><rect x="215.10185185185185" y="291.7685185185185" width="5.12962962962963" height="5.12962962962963" transform="rotate(92 202.66666666666666 309.3333333333333)" /><rect x="233.25925925925924" y="294.59259259259255" width="5.481481481481482" height="5.481481481481482" transform="rotate(96 223.99999999999997 309.3333333333333)" /><rect x="251.39814814814815" y="297.39814814814815" width="5.870370370370371" height="5.870370370370371" transform="rotate(100 245.33333333333331 309.3333333333333)" /><rect x="269.51851851851853" y="300.18518518518516" width="6.296296296296298" height="6.296296296296298" transform="rotate(104 266.6666666666667 309.3333333333333)" /><rect x="287.6203703703704" y="302.9537037037037" width="6.7592592592592595" height="6.7592592592592595" transform="rotate(108 288 309.3333333333333)" /><rect x="305.7037037037037" y="305.7037037037037" width="7.25925925925926" height="7.25925925925926" transform="rotate(112 309.3333333333333 309.3333333333333)" /><rect x="323.76851851851853" y="308.43518518518516" width="7.796296296296298" height="7.796296296296298" transform="rotate(116 330.6666666666667 309.3333333333333)" /><rect x="341.81481481481484" y="311.14814814814815" width="8.37037037037037" height="8.37037037037037" transform="rotate(120 352 309.3333333333333)" /><rect x="359.84259259259255" y="313.84259259259255" width="8.981481481481483" height="8.981481481481483" transform="rotate(124 373.3333333333333 309.3333333333333)" /><rect x="377.85185185185185" y="316.5185185185185" width="9.62962962962963" height="9.62962962962963" transform="rotate(128 394.6666666666667 309.3333333333333)" /><rect x="395.8425925925926" y="319.1759259259259" width="10.314814814814813" height="10.314814814814813" transform="rotate(132 416 309.3333333333333)" /><rect x="413.8148148148148" y="321.8148148148148" width="11.037037037037038" height="11.037037037037038" transform="rotate(136 437.3333333333333 309.3333333333333)" /><rect x="431.76851851851853" y="324.43518518518516" width="11.796296296296298" height="11.796296296296298" transform="rotate(140 458.6666666666667 309.3333333333333)" /><rect x="449.7037037037037" y="327.037037037037" width="12.592592592592592" height="12.592592592592592" transform="rotate(144 480 309.3333333333333)" /><rect x="467.6203703703703" y="329.6203703703703" width="13.425925925925927" height="13.425925925925927" transform="rotate(148 501.3333333333333 309.3333333333333)" /><rect x="53.58333333333333" y="283.58333333333337" width="4.166666666666666" height="4.166666666666666" transform="rotate(60 10.666666666666666 330.6666666666667)" /><rect x="71.9074074074074" y="286.5740740740741" width="4.185185185185185" height="4.185185185185185" transform="rotate(64 32 330.6666666666667)" /><rect x="90.21296296296296" y="289.5462962962963" width="4.2407407407407405" height="4.2407407407407405" transform="rotate(68 53.33333333333333 330.6666666666667)" /><rect x="108.5" y="292.5" width="4.333333333333333" height="4.333333333333333" transform="rotate(72 74.66666666666667 330.6666666666667)" /><rect x="126.76851851851853" y="295.4351851851852" width="4.462962962962963" height="4.462962962962963" transform="rotate(76 96 330.6666666666667)" /><rect x="145.01851851851853" y="298.35185185185185" width="4.62962962962963" height="4.62962962962963" transform="rotate(80 117.33333333333333 330.6666666666667)" /><rect x="163.25" y="301.25" width="4.833333333333333" height="4.833333333333333" transform="rotate(84 138.66666666666666 330.6666666666667)" /><rect x="181.46296296296293" y="304.1296296296297" width="5.074074074074074" height="5.074074074074074" transform="rotate(88 159.99999999999997 330.6666666666667)" /><rect x="199.6574074074074" y="306.99074074074076" width="5.351851851851852" height="5.351851851851852" transform="rotate(92 181.33333333333331 330.6666666666667)" /><rect x="217.83333333333331" y="309.83333333333337" width="5.666666666666666" height="5.666666666666666" transform="rotate(96 202.66666666666666 330.6666666666667)" /><rect x="235.9907407407407" y="312.65740740740745" width="6.018518518518519" height="6.018518518518519" transform="rotate(100 223.99999999999997 330.6666666666667)" /><rect x="254.12962962962962" y="315.462962962963" width="6.4074074074074066" height="6.4074074074074066" transform="rotate(104 245.33333333333331 330.6666666666667)" /><rect x="272.25" y="318.25" width="6.833333333333333" height="6.833333333333333" transform="rotate(108 266.6666666666667 330.6666666666667)" /><rect x="290.35185185185185" y="321.01851851851853" width="7.296296296296295" height="7.296296296296295" transform="rotate(112 288 330.6666666666667)" /><rect x="308.43518518518516" y="323.76851851851853" width="7.796296296296298" height="7.796296296296298" transform="rotate(116 309.3333333333333 330.6666666666667)" /><rect x="326.5" y="326.5" width="8.333333333333332" height="8.333333333333332" transform="rotate(120 330.6666666666667 330.6666666666667)" /><rect x="344.5462962962963" y="329.212962962963" width="8.907407407407407" height="8.907407407407407" transform="rotate(124 352 330.6666666666667)" /><rect x="362.5740740740741" y="331.90740740740745" width="9.518518518518519" height="9.518518518518519" transform="rotate(128 373.3333333333333 330.6666666666667)" /><rect x="380.58333333333337" y="334.58333333333337" width="10.166666666666666" height="10.166666666666666" transform="rotate(132 394.6666666666667 330.6666666666667)" /><rect x="398.5740740740741" y="337.24074074074076" width="10.851851851851851" height="10.851851851851851" transform="rotate(136 416 330.6666666666667)" /><rect x="416.5462962962963" y="339.8796296296297" width="11.574074074074076" height="11.574074074074076" transform="rotate(140 437.3333333333333 330.6666666666667)" /><rect x="434.5" y="342.5" width="12.333333333333332" height="12.333333333333332" transform="rotate(144 458.6666666666667 330.6666666666667)" /><rect x="452.4351851851852" y="345.10185185185185" width="13.129629629629628" height="13.129629629629628" transform="rotate(148 480 330.6666666666667)" /><rect x="470.35185185185185" y="347.6851851851852" width="13.962962962962964" height="13.962962962962964" transform="rotate(152 501.3333333333333 330.6666666666667)" /><rect x="56.2962962962963" y="301.6296296296296" width="4.7407407407407405" height="4.7407407407407405" transform="rotate(64 10.666666666666666 352)" /><rect x="74.62037037037037" y="304.6203703703704" width="4.759259259259259" height="4.759259259259259" transform="rotate(68 32 352)" /><rect x="92.92592592592592" y="307.5925925925926" width="4.814814814814814" height="4.814814814814814" transform="rotate(72 53.33333333333333 352)" /><rect x="111.21296296296296" y="310.5462962962963" width="4.9074074074074066" height="4.9074074074074066" transform="rotate(76 74.66666666666667 352)" /><rect x="129.48148148148147" y="313.48148148148147" width="5.037037037037036" height="5.037037037037036" transform="rotate(80 96 352)" /><rect x="147.73148148148147" y="316.39814814814815" width="5.203703703703703" height="5.203703703703703" transform="rotate(84 117.33333333333333 352)" /><rect x="165.96296296296296" y="319.2962962962963" width="5.4074074074074066" height="5.4074074074074066" transform="rotate(88 138.66666666666666 352)" /><rect x="184.1759259259259" y="322.1759259259259" width="5.648148148148147" height="5.648148148148147" transform="rotate(92 159.99999999999997 352)" /><rect x="202.37037037037035" y="325.037037037037" width="5.925925925925926" height="5.925925925925926" transform="rotate(96 181.33333333333331 352)" /><rect x="220.54629629629628" y="327.8796296296296" width="6.2407407407407405" height="6.2407407407407405" transform="rotate(100 202.66666666666666 352)" /><rect x="238.7037037037037" y="330.7037037037037" width="6.592592592592593" height="6.592592592592593" transform="rotate(104 223.99999999999997 352)" /><rect x="256.8425925925926" y="333.50925925925924" width="6.981481481481481" height="6.981481481481481" transform="rotate(108 245.33333333333331 352)" /><rect x="274.962962962963" y="336.2962962962963" width="7.4074074074074066" height="7.4074074074074066" transform="rotate(112 266.6666666666667 352)" /><rect x="293.06481481481484" y="339.06481481481484" width="7.8703703703703685" height="7.8703703703703685" transform="rotate(116 288 352)" /><rect x="311.14814814814815" y="341.81481481481484" width="8.37037037037037" height="8.37037037037037" transform="rotate(120 309.3333333333333 352)" /><rect x="329.212962962963" y="344.5462962962963" width="8.907407407407407" height="8.907407407407407" transform="rotate(124 330.6666666666667 352)" /><rect x="347.25925925925924" y="347.25925925925924" width="9.481481481481481" height="9.481481481481481" transform="rotate(128 352 352)" /><rect x="365.287037037037" y="349.9537037037037" width="10.092592592592592" height="10.092592592592592" transform="rotate(132 373.3333333333333 352)" /><rect x="383.2962962962963" y="352.6296296296296" width="10.74074074074074" height="10.74074074074074" transform="rotate(136 394.6666666666667 352)" /><rect x="401.28703703703707" y="355.28703703703707" width="11.425925925925924" height="11.425925925925924" transform="rotate(140 416 352)" /><rect x="419.25925925925924" y="357.9259259259259" width="12.148148148148147" height="12.148148148148147" transform="rotate(144 437.3333333333333 352)" /><rect x="437.212962962963" y="360.5462962962963" width="12.907407407407407" height="12.907407407407407" transform="rotate(148 458.6666666666667 352)" /><rect x="455.14814814814815" y="363.14814814814815" width="13.703703703703702" height="13.703703703703702" transform="rotate(152 480 352)" /><rect x="473.0648148148148" y="365.73148148148147" width="14.537037037037038" height="14.537037037037038" transform="rotate(156 501.3333333333333 352)" /><rect x="58.99074074074074" y="319.6574074074074" width="5.351851851851852" height="5.351851851851852" transform="rotate(68 10.666666666666666 373.3333333333333)" /><rect x="77.31481481481481" y="322.64814814814815" width="5.370370370370371" height="5.370370370370371" transform="rotate(72 32 373.3333333333333)" /><rect x="95.62037037037037" y="325.6203703703703" width="5.425925925925926" height="5.425925925925926" transform="rotate(76 53.33333333333333 373.3333333333333)" /><rect x="113.90740740740742" y="328.5740740740741" width="5.518518518518519" height="5.518518518518519" transform="rotate(80 74.66666666666667 373.3333333333333)" /><rect x="132.17592592592592" y="331.50925925925924" width="5.648148148148149" height="5.648148148148149" transform="rotate(84 96 373.3333333333333)" /><rect x="150.42592592592592" y="334.4259259259259" width="5.814814814814815" height="5.814814814814815" transform="rotate(88 117.33333333333333 373.3333333333333)" /><rect x="168.6574074074074" y="337.3240740740741" width="6.018518518518519" height="6.018518518518519" transform="rotate(92 138.66666666666666 373.3333333333333)" /><rect x="186.87037037037035" y="340.2037037037037" width="6.2592592592592595" height="6.2592592592592595" transform="rotate(96 159.99999999999997 373.3333333333333)" /><rect x="205.06481481481478" y="343.0648148148148" width="6.537037037037038" height="6.537037037037038" transform="rotate(100 181.33333333333331 373.3333333333333)" /><rect x="223.24074074074073" y="345.9074074074074" width="6.851851851851852" height="6.851851851851852" transform="rotate(104 202.66666666666666 373.3333333333333)" /><rect x="241.39814814814815" y="348.73148148148147" width="7.203703703703704" height="7.203703703703704" transform="rotate(108 223.99999999999997 373.3333333333333)" /><rect x="259.537037037037" y="351.537037037037" width="7.592592592592593" height="7.592592592592593" transform="rotate(112 245.33333333333331 373.3333333333333)" /><rect x="277.65740740740745" y="354.3240740740741" width="8.018518518518519" height="8.018518518518519" transform="rotate(116 266.6666666666667 373.3333333333333)" /><rect x="295.75925925925924" y="357.09259259259255" width="8.481481481481481" height="8.481481481481481" transform="rotate(120 288 373.3333333333333)" /><rect x="313.84259259259255" y="359.84259259259255" width="8.981481481481483" height="8.981481481481483" transform="rotate(124 309.3333333333333 373.3333333333333)" /><rect x="331.90740740740745" y="362.5740740740741" width="9.518518518518519" height="9.518518518518519" transform="rotate(128 330.6666666666667 373.3333333333333)" /><rect x="349.9537037037037" y="365.287037037037" width="10.092592592592592" height="10.092592592592592" transform="rotate(132 352 373.3333333333333)" /><rect x="367.98148148148147" y="367.98148148148147" width="10.703703703703704" height="10.703703703703704" transform="rotate(136 373.3333333333333 373.3333333333333)" /><rect x="385.99074074074076" y="370.6574074074074" width="11.351851851851851" height="11.351851851851851" transform="rotate(140 394.6666666666667 373.3333333333333)" /><rect x="403.98148148148147" y="373.3148148148148" width="12.037037037037038" height="12.037037037037038" transform="rotate(144 416 373.3333333333333)" /><rect x="421.9537037037037" y="375.9537037037037" width="12.759259259259261" height="12.759259259259261" transform="rotate(148 437.3333333333333 373.3333333333333)" /><rect x="439.90740740740745" y="378.5740740740741" width="13.518518518518519" height="13.518518518518519" transform="rotate(152 458.6666666666667 373.3333333333333)" /><rect x="457.8425925925926" y="381.1759259259259" width="14.314814814814813" height="14.314814814814813" transform="rotate(156 480 373.3333333333333)" /><rect x="475.75925925925924" y="383.75925925925924" width="15.148148148148149" height="15.148148148148149" transform="rotate(160 501.3333333333333 373.3333333333333)" /><rect x="61.666666666666664" y="337.6666666666667" width="6" height="6" transform="rotate(72 10.666666666666666 394.6666666666667)" /><rect x="79.99074074074073" y="340.65740740740745" width="6.018518518518519" height="6.018518518518519" transform="rotate(76 32 394.6666666666667)" /><rect x="98.29629629629629" y="343.6296296296297" width="6.0740740740740735" height="6.0740740740740735" transform="rotate(80 53.33333333333333 394.6666666666667)" /><rect x="116.58333333333334" y="346.58333333333337" width="6.166666666666666" height="6.166666666666666" transform="rotate(84 74.66666666666667 394.6666666666667)" /><rect x="134.85185185185185" y="349.51851851851853" width="6.296296296296296" height="6.296296296296296" transform="rotate(88 96 394.6666666666667)" /><rect x="153.10185185185185" y="352.4351851851852" width="6.462962962962963" height="6.462962962962963" transform="rotate(92 117.33333333333333 394.6666666666667)" /><rect x="171.33333333333331" y="355.33333333333337" width="6.666666666666666" height="6.666666666666666" transform="rotate(96 138.66666666666666 394.6666666666667)" /><rect x="189.54629629629628" y="358.212962962963" width="6.9074074074074066" height="6.9074074074074066" transform="rotate(100 159.99999999999997 394.6666666666667)" /><rect x="207.74074074074073" y="361.0740740740741" width="7.185185185185185" height="7.185185185185185" transform="rotate(104 181.33333333333331 394.6666666666667)" /><rect x="225.91666666666666" y="363.9166666666667" width="7.5" height="7.5" transform="rotate(108 202.66666666666666 394.6666666666667)" /><rect x="244.07407407407402" y="366.74074074074076" width="7.851851851851852" height="7.851851851851852" transform="rotate(112 223.99999999999997 394.6666666666667)" /><rect x="262.21296296296293" y="369.5462962962963" width="8.24074074074074" height="8.24074074074074" transform="rotate(116 245.33333333333331 394.6666666666667)" /><rect x="280.33333333333337" y="372.33333333333337" width="8.666666666666666" height="8.666666666666666" transform="rotate(120 266.6666666666667 394.6666666666667)" /><rect x="298.43518518518516" y="375.10185185185185" width="9.129629629629628" height="9.129629629629628" transform="rotate(124 288 394.6666666666667)" /><rect x="316.5185185185185" y="377.85185185185185" width="9.62962962962963" height="9.62962962962963" transform="rotate(128 309.3333333333333 394.6666666666667)" /><rect x="334.58333333333337" y="380.58333333333337" width="10.166666666666666" height="10.166666666666666" transform="rotate(132 330.6666666666667 394.6666666666667)" /><rect x="352.6296296296296" y="383.2962962962963" width="10.74074074074074" height="10.74074074074074" transform="rotate(136 352 394.6666666666667)" /><rect x="370.6574074074074" y="385.99074074074076" width="11.351851851851851" height="11.351851851851851" transform="rotate(140 373.3333333333333 394.6666666666667)" /><rect x="388.6666666666667" y="388.6666666666667" width="12" height="12" transform="rotate(144 394.6666666666667 394.6666666666667)" /><rect x="406.6574074074074" y="391.3240740740741" width="12.685185185185185" height="12.685185185185185" transform="rotate(148 416 394.6666666666667)" /><rect x="424.6296296296296" y="393.962962962963" width="13.407407407407408" height="13.407407407407408" transform="rotate(152 437.3333333333333 394.6666666666667)" /><rect x="442.58333333333337" y="396.58333333333337" width="14.166666666666666" height="14.166666666666666" transform="rotate(156 458.6666666666667 394.6666666666667)" /><rect x="460.5185185185185" y="399.1851851851852" width="14.962962962962962" height="14.962962962962962" transform="rotate(160 480 394.6666666666667)" /><rect x="478.4351851851852" y="401.76851851851853" width="15.796296296296298" height="15.796296296296298" transform="rotate(164 501.3333333333333 394.6666666666667)" /><rect x="64.32407407407408" y="355.6574074074074" width="6.685185185185184" height="6.685185185185184" transform="rotate(76 10.666666666666666 416)" /><rect x="82.64814814814815" y="358.64814814814815" width="6.703703703703703" height="6.703703703703703" transform="rotate(80 32 416)" /><rect x="100.9537037037037" y="361.6203703703704" width="6.759259259259258" height="6.759259259259258" transform="rotate(84 53.33333333333333 416)" /><rect x="119.24074074074076" y="364.5740740740741" width="6.851851851851851" height="6.851851851851851" transform="rotate(88 74.66666666666667 416)" /><rect x="137.50925925925927" y="367.50925925925924" width="6.981481481481481" height="6.981481481481481" transform="rotate(92 96 416)" /><rect x="155.75925925925924" y="370.4259259259259" width="7.148148148148147" height="7.148148148148147" transform="rotate(96 117.33333333333333 416)" /><rect x="173.99074074074073" y="373.3240740740741" width="7.351851851851851" height="7.351851851851851" transform="rotate(100 138.66666666666666 416)" /><rect x="192.20370370370367" y="376.2037037037037" width="7.592592592592592" height="7.592592592592592" transform="rotate(104 159.99999999999997 416)" /><rect x="210.39814814814812" y="379.06481481481484" width="7.8703703703703685" height="7.8703703703703685" transform="rotate(108 181.33333333333331 416)" /><rect x="228.57407407407408" y="381.9074074074074" width="8.185185185185183" height="8.185185185185183" transform="rotate(112 202.66666666666666 416)" /><rect x="246.73148148148147" y="384.73148148148147" width="8.537037037037036" height="8.537037037037036" transform="rotate(116 223.99999999999997 416)" /><rect x="264.8703703703703" y="387.53703703703707" width="8.925925925925924" height="8.925925925925924" transform="rotate(120 245.33333333333331 416)" /><rect x="282.99074074074076" y="390.3240740740741" width="9.351851851851851" height="9.351851851851851" transform="rotate(124 266.6666666666667 416)" /><rect x="301.0925925925926" y="393.0925925925926" width="9.814814814814813" height="9.814814814814813" transform="rotate(128 288 416)" /><rect x="319.1759259259259" y="395.8425925925926" width="10.314814814814813" height="10.314814814814813" transform="rotate(132 309.3333333333333 416)" /><rect x="337.24074074074076" y="398.5740740740741" width="10.851851851851851" height="10.851851851851851" transform="rotate(136 330.6666666666667 416)" /><rect x="355.28703703703707" y="401.28703703703707" width="11.425925925925924" height="11.425925925925924" transform="rotate(140 352 416)" /><rect x="373.3148148148148" y="403.98148148148147" width="12.037037037037038" height="12.037037037037038" transform="rotate(144 373.3333333333333 416)" /><rect x="391.3240740740741" y="406.6574074074074" width="12.685185185185185" height="12.685185185185185" transform="rotate(148 394.6666666666667 416)" /><rect x="409.31481481481484" y="409.31481481481484" width="13.370370370370368" height="13.370370370370368" transform="rotate(152 416 416)" /><rect x="427.287037037037" y="411.9537037037037" width="14.092592592592592" height="14.092592592592592" transform="rotate(156 437.3333333333333 416)" /><rect x="445.24074074074076" y="414.5740740740741" width="14.851851851851851" height="14.851851851851851" transform="rotate(160 458.6666666666667 416)" /><rect x="463.17592592592587" y="417.1759259259259" width="15.648148148148147" height="15.648148148148147" transform="rotate(164 480 416)" /><rect x="481.0925925925926" y="419.75925925925924" width="16.48148148148148" height="16.48148148148148" transform="rotate(168 501.3333333333333 416)" /><rect x="66.96296296296296" y="373.6296296296296" width="7.407407407407408" height="7.407407407407408" transform="rotate(80 10.666666666666666 437.3333333333333)" /><rect x="85.28703703703704" y="376.6203703703703" width="7.425925925925927" height="7.425925925925927" transform="rotate(84 32 437.3333333333333)" /><rect x="103.59259259259258" y="379.59259259259255" width="7.481481481481482" height="7.481481481481482" transform="rotate(88 53.33333333333333 437.3333333333333)" /><rect x="121.87962962962962" y="382.5462962962963" width="7.574074074074074" height="7.574074074074074" transform="rotate(92 74.66666666666667 437.3333333333333)" /><rect x="140.14814814814815" y="385.48148148148147" width="7.703703703703704" height="7.703703703703704" transform="rotate(96 96 437.3333333333333)" /><rect x="158.39814814814815" y="388.39814814814815" width="7.870370370370371" height="7.870370370370371" transform="rotate(100 117.33333333333333 437.3333333333333)" /><rect x="176.62962962962962" y="391.2962962962963" width="8.074074074074074" height="8.074074074074074" transform="rotate(104 138.66666666666666 437.3333333333333)" /><rect x="194.84259259259255" y="394.1759259259259" width="8.314814814814815" height="8.314814814814815" transform="rotate(108 159.99999999999997 437.3333333333333)" /><rect x="213.037037037037" y="397.037037037037" width="8.592592592592592" height="8.592592592592592" transform="rotate(112 181.33333333333331 437.3333333333333)" /><rect x="231.21296296296293" y="399.8796296296296" width="8.907407407407408" height="8.907407407407408" transform="rotate(116 202.66666666666666 437.3333333333333)" /><rect x="249.37037037037032" y="402.7037037037037" width="9.25925925925926" height="9.25925925925926" transform="rotate(120 223.99999999999997 437.3333333333333)" /><rect x="267.50925925925924" y="405.50925925925924" width="9.648148148148149" height="9.648148148148149" transform="rotate(124 245.33333333333331 437.3333333333333)" /><rect x="285.6296296296297" y="408.2962962962963" width="10.074074074074074" height="10.074074074074074" transform="rotate(128 266.6666666666667 437.3333333333333)" /><rect x="303.73148148148147" y="411.0648148148148" width="10.537037037037038" height="10.537037037037038" transform="rotate(132 288 437.3333333333333)" /><rect x="321.8148148148148" y="413.8148148148148" width="11.037037037037038" height="11.037037037037038" transform="rotate(136 309.3333333333333 437.3333333333333)" /><rect x="339.8796296296297" y="416.5462962962963" width="11.574074074074076" height="11.574074074074076" transform="rotate(140 330.6666666666667 437.3333333333333)" /><rect x="357.9259259259259" y="419.25925925925924" width="12.148148148148147" height="12.148148148148147" transform="rotate(144 352 437.3333333333333)" /><rect x="375.9537037037037" y="421.9537037037037" width="12.759259259259261" height="12.759259259259261" transform="rotate(148 373.3333333333333 437.3333333333333)" /><rect x="393.962962962963" y="424.6296296296296" width="13.407407407407408" height="13.407407407407408" transform="rotate(152 394.6666666666667 437.3333333333333)" /><rect x="411.9537037037037" y="427.287037037037" width="14.092592592592592" height="14.092592592592592" transform="rotate(156 416 437.3333333333333)" /><rect x="429.9259259259259" y="429.9259259259259" width="14.814814814814817" height="14.814814814814817" transform="rotate(160 437.3333333333333 437.3333333333333)" /><rect x="447.8796296296297" y="432.5462962962963" width="15.574074074074076" height="15.574074074074076" transform="rotate(164 458.6666666666667 437.3333333333333)" /><rect x="465.8148148148148" y="435.14814814814815" width="16.37037037037037" height="16.37037037037037" transform="rotate(168 480 437.3333333333333)" /><rect x="483.7314814814815" y="437.73148148148147" width="17.203703703703702" height="17.203703703703702" transform="rotate(172 501.3333333333333 437.3333333333333)" /><rect x="69.58333333333333" y="391.58333333333337" width="8.166666666666666" height="8.166666666666666" transform="rotate(84 10.666666666666666 458.6666666666667)" /><rect x="87.9074074074074" y="394.5740740740741" width="8.185185185185185" height="8.185185185185185" transform="rotate(88 32 458.6666666666667)" /><rect x="106.21296296296296" y="397.5462962962963" width="8.24074074074074" height="8.24074074074074" transform="rotate(92 53.33333333333333 458.6666666666667)" /><rect x="124.5" y="400.5" width="8.333333333333332" height="8.333333333333332" transform="rotate(96 74.66666666666667 458.6666666666667)" /><rect x="142.76851851851853" y="403.4351851851852" width="8.462962962962962" height="8.462962962962962" transform="rotate(100 96 458.6666666666667)" /><rect x="161.01851851851853" y="406.35185185185185" width="8.62962962962963" height="8.62962962962963" transform="rotate(104 117.33333333333333 458.6666666666667)" /><rect x="179.25" y="409.25" width="8.833333333333332" height="8.833333333333332" transform="rotate(108 138.66666666666666 458.6666666666667)" /><rect x="197.46296296296293" y="412.1296296296297" width="9.074074074074073" height="9.074074074074073" transform="rotate(112 159.99999999999997 458.6666666666667)" /><rect x="215.6574074074074" y="414.99074074074076" width="9.351851851851851" height="9.351851851851851" transform="rotate(116 181.33333333333331 458.6666666666667)" /><rect x="233.83333333333331" y="417.83333333333337" width="9.666666666666666" height="9.666666666666666" transform="rotate(120 202.66666666666666 458.6666666666667)" /><rect x="251.9907407407407" y="420.65740740740745" width="10.018518518518519" height="10.018518518518519" transform="rotate(124 223.99999999999997 458.6666666666667)" /><rect x="270.1296296296296" y="423.462962962963" width="10.407407407407407" height="10.407407407407407" transform="rotate(128 245.33333333333331 458.6666666666667)" /><rect x="288.25" y="426.25" width="10.833333333333332" height="10.833333333333332" transform="rotate(132 266.6666666666667 458.6666666666667)" /><rect x="306.35185185185185" y="429.01851851851853" width="11.296296296296294" height="11.296296296296294" transform="rotate(136 288 458.6666666666667)" /><rect x="324.43518518518516" y="431.76851851851853" width="11.796296296296298" height="11.796296296296298" transform="rotate(140 309.3333333333333 458.6666666666667)" /><rect x="342.5" y="434.5" width="12.333333333333332" height="12.333333333333332" transform="rotate(144 330.6666666666667 458.6666666666667)" /><rect x="360.5462962962963" y="437.212962962963" width="12.907407407407407" height="12.907407407407407" transform="rotate(148 352 458.6666666666667)" /><rect x="378.5740740740741" y="439.90740740740745" width="13.518518518518519" height="13.518518518518519" transform="rotate(152 373.3333333333333 458.6666666666667)" /><rect x="396.58333333333337" y="442.58333333333337" width="14.166666666666666" height="14.166666666666666" transform="rotate(156 394.6666666666667 458.6666666666667)" /><rect x="414.5740740740741" y="445.24074074074076" width="14.851851851851851" height="14.851851851851851" transform="rotate(160 416 458.6666666666667)" /><rect x="432.5462962962963" y="447.8796296296297" width="15.574074074074076" height="15.574074074074076" transform="rotate(164 437.3333333333333 458.6666666666667)" /><rect x="450.5" y="450.5" width="16.333333333333332" height="16.333333333333332" transform="rotate(168 458.6666666666667 458.6666666666667)" /><rect x="468.4351851851852" y="453.10185185185185" width="17.129629629629626" height="17.129629629629626" transform="rotate(172 480 458.6666666666667)" /><rect x="486.35185185185185" y="455.6851851851852" width="17.962962962962962" height="17.962962962962962" transform="rotate(176 501.3333333333333 458.6666666666667)" /><rect x="72.18518518518519" y="409.51851851851853" width="8.962962962962962" height="8.962962962962962" transform="rotate(88 10.666666666666666 480)" /><rect x="90.50925925925927" y="412.50925925925924" width="8.981481481481481" height="8.981481481481481" transform="rotate(92 32 480)" /><rect x="108.81481481481481" y="415.48148148148147" width="9.037037037037035" height="9.037037037037035" transform="rotate(96 53.33333333333333 480)" /><rect x="127.10185185185185" y="418.43518518518516" width="9.129629629629628" height="9.129629629629628" transform="rotate(100 74.66666666666667 480)" /><rect x="145.37037037037038" y="421.3703703703704" width="9.259259259259258" height="9.259259259259258" transform="rotate(104 96 480)" /><rect x="163.62037037037038" y="424.28703703703707" width="9.425925925925924" height="9.425925925925924" transform="rotate(108 117.33333333333333 480)" /><rect x="181.85185185185185" y="427.18518518518516" width="9.629629629629628" height="9.629629629629628" transform="rotate(112 138.66666666666666 480)" /><rect x="200.06481481481478" y="430.06481481481484" width="9.870370370370368" height="9.870370370370368" transform="rotate(116 159.99999999999997 480)" /><rect x="218.25925925925924" y="432.9259259259259" width="10.148148148148147" height="10.148148148148147" transform="rotate(120 181.33333333333331 480)" /><rect x="236.43518518518516" y="435.76851851851853" width="10.462962962962962" height="10.462962962962962" transform="rotate(124 202.66666666666666 480)" /><rect x="254.59259259259255" y="438.5925925925926" width="10.814814814814813" height="10.814814814814813" transform="rotate(128 223.99999999999997 480)" /><rect x="272.73148148148147" y="441.39814814814815" width="11.203703703703702" height="11.203703703703702" transform="rotate(132 245.33333333333331 480)" /><rect x="290.85185185185185" y="444.18518518518516" width="11.629629629629628" height="11.629629629629628" transform="rotate(136 266.6666666666667 480)" /><rect x="308.9537037037037" y="446.9537037037037" width="12.09259259259259" height="12.09259259259259" transform="rotate(140 288 480)" /><rect x="327.037037037037" y="449.7037037037037" width="12.592592592592592" height="12.592592592592592" transform="rotate(144 309.3333333333333 480)" /><rect x="345.10185185185185" y="452.4351851851852" width="13.129629629629628" height="13.129629629629628" transform="rotate(148 330.6666666666667 480)" /><rect x="363.14814814814815" y="455.14814814814815" width="13.703703703703702" height="13.703703703703702" transform="rotate(152 352 480)" /><rect x="381.1759259259259" y="457.8425925925926" width="14.314814814814813" height="14.314814814814813" transform="rotate(156 373.3333333333333 480)" /><rect x="399.1851851851852" y="460.5185185185185" width="14.962962962962962" height="14.962962962962962" transform="rotate(160 394.6666666666667 480)" /><rect x="417.1759259259259" y="463.17592592592587" width="15.648148148148147" height="15.648148148148147" transform="rotate(164 416 480)" /><rect x="435.14814814814815" y="465.8148148148148" width="16.37037037037037" height="16.37037037037037" transform="rotate(168 437.3333333333333 480)" /><rect x="453.10185185185185" y="468.4351851851852" width="17.129629629629626" height="17.129629629629626" transform="rotate(172 458.6666666666667 480)" /><rect x="471.03703703703707" y="471.03703703703707" width="17.925925925925924" height="17.925925925925924" transform="rotate(176 480 480)" /><rect x="488.9537037037037" y="473.62037037037044" width="18.75925925925926" height="18.75925925925926" transform="rotate(180 501.3333333333333 480)" /><rect x="74.76851851851852" y="427.43518518518516" width="9.796296296296298" height="9.796296296296298" transform="rotate(92 10.666666666666666 501.3333333333333)" /><rect x="93.0925925925926" y="430.4259259259259" width="9.814814814814817" height="9.814814814814817" transform="rotate(96 32 501.3333333333333)" /><rect x="111.39814814814815" y="433.39814814814815" width="9.87037037037037" height="9.87037037037037" transform="rotate(100 53.33333333333333 501.3333333333333)" /><rect x="129.6851851851852" y="436.35185185185185" width="9.962962962962964" height="9.962962962962964" transform="rotate(104 74.66666666666667 501.3333333333333)" /><rect x="147.9537037037037" y="439.287037037037" width="10.092592592592593" height="10.092592592592593" transform="rotate(108 96 501.3333333333333)" /><rect x="166.2037037037037" y="442.2037037037037" width="10.25925925925926" height="10.25925925925926" transform="rotate(112 117.33333333333333 501.3333333333333)" /><rect x="184.43518518518516" y="445.10185185185185" width="10.462962962962964" height="10.462962962962964" transform="rotate(116 138.66666666666666 501.3333333333333)" /><rect x="202.64814814814812" y="447.9814814814815" width="10.703703703703704" height="10.703703703703704" transform="rotate(120 159.99999999999997 501.3333333333333)" /><rect x="220.84259259259258" y="450.8425925925926" width="10.981481481481483" height="10.981481481481483" transform="rotate(124 181.33333333333331 501.3333333333333)" /><rect x="239.01851851851848" y="453.6851851851852" width="11.296296296296298" height="11.296296296296298" transform="rotate(128 202.66666666666666 501.3333333333333)" /><rect x="257.17592592592587" y="456.50925925925924" width="11.648148148148149" height="11.648148148148149" transform="rotate(132 223.99999999999997 501.3333333333333)" /><rect x="275.3148148148148" y="459.3148148148148" width="12.037037037037038" height="12.037037037037038" transform="rotate(136 245.33333333333331 501.3333333333333)" /><rect x="293.4351851851852" y="462.10185185185185" width="12.462962962962964" height="12.462962962962964" transform="rotate(140 266.6666666666667 501.3333333333333)" /><rect x="311.537037037037" y="464.8703703703703" width="12.925925925925926" height="12.925925925925926" transform="rotate(144 288 501.3333333333333)" /><rect x="329.6203703703703" y="467.6203703703703" width="13.425925925925927" height="13.425925925925927" transform="rotate(148 309.3333333333333 501.3333333333333)" /><rect x="347.6851851851852" y="470.35185185185185" width="13.962962962962964" height="13.962962962962964" transform="rotate(152 330.6666666666667 501.3333333333333)" /><rect x="365.73148148148147" y="473.0648148148148" width="14.537037037037038" height="14.537037037037038" transform="rotate(156 352 501.3333333333333)" /><rect x="383.75925925925924" y="475.75925925925924" width="15.148148148148149" height="15.148148148148149" transform="rotate(160 373.3333333333333 501.3333333333333)" /><rect x="401.76851851851853" y="478.4351851851852" width="15.796296296296298" height="15.796296296296298" transform="rotate(164 394.6666666666667 501.3333333333333)" /><rect x="419.75925925925924" y="481.0925925925926" width="16.48148148148148" height="16.48148148148148" transform="rotate(168 416 501.3333333333333)" /><rect x="437.73148148148147" y="483.7314814814815" width="17.203703703703702" height="17.203703703703702" transform="rotate(172 437.3333333333333 501.3333333333333)" /><rect x="455.6851851851852" y="486.35185185185185" width="17.962962962962962" height="17.962962962962962" transform="rotate(176 458.6666666666667 501.3333333333333)" /><rect x="473.62037037037044" y="488.9537037037037" width="18.75925925925926" height="18.75925925925926" transform="rotate(180 480 501.3333333333333)" /><rect x="491.53703703703695" y="491.53703703703695" width="19.592592592592595" height="19.592592592592595" transform="rotate(184 501.3333333333333 501.3333333333333)" />
</svg>
