<?xml version="1.0" encoding="UTF-8"?>
<svg xmlns="http://www.w3.org/2000/svg" id="RSSicon" viewBox="0 0 512 512" width="512" height="512">
  <defs>
    <style type="text/css">
      svg {
        background: black;
        margin: 0;
      }
      
      rect {stroke: darkorange; fill: none;}
    </style>
  </defs>
  <rect x="12.799999999999999" y="12.799999999999999" width="17.066666666666666" height="17.066666666666666" transform="rotate(0 21.333333333333332 21.333333333333332)" /><rect x="55.46666666666667" y="12.799999999999999" width="17.066666666666666" height="17.066666666666666" transform="rotate(4 64 21.333333333333332)" /><rect x="98.13333333333333" y="12.799999999999999" width="17.066666666666666" height="17.066666666666666" transform="rotate(8 106.66666666666666 21.333333333333332)" /><rect x="140.8" y="12.799999999999999" width="17.066666666666666" height="17.066666666666666" transform="rotate(12 149.33333333333334 21.333333333333332)" /><rect x="183.46666666666667" y="12.799999999999999" width="17.066666666666666" height="17.066666666666666" transform="rotate(16 192 21.333333333333332)" /><rect x="226.13333333333333" y="12.799999999999999" width="17.066666666666666" height="17.066666666666666" transform="rotate(20 234.66666666666666 21.333333333333332)" /><rect x="268.79999999999995" y="12.799999999999999" width="17.066666666666666" height="17.066666666666666" transform="rotate(24 277.3333333333333 21.333333333333332)" /><rect x="311.4666666666666" y="12.799999999999999" width="17.066666666666666" height="17.066666666666666" transform="rotate(28 319.99999999999994 21.333333333333332)" /><rect x="354.13333333333327" y="12.799999999999999" width="17.066666666666666" height="17.066666666666666" transform="rotate(32 362.66666666666663 21.333333333333332)" /><rect x="396.79999999999995" y="12.799999999999999" width="17.066666666666666" height="17.066666666666666" transform="rotate(36 405.3333333333333 21.333333333333332)" /><rect x="439.4666666666666" y="12.799999999999999" width="17.066666666666666" height="17.066666666666666" transform="rotate(40 447.99999999999994 21.333333333333332)" /><rect x="482.13333333333327" y="12.799999999999999" width="17.066666666666666" height="17.066666666666666" transform="rotate(44 490.66666666666663 21.333333333333332)" /><rect x="12.799999999999999" y="55.46666666666667" width="17.066666666666666" height="17.066666666666666" transform="rotate(4 21.333333333333332 64)" /><rect x="55.46666666666667" y="55.46666666666667" width="17.066666666666666" height="17.066666666666666" transform="rotate(8 64 64)" /><rect x="98.13333333333333" y="55.46666666666667" width="17.066666666666666" height="17.066666666666666" transform="rotate(12 106.66666666666666 64)" /><rect x="140.8" y="55.46666666666667" width="17.066666666666666" height="17.066666666666666" transform="rotate(16 149.33333333333334 64)" /><rect x="183.46666666666667" y="55.46666666666667" width="17.066666666666666" height="17.066666666666666" transform="rotate(20 192 64)" /><rect x="226.13333333333333" y="55.46666666666667" width="17.066666666666666" height="17.066666666666666" transform="rotate(24 234.66666666666666 64)" /><rect x="268.79999999999995" y="55.46666666666667" width="17.066666666666666" height="17.066666666666666" transform="rotate(28 277.3333333333333 64)" /><rect x="311.4666666666666" y="55.46666666666667" width="17.066666666666666" height="17.066666666666666" transform="rotate(32 319.99999999999994 64)" /><rect x="354.13333333333327" y="55.46666666666667" width="17.066666666666666" height="17.066666666666666" transform="rotate(36 362.66666666666663 64)" /><rect x="396.79999999999995" y="55.46666666666667" width="17.066666666666666" height="17.066666666666666" transform="rotate(40 405.3333333333333 64)" /><rect x="439.4666666666666" y="55.46666666666667" width="17.066666666666666" height="17.066666666666666" transform="rotate(44 447.99999999999994 64)" /><rect x="482.13333333333327" y="55.46666666666667" width="17.066666666666666" height="17.066666666666666" transform="rotate(48 490.66666666666663 64)" /><rect x="12.799999999999999" y="98.13333333333333" width="17.066666666666666" height="17.066666666666666" transform="rotate(8 21.333333333333332 106.66666666666666)" /><rect x="55.46666666666667" y="98.13333333333333" width="17.066666666666666" height="17.066666666666666" transform="rotate(12 64 106.66666666666666)" /><rect x="98.13333333333333" y="98.13333333333333" width="17.066666666666666" height="17.066666666666666" transform="rotate(16 106.66666666666666 106.66666666666666)" /><rect x="140.8" y="98.13333333333333" width="17.066666666666666" height="17.066666666666666" transform="rotate(20 149.33333333333334 106.66666666666666)" /><rect x="183.46666666666667" y="98.13333333333333" width="17.066666666666666" height="17.066666666666666" transform="rotate(24 192 106.66666666666666)" /><rect x="226.13333333333333" y="98.13333333333333" width="17.066666666666666" height="17.066666666666666" transform="rotate(28 234.66666666666666 106.66666666666666)" /><rect x="268.79999999999995" y="98.13333333333333" width="17.066666666666666" height="17.066666666666666" transform="rotate(32 277.3333333333333 106.66666666666666)" /><rect x="311.4666666666666" y="98.13333333333333" width="17.066666666666666" height="17.066666666666666" transform="rotate(36 319.99999999999994 106.66666666666666)" /><rect x="354.13333333333327" y="98.13333333333333" width="17.066666666666666" height="17.066666666666666" transform="rotate(40 362.66666666666663 106.66666666666666)" /><rect x="396.79999999999995" y="98.13333333333333" width="17.066666666666666" height="17.066666666666666" transform="rotate(44 405.3333333333333 106.66666666666666)" /><rect x="439.4666666666666" y="98.13333333333333" width="17.066666666666666" height="17.066666666666666" transform="rotate(48 447.99999999999994 106.66666666666666)" /><rect x="482.13333333333327" y="98.13333333333333" width="17.066666666666666" height="17.066666666666666" transform="rotate(52 490.66666666666663 106.66666666666666)" /><rect x="12.799999999999999" y="140.8" width="17.066666666666666" height="17.066666666666666" transform="rotate(12 21.333333333333332 149.33333333333334)" /><rect x="55.46666666666667" y="140.8" width="17.066666666666666" height="17.066666666666666" transform="rotate(16 64 149.33333333333334)" /><rect x="98.13333333333333" y="140.8" width="17.066666666666666" height="17.066666666666666" transform="rotate(20 106.66666666666666 149.33333333333334)" /><rect x="140.8" y="140.8" width="17.066666666666666" height="17.066666666666666" transform="rotate(24 149.33333333333334 149.33333333333334)" /><rect x="183.46666666666667" y="140.8" width="17.066666666666666" height="17.066666666666666" transform="rotate(28 192 149.33333333333334)" /><rect x="226.13333333333333" y="140.8" width="17.066666666666666" height="17.066666666666666" transform="rotate(32 234.66666666666666 149.33333333333334)" /><rect x="268.79999999999995" y="140.8" width="17.066666666666666" height="17.066666666666666" transform="rotate(36 277.3333333333333 149.33333333333334)" /><rect x="311.4666666666666" y="140.8" width="17.066666666666666" height="17.066666666666666" transform="rotate(40 319.99999999999994 149.33333333333334)" /><rect x="354.13333333333327" y="140.8" width="17.066666666666666" height="17.066666666666666" transform="rotate(44 362.66666666666663 149.33333333333334)" /><rect x="396.79999999999995" y="140.8" width="17.066666666666666" height="17.066666666666666" transform="rotate(48 405.3333333333333 149.33333333333334)" /><rect x="439.4666666666666" y="140.8" width="17.066666666666666" height="17.066666666666666" transform="rotate(52 447.99999999999994 149.33333333333334)" /><rect x="482.13333333333327" y="140.8" width="17.066666666666666" height="17.066666666666666" transform="rotate(56 490.66666666666663 149.33333333333334)" /><rect x="12.799999999999999" y="183.46666666666667" width="17.066666666666666" height="17.066666666666666" transform="rotate(16 21.333333333333332 192)" /><rect x="55.46666666666667" y="183.46666666666667" width="17.066666666666666" height="17.066666666666666" transform="rotate(20 64 192)" /><rect x="98.13333333333333" y="183.46666666666667" width="17.066666666666666" height="17.066666666666666" transform="rotate(24 106.66666666666666 192)" /><rect x="140.8" y="183.46666666666667" width="17.066666666666666" height="17.066666666666666" transform="rotate(28 149.33333333333334 192)" /><rect x="183.46666666666667" y="183.46666666666667" width="17.066666666666666" height="17.066666666666666" transform="rotate(32 192 192)" /><rect x="226.13333333333333" y="183.46666666666667" width="17.066666666666666" height="17.066666666666666" transform="rotate(36 234.66666666666666 192)" /><rect x="268.79999999999995" y="183.46666666666667" width="17.066666666666666" height="17.066666666666666" transform="rotate(40 277.3333333333333 192)" /><rect x="311.4666666666666" y="183.46666666666667" width="17.066666666666666" height="17.066666666666666" transform="rotate(44 319.99999999999994 192)" /><rect x="354.13333333333327" y="183.46666666666667" width="17.066666666666666" height="17.066666666666666" transform="rotate(48 362.66666666666663 192)" /><rect x="396.79999999999995" y="183.46666666666667" width="17.066666666666666" height="17.066666666666666" transform="rotate(52 405.3333333333333 192)" /><rect x="439.4666666666666" y="183.46666666666667" width="17.066666666666666" height="17.066666666666666" transform="rotate(56 447.99999999999994 192)" /><rect x="482.13333333333327" y="183.46666666666667" width="17.066666666666666" height="17.066666666666666" transform="rotate(60 490.66666666666663 192)" /><rect x="12.799999999999999" y="226.13333333333333" width="17.066666666666666" height="17.066666666666666" transform="rotate(20 21.333333333333332 234.66666666666666)" /><rect x="55.46666666666667" y="226.13333333333333" width="17.066666666666666" height="17.066666666666666" transform="rotate(24 64 234.66666666666666)" /><rect x="98.13333333333333" y="226.13333333333333" width="17.066666666666666" height="17.066666666666666" transform="rotate(28 106.66666666666666 234.66666666666666)" /><rect x="140.8" y="226.13333333333333" width="17.066666666666666" height="17.066666666666666" transform="rotate(32 149.33333333333334 234.66666666666666)" /><rect x="183.46666666666667" y="226.13333333333333" width="17.066666666666666" height="17.066666666666666" transform="rotate(36 192 234.66666666666666)" /><rect x="226.13333333333333" y="226.13333333333333" width="17.066666666666666" height="17.066666666666666" transform="rotate(40 234.66666666666666 234.66666666666666)" /><rect x="268.79999999999995" y="226.13333333333333" width="17.066666666666666" height="17.066666666666666" transform="rotate(44 277.3333333333333 234.66666666666666)" /><rect x="311.4666666666666" y="226.13333333333333" width="17.066666666666666" height="17.066666666666666" transform="rotate(48 319.99999999999994 234.66666666666666)" /><rect x="354.13333333333327" y="226.13333333333333" width="17.066666666666666" height="17.066666666666666" transform="rotate(52 362.66666666666663 234.66666666666666)" /><rect x="396.79999999999995" y="226.13333333333333" width="17.066666666666666" height="17.066666666666666" transform="rotate(56 405.3333333333333 234.66666666666666)" /><rect x="439.4666666666666" y="226.13333333333333" width="17.066666666666666" height="17.066666666666666" transform="rotate(60 447.99999999999994 234.66666666666666)" /><rect x="482.13333333333327" y="226.13333333333333" width="17.066666666666666" height="17.066666666666666" transform="rotate(64 490.66666666666663 234.66666666666666)" /><rect x="12.799999999999999" y="268.79999999999995" width="17.066666666666666" height="17.066666666666666" transform="rotate(24 21.333333333333332 277.3333333333333)" /><rect x="55.46666666666667" y="268.79999999999995" width="17.066666666666666" height="17.066666666666666" transform="rotate(28 64 277.3333333333333)" /><rect x="98.13333333333333" y="268.79999999999995" width="17.066666666666666" height="17.066666666666666" transform="rotate(32 106.66666666666666 277.3333333333333)" /><rect x="140.8" y="268.79999999999995" width="17.066666666666666" height="17.066666666666666" transform="rotate(36 149.33333333333334 277.3333333333333)" /><rect x="183.46666666666667" y="268.79999999999995" width="17.066666666666666" height="17.066666666666666" transform="rotate(40 192 277.3333333333333)" /><rect x="226.13333333333333" y="268.79999999999995" width="17.066666666666666" height="17.066666666666666" transform="rotate(44 234.66666666666666 277.3333333333333)" /><rect x="268.79999999999995" y="268.79999999999995" width="17.066666666666666" height="17.066666666666666" transform="rotate(48 277.3333333333333 277.3333333333333)" /><rect x="311.4666666666666" y="268.79999999999995" width="17.066666666666666" height="17.066666666666666" transform="rotate(52 319.99999999999994 277.3333333333333)" /><rect x="354.13333333333327" y="268.79999999999995" width="17.066666666666666" height="17.066666666666666" transform="rotate(56 362.66666666666663 277.3333333333333)" /><rect x="396.79999999999995" y="268.79999999999995" width="17.066666666666666" height="17.066666666666666" transform="rotate(60 405.3333333333333 277.3333333333333)" /><rect x="439.4666666666666" y="268.79999999999995" width="17.066666666666666" height="17.066666666666666" transform="rotate(64 447.99999999999994 277.3333333333333)" /><rect x="482.13333333333327" y="268.79999999999995" width="17.066666666666666" height="17.066666666666666" transform="rotate(68 490.66666666666663 277.3333333333333)" /><rect x="12.799999999999999" y="311.4666666666666" width="17.066666666666666" height="17.066666666666666" transform="rotate(28 21.333333333333332 319.99999999999994)" /><rect x="55.46666666666667" y="311.4666666666666" width="17.066666666666666" height="17.066666666666666" transform="rotate(32 64 319.99999999999994)" /><rect x="98.13333333333333" y="311.4666666666666" width="17.066666666666666" height="17.066666666666666" transform="rotate(36 106.66666666666666 319.99999999999994)" /><rect x="140.8" y="311.4666666666666" width="17.066666666666666" height="17.066666666666666" transform="rotate(40 149.33333333333334 319.99999999999994)" /><rect x="183.46666666666667" y="311.4666666666666" width="17.066666666666666" height="17.066666666666666" transform="rotate(44 192 319.99999999999994)" /><rect x="226.13333333333333" y="311.4666666666666" width="17.066666666666666" height="17.066666666666666" transform="rotate(48 234.66666666666666 319.99999999999994)" /><rect x="268.79999999999995" y="311.4666666666666" width="17.066666666666666" height="17.066666666666666" transform="rotate(52 277.3333333333333 319.99999999999994)" /><rect x="311.4666666666666" y="311.4666666666666" width="17.066666666666666" height="17.066666666666666" transform="rotate(56 319.99999999999994 319.99999999999994)" /><rect x="354.13333333333327" y="311.4666666666666" width="17.066666666666666" height="17.066666666666666" transform="rotate(60 362.66666666666663 319.99999999999994)" /><rect x="396.79999999999995" y="311.4666666666666" width="17.066666666666666" height="17.066666666666666" transform="rotate(64 405.3333333333333 319.99999999999994)" /><rect x="439.4666666666666" y="311.4666666666666" width="17.066666666666666" height="17.066666666666666" transform="rotate(68 447.99999999999994 319.99999999999994)" /><rect x="482.13333333333327" y="311.4666666666666" width="17.066666666666666" height="17.066666666666666" transform="rotate(72 490.66666666666663 319.99999999999994)" /><rect x="12.799999999999999" y="354.13333333333327" width="17.066666666666666" height="17.066666666666666" transform="rotate(32 21.333333333333332 362.66666666666663)" /><rect x="55.46666666666667" y="354.13333333333327" width="17.066666666666666" height="17.066666666666666" transform="rotate(36 64 362.66666666666663)" /><rect x="98.13333333333333" y="354.13333333333327" width="17.066666666666666" height="17.066666666666666" transform="rotate(40 106.66666666666666 362.66666666666663)" /><rect x="140.8" y="354.13333333333327" width="17.066666666666666" height="17.066666666666666" transform="rotate(44 149.33333333333334 362.66666666666663)" /><rect x="183.46666666666667" y="354.13333333333327" width="17.066666666666666" height="17.066666666666666" transform="rotate(48 192 362.66666666666663)" /><rect x="226.13333333333333" y="354.13333333333327" width="17.066666666666666" height="17.066666666666666" transform="rotate(52 234.66666666666666 362.66666666666663)" /><rect x="268.79999999999995" y="354.13333333333327" width="17.066666666666666" height="17.066666666666666" transform="rotate(56 277.3333333333333 362.66666666666663)" /><rect x="311.4666666666666" y="354.13333333333327" width="17.066666666666666" height="17.066666666666666" transform="rotate(60 319.99999999999994 362.66666666666663)" /><rect x="354.13333333333327" y="354.13333333333327" width="17.066666666666666" height="17.066666666666666" transform="rotate(64 362.66666666666663 362.66666666666663)" /><rect x="396.79999999999995" y="354.13333333333327" width="17.066666666666666" height="17.066666666666666" transform="rotate(68 405.3333333333333 362.66666666666663)" /><rect x="439.4666666666666" y="354.13333333333327" width="17.066666666666666" height="17.066666666666666" transform="rotate(72 447.99999999999994 362.66666666666663)" /><rect x="482.13333333333327" y="354.13333333333327" width="17.066666666666666" height="17.066666666666666" transform="rotate(76 490.66666666666663 362.66666666666663)" /><rect x="12.799999999999999" y="396.79999999999995" width="17.066666666666666" height="17.066666666666666" transform="rotate(36 21.333333333333332 405.3333333333333)" /><rect x="55.46666666666667" y="396.79999999999995" width="17.066666666666666" height="17.066666666666666" transform="rotate(40 64 405.3333333333333)" /><rect x="98.13333333333333" y="396.79999999999995" width="17.066666666666666" height="17.066666666666666" transform="rotate(44 106.66666666666666 405.3333333333333)" /><rect x="140.8" y="396.79999999999995" width="17.066666666666666" height="17.066666666666666" transform="rotate(48 149.33333333333334 405.3333333333333)" /><rect x="183.46666666666667" y="396.79999999999995" width="17.066666666666666" height="17.066666666666666" transform="rotate(52 192 405.3333333333333)" /><rect x="226.13333333333333" y="396.79999999999995" width="17.066666666666666" height="17.066666666666666" transform="rotate(56 234.66666666666666 405.3333333333333)" /><rect x="268.79999999999995" y="396.79999999999995" width="17.066666666666666" height="17.066666666666666" transform="rotate(60 277.3333333333333 405.3333333333333)" /><rect x="311.4666666666666" y="396.79999999999995" width="17.066666666666666" height="17.066666666666666" transform="rotate(64 319.99999999999994 405.3333333333333)" /><rect x="354.13333333333327" y="396.79999999999995" width="17.066666666666666" height="17.066666666666666" transform="rotate(68 362.66666666666663 405.3333333333333)" /><rect x="396.79999999999995" y="396.79999999999995" width="17.066666666666666" height="17.066666666666666" transform="rotate(72 405.3333333333333 405.3333333333333)" /><rect x="439.4666666666666" y="396.79999999999995" width="17.066666666666666" height="17.066666666666666" transform="rotate(76 447.99999999999994 405.3333333333333)" /><rect x="482.13333333333327" y="396.79999999999995" width="17.066666666666666" height="17.066666666666666" transform="rotate(80 490.66666666666663 405.3333333333333)" /><rect x="12.799999999999999" y="439.4666666666666" width="17.066666666666666" height="17.066666666666666" transform="rotate(40 21.333333333333332 447.99999999999994)" /><rect x="55.46666666666667" y="439.4666666666666" width="17.066666666666666" height="17.066666666666666" transform="rotate(44 64 447.99999999999994)" /><rect x="98.13333333333333" y="439.4666666666666" width="17.066666666666666" height="17.066666666666666" transform="rotate(48 106.66666666666666 447.99999999999994)" /><rect x="140.8" y="439.4666666666666" width="17.066666666666666" height="17.066666666666666" transform="rotate(52 149.33333333333334 447.99999999999994)" /><rect x="183.46666666666667" y="439.4666666666666" width="17.066666666666666" height="17.066666666666666" transform="rotate(56 192 447.99999999999994)" /><rect x="226.13333333333333" y="439.4666666666666" width="17.066666666666666" height="17.066666666666666" transform="rotate(60 234.66666666666666 447.99999999999994)" /><rect x="268.79999999999995" y="439.4666666666666" width="17.066666666666666" height="17.066666666666666" transform="rotate(64 277.3333333333333 447.99999999999994)" /><rect x="311.4666666666666" y="439.4666666666666" width="17.066666666666666" height="17.066666666666666" transform="rotate(68 319.99999999999994 447.99999999999994)" /><rect x="354.13333333333327" y="439.4666666666666" width="17.066666666666666" height="17.066666666666666" transform="rotate(72 362.66666666666663 447.99999999999994)" /><rect x="396.79999999999995" y="439.4666666666666" width="17.066666666666666" height="17.066666666666666" transform="rotate(76 405.3333333333333 447.99999999999994)" /><rect x="439.4666666666666" y="439.4666666666666" width="17.066666666666666" height="17.066666666666666" transform="rotate(80 447.99999999999994 447.99999999999994)" /><rect x="482.13333333333327" y="439.4666666666666" width="17.066666666666666" height="17.066666666666666" transform="rotate(84 490.66666666666663 447.99999999999994)" /><rect x="12.799999999999999" y="482.13333333333327" width="17.066666666666666" height="17.066666666666666" transform="rotate(44 21.333333333333332 490.66666666666663)" /><rect x="55.46666666666667" y="482.13333333333327" width="17.066666666666666" height="17.066666666666666" transform="rotate(48 64 490.66666666666663)" /><rect x="98.13333333333333" y="482.13333333333327" width="17.066666666666666" height="17.066666666666666" transform="rotate(52 106.66666666666666 490.66666666666663)" /><rect x="140.8" y="482.13333333333327" width="17.066666666666666" height="17.066666666666666" transform="rotate(56 149.33333333333334 490.66666666666663)" /><rect x="183.46666666666667" y="482.13333333333327" width="17.066666666666666" height="17.066666666666666" transform="rotate(60 192 490.66666666666663)" /><rect x="226.13333333333333" y="482.13333333333327" width="17.066666666666666" height="17.066666666666666" transform="rotate(64 234.66666666666666 490.66666666666663)" /><rect x="268.79999999999995" y="482.13333333333327" width="17.066666666666666" height="17.066666666666666" transform="rotate(68 277.3333333333333 490.66666666666663)" /><rect x="311.4666666666666" y="482.13333333333327" width="17.066666666666666" height="17.066666666666666" transform="rotate(72 319.99999999999994 490.66666666666663)" /><rect x="354.13333333333327" y="482.13333333333327" width="17.066666666666666" height="17.066666666666666" transform="rotate(76 362.66666666666663 490.66666666666663)" /><rect x="396.79999999999995" y="482.13333333333327" width="17.066666666666666" height="17.066666666666666" transform="rotate(80 405.3333333333333 490.66666666666663)" /><rect x="439.4666666666666" y="482.13333333333327" width="17.066666666666666" height="17.066666666666666" transform="rotate(84 447.99999999999994 490.66666666666663)" /><rect x="482.13333333333327" y="482.13333333333327" width="17.066666666666666" height="17.066666666666666" transform="rotate(88 490.66666666666663 490.66666666666663)" />
</svg>
