<?xml version="1.0" encoding="UTF-8"?>
<svg xmlns="http://www.w3.org/2000/svg" id="RSSicon" viewBox="0 0 512 512" width="512" height="512">
  <defs>
    <style type="text/css">
      svg {
        background: black;
        margin: 0;
      }
      
      polygon {stroke: darkorange; fill: none;}
    </style>
  </defs>
  <polygon points="13.659389201373607 13.659389201373607 26.285200067354367 16.381466599312297 34.8757001075978 34.8757001075978 11.826554207927785 30.84011245873888"/><polygon points="48.897636511910434 6.2309698452437665 81.32831914295694 4.005014190376386 76.26570383828243 33.59903717161577 48.864558923128584 36.46877441020475"/><polygon points="98.2887156346747 12.95538230134138 120.03172272228322 7.968277277716767 116.01068470160378 30.677351368270457 97.40407724784211 30.595922752157882"/><polygon points="143.24378095177718 15.243780951777186 162.1185457564131 8.548120910253555 155.32083573408852 27.320835734088522 141.62481518938958 29.041851477277106"/><polygon points="182.45149047589013 11.784823809223445 199.97974097645857 13.353592356874774 200.1724782237011 29.505811557034438 177.44461717601348 35.88871615731984"/><polygon points="229.75939974068 16.426066407346685 251.69844942893724 4.301550571062766 243.87263070561337 30.539297372280046 224.66416772047367 31.335832279526322"/><polygon points="267.3968521934863 11.396852193486314 284.6962867489716 13.970379917695045 292.32075474628505 36.32075474628504 264.7602737503334 33.90639291633326"/><polygon points="304.9928839851607 6.326217318494093 332.4826182784185 8.85071505491475 329.30250544884154 30.635838782174922 308.0619960430558 33.271337290277465"/><polygon points="356.47184281903793 15.13850948570462 378.0031615486665 5.996838451333462 377.20020851903826 35.866875185704934 347.8779234037362 36.122076596263774"/><polygon points="398.8000888615009 14.800088861500903 417.1037042912681 9.562962375398516 415.0700593105646 31.070059310564627 393.14278856368884 33.523878102977804"/><polygon points="433.4846631747158 6.817996508049205 465.36911408271897 3.9642192506143274 465.1722010571383 38.50553439047168 432.3489611735987 36.98437215973459"/><polygon points="480.9605277346094 11.627194401276078 502.0353574067589 9.964642593241068 495.7608970842845 26.427563750951244 484.76273368616773 27.2372663138322"/><polygon points="15.684329814989496 58.35099648165617 35.30034748202922 50.03298585130412 31.042508659980818 73.70917532664748 11.601337697930914 73.73199563540241"/><polygon points="56.615189908825954 56.615189908825954 80.47578531295437 47.52421468704562 78.40393225669969 78.40393225669969 53.10546834158558 74.89453165841442"/><polygon points="97.7461133062919 55.07944663962524 117.22283777833027 53.443828888336384 117.07353809571947 74.40687142905281 91.37722305550119 79.28944361116547"/><polygon points="140.30411748457158 54.97078415123825 159.21987327810163 54.11346005523172 158.95721678871692 73.62388345538358 137.33042878485352 76.0029045484798"/><polygon points="186.26040065770783 58.26040065770784 203.8129012564316 52.18709874356841 207.48211858414498 79.48211858414498 186.4656307675059 69.53436923249409"/><polygon points="229.65861965632098 58.99195298965434 248.22520028013247 50.441466386534195 251.99614547103187 81.32947880436521 229.53581308440152 69.13085358226513"/><polygon points="271.8639670039102 58.53063367057687 285.85211267497766 55.48122065835567 287.09267336491257 73.75934003157923 266.6821258986934 74.6512074346399"/><polygon points="303.4912858179303 47.491285817930375 329.796542241558 54.20345775844197 328.4867503192228 72.4867503192228 307.9199406780032 76.08005932199674"/><polygon points="347.13579670846485 48.46913004179825 368.14735392548516 58.51931274118147 375.06282944108835 76.3961627744217 352.77026175253377 73.89640491413283"/><polygon points="395.6167599674115 54.28342663407818 419.7574647138173 49.57586861951601 412.87899000731204 71.54565667397871 398.8411507485952 70.49218258473809"/><polygon points="434.32970795382533 50.329707953825384 459.0913694289647 52.90863057103524 465.31058520727555 81.31058520727562 433.26528895839164 78.73471104160832"/><polygon points="473.8717788051663 47.205112138499686 496.0200589269701 58.646607739696535 496.9967124531416 70.33004578647494 477.0307374740315 77.6359291926351"/><polygon points="11.478861147484707 96.81219448081804 26.984440678567257 101.01555932143273 37.67657757489356 123.00991090822689 6.734556821792037 121.26544317820796"/><polygon points="48.724116634162336 91.390783300829 78.52990379308446 92.1367628735822 72.41743362149903 115.08410028816569 53.69849711747988 116.96816954918677"/><polygon points="101.09355707133341 101.09355707133341 119.15508663619057 94.17824669714274 120.04096642420667 120.04096642420667 100.66111383114281 112.6722195021905"/><polygon points="139.135971907935 96.4693052412683 161.31721216537758 94.68278783462242 158.45627124051472 115.78960457384805 139.721766253588 116.27823374641201"/><polygon points="182.72986554981065 97.39653221647731 208.99700773545987 89.66965893120677 202.945040235565 117.61170690223165 176.64919997949607 122.0174666871706"/><polygon points="226.65899020032953 98.65899020032954 249.18654926723192 92.14678406610139 250.86160732732554 122.86160732732554 226.60789390790612 114.72543942542718"/><polygon points="266.0521396629433 95.38547299627668 288.8264229518529 95.17357704814705 289.0341290257278 118.36746235906115 266.07169474291413 117.92830525708584"/><polygon points="308.72190325424543 95.38856992091215 335.43460810887683 91.23205855778976 336.66262307724 123.32928974390677 313.4642272213542 113.20243944531244"/><polygon points="348.10236003946454 92.10236003946457 367.5690452528579 101.76428808047537 378.5679103555018 122.56791035550184 352.0510958270247 117.2822375063086"/><polygon points="397.6655696467119 98.99890298004526 415.60358642808865 96.3964135719113 418.54209024306334 119.87542357639668 398.0749335280623 113.92506647193768"/><polygon points="439.6351047553838 98.30177142205052 460.03800787755017 94.62865878911643 457.9611047848882 116.6277714515549 436.2792810074755 118.38738565919112"/><polygon points="474.34790905954196 90.34790905954199 503.23080684538655 94.1025264879467 505.3673161947981 121.36731619479812 483.98705792886545 113.34627540446786"/><polygon points="16.174301908013767 144.17430190801377 33.26922914060682 137.39743752605986 32.21762107975336 160.21762107975337 8.925105220869831 161.74156144579683"/><polygon points="48.973119937504954 134.3064532708383 77.71374482806078 135.61958850527256 70.44551740119344 155.77885073452677 49.67238269608103 163.6609506372523"/><polygon points="97.30982816726402 139.9764948339307 113.69126632745754 142.30873367254244 123.42805955603475 166.09472622270144 101.10597217732115 154.89402782267885"/><polygon points="141.79965599542442 141.79965599542442 155.10314865313003 143.56351801353665 156.22464186551386 156.22464186551386 137.34750932889878 161.3191573377679"/><polygon points="175.42393909406803 132.75727242740138 201.53242652204304 139.8009068112903 204.9893998590081 162.32273319234145 179.3024790516628 162.03085428167054"/><polygon points="222.7361086278108 137.4027752944775 240.31636465278018 143.68363534721982 241.12346073659768 155.79012740326436 223.0398452813893 160.9601547186107"/><polygon points="266.7607216472789 138.76072164727896 285.4326721155221 141.23399455114452 284.91918228024605 156.9191822802461 271.03648076395575 155.6301859027109"/><polygon points="312.552721990307 141.8860553236404 325.2196259286154 144.11370740471787 331.2946009189762 160.6279342523096 313.4712072781264 155.86212605520686"/><polygon points="346.35928718315995 133.02595384982666 373.1951500053448 138.80484999465517 371.7537745862927 158.42044125295942 354.5507817542889 157.4492182457111"/><polygon points="394.2081265640904 138.20812656409038 413.87543761985916 140.7912290468075 420.1507206582943 164.1507206582943 393.05782674103995 161.60883992562674"/><polygon points="440.99763582422315 142.33096915755655 455.70651314688286 141.6268201864504 464.7577786569405 166.09111199027387 440.24644794953844 157.08688538379482"/><polygon points="480.7134583856079 139.38012505227462 506.91707809410025 133.0829219058997 500.0656530954786 158.7323197621453 479.3825981189434 160.61740188105657"/><polygon points="10.694811601822233 181.3614782684889 31.65858122019753 181.6747521131358 37.022088825352974 207.68875549201965 9.404793038368286 203.92854029496505"/><polygon points="54.95896751527331 182.95896751527332 72.59444345954446 183.40555654045554 72.76512942642319 200.7651294264232 59.09778741471846 196.90221258528155"/><polygon points="96.55665361071235 181.8899869440457 117.54027050427264 181.126396162394 117.88692807480474 203.2202614081381 99.56759940790283 199.09906725876382"/><polygon points="138.84502661795779 181.51169328462444 161.51154800983957 179.82178532349377 156.70675520940995 199.3734218760766 139.8880377248778 201.44529560845555"/><polygon points="185.54390377550493 185.54390377550493 202.79049828446006 181.20950171553994 207.07822954621096 207.07822954621096 178.82621756327927 205.17378243672073"/><polygon points="229.88353779225116 187.2168711255845 248.72653453719 177.94013212947667 250.63922875309768 207.97256208643103 227.94688306724242 198.71978359942423"/><polygon points="268.07946903852576 182.74613570519242 285.2613913970003 184.07194193633302 284.72310249018926 199.38976915685595 268.21808353202357 201.11524980130977"/><polygon points="306.5905323818724 178.5905323818724 325.88901339010675 186.1109866098932 329.15198945716014 201.15198945716023 314.3944590812077 197.6055409187923"/><polygon points="347.2247056831065 176.5580390164399 369.73893969607974 184.92772697058692 374.67455294578735 204.00788627912075 353.6091168471959 201.05754981947075"/><polygon points="398.48813853475076 185.15480520141745 414.16511298888184 183.16822034445147 413.07630239407354 199.74296906074022 390.98808245182244 206.3452508815109"/><polygon points="441.3911044439519 185.39110444395195 464.9130767945673 175.08692320543267 454.4294477433231 198.4294477433232 433.3702880898774 206.62971191012252"/><polygon points="473.59339089468426 174.92672422801763 500.15396275733616 182.51270390933047 499.59144681959066 200.924780152924 475.48473950154585 207.18192716512075"/><polygon points="14.554333076349469 227.8876664096828 29.343636032980747 226.65636396701925 33.284234812255804 246.61756814558913 15.530893904150677 240.46910609584933"/><polygon points="48.33796494438848 219.00463161105515 78.81489557061128 219.8517710960554 77.93534484407047 248.60201151073713 54.39792175580669 244.26874491085997"/><polygon points="90.51892011050525 218.51892011050523 119.04971728648245 222.28361604685085 115.9232265545024 243.9232265545024 100.43036479596621 240.9029685373671"/><polygon points="134.36818827052178 219.7015216038551 166.51517552559577 217.48482447440423 158.63880870847464 243.97214204180796 136.2848898143724 247.7151101856276"/><polygon points="177.48793154706945 220.1545982137361 209.01054003268632 217.6561266339803 198.78880011360354 241.4554667802702 178.66343019984623 248.00323646682043"/><polygon points="223.8613933366436 223.8613933366436 250.56717195730357 218.76616137602974 244.2855752122762 244.2855752122762 220.997177950103 248.3361553832303"/><polygon points="264.76147934088806 222.09481267422143 292.968873936407 219.03112606359295 282.3396187144492 239.67295204778256 265.78737955575565 246.2126204442443"/><polygon points="307.43438109652277 222.1010477631895 325.14898994161 229.51767672505656 324.9831962619367 239.64986292860345 303.8655977788938 250.80106888777283"/><polygon points="346.43355820118893 218.433558201189 370.5121564309231 226.8211769024102 368.75944268609146 240.75944268609152 357.2819359933479 240.0513973399854"/><polygon points="399.79156856269725 229.12490189603056 413.9524270529897 226.04757294701022 421.9134185317057 251.24675186503904 388.7558228959565 251.24417710404344"/><polygon points="440.65500619389866 227.32167286056537 453.33183404994173 229.33483261672487 463.943810699854 250.6104773665207 442.5708544589766 240.09581220769002"/><polygon points="479.46763504788487 223.4676350478849 505.3770383750706 219.95629495826267 506.49935482807666 250.49935482807666 482.581226196556 242.75210713677734"/><polygon points="4.59404750132277 260.59404750132273 33.09408189453897 265.5725847721277 31.384456413098512 287.3844564130985 15.05127170489758 283.6153949617691"/><polygon points="54.07391503329704 267.40724836663037 80.37653587887 260.9567974544633 78.61711458206956 291.9504479154029 54.81648651928395 286.51684681404936"/><polygon points="91.89184630901369 262.55851297568034 119.0487940029241 264.9512059970759 123.60079993198063 294.2674665986473 94.61905325483836 289.3809467451616"/><polygon points="133.5298685815075 261.52986858150746 164.13176543415315 262.5349012325135 159.09535630780184 287.0953563078018 136.47292686895963 290.193739797707"/><polygon points="184.1209657151864 269.4542990485197 199.44562327117316 269.8877100621602 200.29497965726694 285.62831299060025 176.50687317894688 292.82646015438644"/><polygon points="226.3189756682869 268.9856423349536 247.88433503019655 264.11566496980345 247.52359138598644 290.19025805265306 223.58110392602384 288.41889607397616"/><polygon points="272.218995007503 272.218995007503 293.97620981676624 260.6904568499004 293.25795637654755 293.25795637654755 266.3743041237961 288.29236254287053"/><polygon points="310.11886305137057 267.45219638470394 325.6482284096938 271.68510492363947 332.41237772498465 289.745711058318 306.62119739213387 290.7121359411994"/><polygon points="349.225714317428 263.89238098409464 378.4011756490478 261.59882435095216 379.4282838647796 294.0949505314463 352.6929084280301 287.30709157196986"/><polygon points="390.28078011565987 262.28078011565987 413.9417391612615 268.7249275054051 418.14920410712944 290.14920410712944 388.5994633284558 294.06720333821085"/><polygon points="434.6997864868746 264.03311982020796 459.10882994874214 266.2245033845911 456.89815735453095 286.2314906878643 431.49777808541 293.83555524792325"/><polygon points="483.90156580436997 270.56823247103665 500.34902687144603 267.6509731285539 498.0482148708027 284.7148815374694 477.78438838702897 290.215611612971"/><polygon points="11.115050398818367 309.781717065485 34.374996468891936 306.9583368644413 36.55452326709198 335.2211899337586 5.439999115012748 335.89333421832055"/><polygon points="56.33405765936683 312.33405765936675 80.15117519671256 303.84882480328736 71.70849733960564 327.7084973396056 47.32502876699397 336.674971233006"/><polygon points="98.45054496608503 311.7838782994183 111.49148295553881 315.1751837111278 117.64661075492384 330.9799440882571 95.13792688875694 331.52873977790966"/><polygon points="137.00267177049724 307.66933843716384 164.23816395077893 305.09516938255433 166.78119192028012 337.4478585869467 136.69135089259183 332.64198244074146"/><polygon points="175.26196212782844 303.2619621278284 201.73236538043787 310.2676346195621 199.86929871194147 327.8692987119414 184.89729712987508 327.10270287012486"/><polygon points="223.3425021202513 308.67583545358457 245.2801702286777 309.3864964379889 246.51954207056755 331.85287540390084 217.6091700411478 337.0574966255188"/><polygon points="260.49589516997094 303.16256183663756 292.18037883636083 305.1529544969724 291.3755627113592 334.0422293780258 267.0109533602501 330.3223799730832"/><polygon points="312.9563082434643 312.9563082434643 337.3166146446339 302.683385355366 326.2062328108458 326.2062328108458 311.7951819241407 328.2048180758592"/><polygon points="357.20740568978556 314.5407390231189 378.74198830824895 303.9246783584176 369.1307394541215 326.4640727874548 354.8594341109763 327.8072325556903"/><polygon points="392.19633436472617 306.8630010313928 416.1436144892703 309.18971884406295 418.47875480521043 333.14542147187706 397.0099499382223 328.32338339511097"/><polygon points="430.7813887953432 302.7813887953432 457.4896711164329 310.510328883567 454.02230328859883 326.02230328859883 439.15617825140384 328.84382174859604"/><polygon points="484.66843171221666 314.00176504555 499.8390024790856 310.8276641875809 499.7170679942487 329.050401327582 476.8763763456512 333.7902903210154"/><polygon points="5.000116516982267 346.33344985031556 28.802834600159194 355.19716539984074 29.619306736257986 370.95264006959127 11.52611742200956 372.4738825779904"/><polygon points="58.28348366704681 356.95015033371345 76.1368878714347 350.52977879523195 80.48915916796795 379.1558258346346 51.7779863799538 374.8886802867128"/><polygon points="96.1823313538469 352.18233135384685 119.36907786742772 349.9642554659056 122.99309666715878 378.99309666715874 94.59083996178273 374.74249337155055"/><polygon points="133.31271026660045 346.6460435999337 162.37373368817896 349.626266311821 163.98576626540705 377.31909959874037 134.15918687662992 377.84081312337"/><polygon points="179.8319985226727 350.49866518933936 202.40678885928858 352.2598778073781 204.3041540979563 374.97082076462294 175.19230189823043 379.4743647684362"/><polygon points="227.92262950088974 355.9226295008897 248.67903134088604 348.65430199244724 243.67058772403252 371.6705877240325 228.78012809869153 368.5532052346418"/><polygon points="265.68146302490067 351.014796358234 287.825572510458 352.1744274895419 284.54118203446865 369.87451536780196 262.7325910497554 377.26740895024454"/><polygon points="304.4417066808255 347.1083733474922 333.1985040925894 349.46816257407716 326.7794468513963 369.446113518063 306.43415964988947 376.2325070167771"/><polygon points="356.47850069137326 356.47850069137326 367.86623115620165 357.4671021771316 372.09675428196516 372.09675428196516 346.21526486987847 379.1180684634548"/><polygon points="393.2867893211801 350.6201226545134 415.3029668212853 352.69703317871466 412.5853333353821 369.9186666687154 399.0226210323226 368.97737896767734"/><polygon points="442.29341283947286 356.96007950613955 459.8187082859169 350.8479583807497 461.09029262142747 375.75695928809415 440.93030554115893 369.73636112550764"/><polygon points="484.20123758734627 356.20123758734627 506.1038321715152 347.22950116181806 500.54613063194324 372.54613063194324 484.5460617894376 368.78727154389566"/><polygon points="9.42416760334674 393.42416760334675 33.34644000230493 393.3202266643617 32.85234214685083 416.8523421468508 12.2277391645565 414.4389275021101"/><polygon points="52.04911927854573 393.38245261187905 73.78015382037145 395.55317951296183 79.26956952835887 420.6029028616922 57.06896890451972 412.2643644288136"/><polygon points="93.30561281214842 391.9722794788151 121.08937662037019 390.9106233796298 114.56870847628572 413.23537514295236 94.68560586125004 417.31439413874995"/><polygon points="139.87554907654965 395.87554907654965 156.41068290124804 398.2559837654186 158.13109802728587 414.1310980272859 137.1815223564079 417.48514431025876"/><polygon points="181.23600055418407 394.5693338875174 208.05846403833908 389.27486929499423 207.26166415456825 420.5949974879016 175.76620365496493 421.5671296783684"/><polygon points="223.84900729538242 394.5156739620491 244.56064995700328 395.4393500429967 246.23919099281164 416.90585765947833 221.46441259383582 418.53558740616415"/><polygon points="260.9242883473093 388.9242883473093 287.73549265016493 394.9311740165017 289.0190328116103 417.0190328116103 270.80572896626734 411.8609377003993"/><polygon points="311.4586001250715 396.79193345840486 336.95789268023213 388.3754406531011 331.85473044788256 417.18806378121593 303.4502814874216 421.88305184591167"/><polygon points="352.188353980006 394.8550206466727 376.52226526305924 391.4777347369407 370.618887515222 413.2855541818887 352.2247897554187 415.7752102445812"/><polygon points="390.98341591026985 390.98341591026985 419.7249141123762 390.9417525542904 415.7796962268059 415.7796962268059 394.96472722843004 415.7019394382366"/><polygon points="435.2169104444712 392.55024377780455 453.060485494422 400.2728478389113 459.7090364082564 417.04236974158977 431.9651010944957 421.36823223883755"/><polygon points="476.6871641426825 391.3538308093492 496.42557816346323 399.5744218365367 504.2022227631924 418.8688894298591 478.00625687229723 417.9937431277027"/><polygon points="16.072797021622183 442.73946368828877 26.488470276995507 442.8448630563378 36.669387978385764 463.3360546450524 15.465311597602762 453.8680217357305"/><polygon points="51.20811413947721 435.2081141394772 80.11144906155182 431.88855093844813 76.13719291807884 460.13719291807877 54.08100123894272 457.91899876105725"/><polygon points="93.02875431301258 434.36208764634586 118.76076340671685 435.90590325994975 122.83077142925961 464.1641047625929 100.9249135381857 453.74175312848087"/><polygon points="137.85583791852162 436.5225045851882 161.29473155908016 436.0386017742531 165.24979435673964 463.91646102340627 141.84147662865058 455.4918567046827"/><polygon points="186.51711764812953 442.5171176481295 197.74260465126065 442.2573953487393 200.54392072262186 456.5439207226218 183.74325400789488 456.2567459921051"/><polygon points="220.8177505396421 434.1510838729754 250.62918497817782 432.0374816884888 243.9558145950941 457.2891479284274 220.11785161585632 462.5488150508103"/><polygon points="267.33680792748453 438.00347459415116 284.43863508379104 440.8946982495422 289.29584054693936 459.962507213606 264.9779024959449 460.3554308373884"/><polygon points="315.1117447217738 443.1117447217738 332.36753684615826 435.6324631538416 331.67786407536727 459.67786407536727 315.00128019005814 452.99871980994175"/><polygon points="353.6672208787733 439.00055421210664 368.6093809280949 442.0572857385717 370.16327219337853 455.49660552671185 351.7720098424929 458.8946568241737"/><polygon points="400.0814866492688 442.74815331593544 417.06861457973594 436.2647187535973 413.7076188245713 456.3742854912379 398.8714195269719 454.46191380636134"/><polygon points="431.7206672882622 431.7206672882622 460.1919147494857 435.8080852505142 456.8861054452392 456.8861054452392 441.00764029752304 454.99235970247685"/><polygon points="479.5112651623713 436.8445984957046 507.67198021759725 430.9946864490693 501.06892489657474 458.40225822990806 478.8659312339145 459.80073543275205"/><polygon points="9.156785564223673 478.49011889755695 38.43917412804886 473.5608258719511 37.24952975445221 506.5828630877855 13.300346442506461 498.6996535574935"/><polygon points="48.643932491951915 475.3105991586185 68.86097643224288 485.80569023442376 78.61827544764745 505.2849421143141 57.66524989082269 497.00141677584395"/><polygon points="89.41555727831157 473.41555727831155 115.0077685155146 482.3255648178187 122.96762383910061 506.9676238391006 99.78794889647641 497.54538443685686"/><polygon points="140.01552700082166 481.34886033415495 164.10492402681166 475.89507597318834 154.41594976430787 495.7492830976412 140.0649197611234 499.9350802388766"/><polygon points="179.51097761058531 478.17764427725194 202.0411340328931 480.62553263377356 207.97580261030282 506.64246927696945 181.43928996936592 501.2273766973007"/><polygon points="225.12102168664327 481.12102168664325 242.26512417725007 483.06820915608324 248.29868242408588 504.2986824240858 219.87902599864287 505.45430733469044"/><polygon points="262.70544534219414 476.03877867552745 292.76516588841184 475.2348341115881 287.523644648719 500.85697798205234 267.0205239955326 500.97947600446736"/><polygon points="314.6363677985092 485.30303446517587 332.8196453955431 477.8470212711235 333.00984340096954 503.67651006763623 308.8323494636064 501.83431720306015"/><polygon points="348.96642785483215 476.96642785483215 370.42186993876385 482.9114633945694 374.27704918659333 502.27704918659333 353.37277040673695 499.9605629265963"/><polygon points="390.1983816140695 475.5317149474028 421.99464974291396 474.005350257086 418.4519849497125 503.7853182830458 396.52902117075286 499.4709788292471"/><polygon points="443.09189311337605 485.75855978004273 453.9754856036524 484.6911810630142 461.1956140925072 503.86228075917387 436.13359348903833 502.53307317762824"/><polygon points="474.07207784801244 474.07207784801244 503.6458532236873 477.68748010964595 495.7110853570965 495.7110853570965 477.65139421805804 503.6819391152752"/>
</svg>
