<?xml version="1.0" encoding="UTF-8"?>
<svg xmlns="http://www.w3.org/2000/svg" id="RSSicon" viewBox="0 0 512 512" width="512" height="512">
  <defs>
    <style type="text/css">
      svg {
        background: black;
        margin: 0;
      }
      
      polygon {stroke: darkorange; fill: none;}
    </style>
  </defs>
  <polygon points="10.666666666666666 10.666666666666666 32 10.666666666666666 32 32 10.666666666666666 32"/><polygon points="52.21846486107136 10.666666666666666 74.66666666666667 10.666666666666666 73.04844559948826 32 53.333333333333336 32"/><polygon points="99.29816762864978 10.666666666666666 117.33333333333333 10.666666666666666 113.19166088065688 32 95.99999999999999 32"/><polygon points="146.78591974356854 10.666666666666666 160 10.666666666666666 146.68812350193988 32 138.66666666666669 32"/><polygon points="165.22193930475404 10.666666666666666 202.66666666666666 10.666666666666666 197.67312479604212 32 181.33333333333334 32"/><polygon points="208.69143649670895 10.666666666666666 245.33333333333331 10.666666666666666 223.24725682059952 32 224 32"/><polygon points="297.28962439237256 10.666666666666666 288 10.666666666666666 267.40770443811647 32 266.66666666666663 32"/><polygon points="334.2337750570262 10.666666666666666 330.66666666666663 10.666666666666666 307.184717023441 32 309.33333333333326 32"/><polygon points="319.05397099188406 10.666666666666666 373.3333333333333 10.666666666666666 381.2254103650579 32 351.99999999999994 32"/><polygon points="414.7724374676949 10.666666666666666 416 10.666666666666666 400.78908874993186 32 394.66666666666663 32"/><polygon points="465.28644612724395 10.666666666666666 458.66666666666663 10.666666666666666 423.3625077073907 32 437.33333333333326 32"/><polygon points="446.1913619298519 10.666666666666666 501.3333333333333 10.666666666666666 520.5606735618269 32 479.99999999999994 32"/><polygon points="10.666666666666666 53.333333333333336 37.15155795054411 53.333333333333336 32 74.66666666666667 15.217264775331216 74.66666666666667"/><polygon points="57.70521174105465 53.333333333333336 78.63087190683991 53.333333333333336 77.97549187823144 74.66666666666667 51.92832731228215 74.66666666666667"/><polygon points="101.35087759190922 53.333333333333336 117.82637924777197 53.333333333333336 110.37917733766085 74.66666666666667 93.5230825932244 74.66666666666667"/><polygon points="136.7953322178136 53.333333333333336 155.3094676082465 53.333333333333336 169.68088264618248 74.66666666666667 140.18661422728255 74.66666666666667"/><polygon points="184.72674057221798 53.333333333333336 198.80405308513423 53.333333333333336 212.551818601792 74.66666666666667 180.4787889495186 74.66666666666667"/><polygon points="225.65561458093234 53.333333333333336 245.67108967195205 53.333333333333336 257.1474398533586 74.66666666666667 221.4755420077832 74.66666666666667"/><polygon points="264.3451368784302 53.333333333333336 288.0495182123533 53.333333333333336 293.08454597550246 74.66666666666667 263.7793276301154 74.66666666666667"/><polygon points="319.45197126124515 53.333333333333336 334.88462383172197 53.333333333333336 320.6515099655769 74.66666666666667 313.6751242509932 74.66666666666667"/><polygon points="328.1338139380321 53.333333333333336 376.4693248822746 53.333333333333336 337.896566765095 74.66666666666667 347.31973497753916 74.66666666666667"/><polygon points="440.7460175709467 53.333333333333336 417.5804905128188 53.333333333333336 455.40574213391864 74.66666666666667 398.6898125631347 74.66666666666667"/><polygon points="457.23465156797255 53.333333333333336 454.3876919249832 53.333333333333336 496.73722548223003 74.66666666666667 432.8282175955736 74.66666666666667"/><polygon points="467.04419918238295 53.333333333333336 498.39239156839744 53.333333333333336 454.44563942545517 74.66666666666667 480.34882819914355 74.66666666666667"/><polygon points="10.666666666666666 95.99999999999999 33.13645108850982 95.99999999999999 32 117.33333333333333 12.88549566821861 117.33333333333333"/><polygon points="53.26531742289626 95.99999999999999 64.320241045579 95.99999999999999 77.7334789232527 117.33333333333333 49.07436504625113 117.33333333333333"/><polygon points="94.14665749930147 95.99999999999999 107.01555412049763 95.99999999999999 122.27325734827971 117.33333333333333 94.39475969304084 117.33333333333333"/><polygon points="124.00228806341218 95.99999999999999 165.00711784783553 95.99999999999999 169.02126886595659 117.33333333333333 132.85134456590885 117.33333333333333"/><polygon points="163.04716045994022 95.99999999999999 202.20471285061248 95.99999999999999 204.4409819041396 117.33333333333333 179.9682378700498 117.33333333333333"/><polygon points="244.52188218314743 95.99999999999999 251.84693212522518 95.99999999999999 226.5452433457986 117.33333333333333 225.43642293181412 117.33333333333333"/><polygon points="296.28161676941244 95.99999999999999 295.87252991589764 95.99999999999999 269.1780005474638 117.33333333333333 259.4197737751459 117.33333333333333"/><polygon points="295.2683712576038 95.99999999999999 337.85276207284863 95.99999999999999 344.4860553827439 117.33333333333333 306.6492237107401 117.33333333333333"/><polygon points="342.8838747321057 95.99999999999999 376.1906677200889 95.99999999999999 404.916391042256 117.33333333333333 358.8727968390824 117.33333333333333"/><polygon points="420.1723682932999 95.99999999999999 406.37937445409443 95.99999999999999 408.3005221497678 117.33333333333333 384.09587707976266 117.33333333333333"/><polygon points="440.14238833757344 95.99999999999999 463.7385870146816 95.99999999999999 456.7903028568348 117.33333333333333 447.53830780422936 117.33333333333333"/><polygon points="499.7703224036821 95.99999999999999 501.2756784568378 95.99999999999999 484.9866398449593 117.33333333333333 477.94250301846193 117.33333333333333"/><polygon points="10.666666666666666 138.66666666666669 47.55700848147744 138.66666666666669 32 160 18.716335863439653 160"/><polygon points="49.38696460732086 138.66666666666669 90.02756795997755 138.66666666666669 76.67914909174807 160 47.718740210881535 160"/><polygon points="89.95742841418675 138.66666666666669 108.37951924722486 138.66666666666669 124.05102062475954 160 105.54505212035176 160"/><polygon points="127.0119263627013 138.66666666666669 174.3094143405639 138.66666666666669 146.97816170135587 160 144.04030600203777 160"/><polygon points="182.87701311852834 138.66666666666669 197.80694635655638 138.66666666666669 200.15817958747232 160 169.46021029747635 160"/><polygon points="211.78618443303142 138.66666666666669 248.44217422371582 138.66666666666669 226.47833396497828 160 232.76469224309173 160"/><polygon points="254.1891224346151 138.66666666666669 302.6665744388903 138.66666666666669 305.02322008225053 160 261.7524493425154 160"/><polygon points="342.45694480275637 138.66666666666669 322.62226202004575 138.66666666666669 330.36468654209966 160 303.86974493313124 160"/><polygon points="366.09072363475155 138.66666666666669 368.48275759192876 138.66666666666669 394.0055767129864 160 364.01520930469826 160"/><polygon points="432.6306590020359 138.66666666666669 411.19671387511937 138.66666666666669 463.4320267369351 160 403.08879112038795 160"/><polygon points="401.5105019855109 138.66666666666669 447.81446997744945 138.66666666666669 436.82870376387575 160 425.20759131919806 160"/><polygon points="514.9396278530559 138.66666666666669 496.8169626957118 138.66666666666669 526.179409722642 160 482.4223651668668 160"/><polygon points="10.666666666666666 181.33333333333334 30.62632087562804 181.33333333333334 32 202.66666666666666 28.41587484153145 202.66666666666666"/><polygon points="53.10455147730478 181.33333333333334 65.81092250605617 181.33333333333334 79.39638422994575 202.66666666666666 51.596892332852136 202.66666666666666"/><polygon points="105.43642054827505 181.33333333333334 121.72591207325812 181.33333333333334 118.41187564940665 202.66666666666666 96.86207873672184 202.66666666666666"/><polygon points="126.24534066292811 181.33333333333334 145.10627109171747 181.33333333333334 160.80649285845246 202.66666666666666 141.7359832670099 202.66666666666666"/><polygon points="167.0557645500253 181.33333333333334 186.5297783031318 181.33333333333334 222.36868406721987 202.66666666666666 190.21102071550717 202.66666666666666"/><polygon points="205.78387056083324 181.33333333333334 256.7907986922467 181.33333333333334 263.0272902063101 202.66666666666666 244.90041059689761 202.66666666666666"/><polygon points="266.13542178041695 181.33333333333334 279.94056604584915 181.33333333333334 308.2642144176224 202.66666666666666 264.59748294451344 202.66666666666666"/><polygon points="311.4739951658644 181.33333333333334 314.3903346574466 181.33333333333334 332.735951966574 202.66666666666666 313.6662190892325 202.66666666666666"/><polygon points="353.6662536423806 181.33333333333334 389.31205119439005 181.33333333333334 348.3347327657003 202.66666666666666 341.70354542932074 202.66666666666666"/><polygon points="377.42951671913124 181.33333333333334 407.4584928540154 181.33333333333334 429.69086767917423 202.66666666666666 409.36983331992036 202.66666666666666"/><polygon points="449.09581404412864 181.33333333333334 475.92884134379915 181.33333333333334 432.3881806495451 202.66666666666666 420.3383979297044 202.66666666666666"/><polygon points="502.1683653697324 181.33333333333334 519.9697126852415 181.33333333333334 485.32863475540006 202.66666666666666 489.81588761265505 202.66666666666666"/><polygon points="10.666666666666666 224 5.617579865144657 224 32 245.33333333333331 20.94327552915452 245.33333333333331"/><polygon points="52.25854408487715 224 63.65472673037508 224 72.5628263127181 245.33333333333331 43.60265950172408 245.33333333333331"/><polygon points="104.77561706777242 224 129.00193913840678 224 108.32002446445007 245.33333333333331 119.38198572231178 245.33333333333331"/><polygon points="139.5959483109604 224 138.8091114439381 224 169.62550234569065 245.33333333333331 136.43415090455096 245.33333333333331"/><polygon points="170.97963472881023 224 180.24907765790576 224 212.3944654495525 245.33333333333331 158.2824767279216 245.33333333333331"/><polygon points="245.07712869403693 224 248.19660362121704 224 225.5147203928646 245.33333333333331 210.74259139201732 245.33333333333331"/><polygon points="292.05901194400917 224 264.6875502922579 224 272.25868450098903 245.33333333333331 258.30960608899863 245.33333333333331"/><polygon points="319.55923083789435 224 344.65207302071195 224 303.1770098458724 245.33333333333331 326.8135489988892 245.33333333333331"/><polygon points="310.4836940301054 224 388.2291863133666 224 405.8867579558244 245.33333333333331 377.8621142814623 245.33333333333331"/><polygon points="378.8019020850783 224 410.16002776216436 224 437.8383764411113 245.33333333333331 416.0525286849895 245.33333333333331"/><polygon points="409.60871909391295 224 482.7081486957322 224 483.6477653431436 245.33333333333331 438.65010202803893 245.33333333333331"/><polygon points="511.2864955423486 224 503.4587668214901 224 543.8759545638384 245.33333333333331 470.0558409753474 245.33333333333331"/><polygon points="10.666666666666666 266.66666666666663 2.1081969619861667 266.66666666666663 32 288 15.927290221118165 288"/><polygon points="48.83762813046587 266.66666666666663 44.959433483002485 266.66666666666663 72.70181998660684 288 38.81764050556982 288"/><polygon points="93.44914892953587 266.66666666666663 91.56259843912078 266.66666666666663 121.03413178641432 288 92.97208998738633 288"/><polygon points="151.26677869842487 266.66666666666663 138.04142567565438 266.66666666666663 153.4675577975005 288 161.50238842021304 288"/><polygon points="167.72537869833454 266.66666666666663 226.357567304375 266.66666666666663 192.18518945939553 288 162.7971598115243 288"/><polygon points="210.25504625952055 266.66666666666663 271.24055931424977 266.66666666666663 250.5810518118543 288 238.80602090549303 288"/><polygon points="281.43275249704607 266.66666666666663 256.7921601238237 266.66666666666663 316.1018044851624 288 258.6904137340103 288"/><polygon points="298.70577548377736 266.66666666666663 343.47553151954656 266.66666666666663 342.7521924358777 288 298.415740749125 288"/><polygon points="338.10193207029073 266.66666666666663 386.4374800058108 266.66666666666663 360.6818876193019 288 372.1196002395712 288"/><polygon points="404.4788989066176 266.66666666666663 404.257927755851 266.66666666666663 447.1574658064048 288 384.8077101674211 288"/><polygon points="490.4540932088649 266.66666666666663 484.7778827233774 266.66666666666663 422.23905120204563 288 454.4986548112656 288"/><polygon points="481.9176426287355 266.66666666666663 520.8253877195871 266.66666666666663 533.9117366335327 288 499.6778241495245 288"/><polygon points="10.666666666666666 309.33333333333326 -3.454563022373648 309.33333333333326 32 330.66666666666663 -7.434205540439933 330.66666666666663"/><polygon points="53.3276609339665 309.33333333333326 43.44233089697786 309.33333333333326 72.38529824178616 330.66666666666663 23.70607116577891 330.66666666666663"/><polygon points="98.97410089876313 309.33333333333326 122.0922776997681 309.33333333333326 116.2448317103955 330.66666666666663 129.27316087952673 330.66666666666663"/><polygon points="145.79946685949776 309.33333333333326 151.48891212805944 309.33333333333326 161.97591656347765 330.66666666666663 147.00177905384237 330.66666666666663"/><polygon points="195.64909476600542 309.33333333333326 170.56897916224108 309.33333333333326 186.88411511290875 330.66666666666663 201.22069509821364 330.66666666666663"/><polygon points="213.67366747418424 309.33333333333326 261.6235792597679 309.33333333333326 232.84714418530993 330.66666666666663 200.86223645832766 330.66666666666663"/><polygon points="244.92652105217326 309.33333333333326 266.06512481928115 309.33333333333326 293.2941701137247 330.66666666666663 240.73342983209022 330.66666666666663"/><polygon points="314.4593239148447 309.33333333333326 313.8030135865146 309.33333333333326 296.0152917413113 330.66666666666663 301.4952025797114 330.66666666666663"/><polygon points="349.8002615981664 309.33333333333326 357.70344908760865 309.33333333333326 377.14606522460497 330.66666666666663 323.2944908533484 330.66666666666663"/><polygon points="374.3970529646517 309.33333333333326 393.285011039691 309.33333333333326 425.72047558291746 330.66666666666663 361.190178630642 330.66666666666663"/><polygon points="458.3586711757845 309.33333333333326 469.6276483332435 309.33333333333326 492.8293307765492 330.66666666666663 434.2293549000543 330.66666666666663"/><polygon points="429.94511688427 309.33333333333326 478.4938727761105 309.33333333333326 465.1305659057635 330.66666666666663 468.81963149545413 330.66666666666663"/><polygon points="10.666666666666666 351.99999999999994 43.98307530350549 351.99999999999994 32 373.3333333333333 -6.504054595291905 373.3333333333333"/><polygon points="54.667027268762126 351.99999999999994 101.53409055442756 351.99999999999994 78.9816327537513 373.3333333333333 46.82717241569462 373.3333333333333"/><polygon points="86.37290311302684 351.99999999999994 99.97894461657545 351.99999999999994 124.66240040069738 373.3333333333333 118.98113349778336 373.3333333333333"/><polygon points="128.356961908052 351.99999999999994 187.58139275678803 351.99999999999994 165.05110038330238 373.3333333333333 126.41148002602627 373.3333333333333"/><polygon points="174.4643521782625 351.99999999999994 240.7914530304126 351.99999999999994 185.2076787222006 373.3333333333333 178.44776988879008 373.3333333333333"/><polygon points="218.61810414330873 351.99999999999994 285.5234773133159 351.99999999999994 270.5118586224835 373.3333333333333 248.25753563837583 373.3333333333333"/><polygon points="260.3887099725722 351.99999999999994 316.1112109204847 351.99999999999994 271.5998188014892 373.3333333333333 307.1049914117182 373.3333333333333"/><polygon points="309.6029053183244 351.99999999999994 338.5399264548397 351.99999999999994 310.5452255055338 373.3333333333333 327.9403900826728 373.3333333333333"/><polygon points="381.32729740281536 351.99999999999994 383.9231669079603 351.99999999999994 331.0378592357494 373.3333333333333 376.20766537494717 373.3333333333333"/><polygon points="385.5832772233097 351.99999999999994 414.4248131163526 351.99999999999994 444.54338667039906 373.3333333333333 356.58289316858105 373.3333333333333"/><polygon points="430.6618006243435 351.99999999999994 467.6478370308681 351.99999999999994 503.40140382853446 373.3333333333333 470.104793071252 373.3333333333333"/><polygon points="511.268552376244 351.99999999999994 502.96273432359715 351.99999999999994 555.4839352124657 373.3333333333333 500.7444641188807 373.3333333333333"/><polygon points="10.666666666666666 394.66666666666663 17.13949185097617 394.66666666666663 32 416 -29.279817775374763 416"/><polygon points="49.092054133498166 394.66666666666663 91.35847696795315 394.66666666666663 75.86878310426158 416 93.26584201751015 416"/><polygon points="97.18208574712226 394.66666666666663 100.62862388490088 394.66666666666663 124.92324568520493 416 143.54453045102954 416"/><polygon points="151.44251976540187 394.66666666666663 156.33359259826707 394.66666666666663 168.8466249885846 416 134.19660176924472 416"/><polygon points="176.3358112807703 394.66666666666663 235.11669511395326 394.66666666666663 183.87947726641417 416 160.1619880220628 416"/><polygon points="236.42460917847586 394.66666666666663 280.4505833683737 394.66666666666663 237.7127810163194 416 253.11487153590005 416"/><polygon points="276.8540579934539 394.66666666666663 268.15902534322305 394.66666666666663 282.63418933356337 416 262.3796335733525 416"/><polygon points="324.9553582611094 394.66666666666663 365.3864517698876 394.66666666666663 325.4709800755776 416 329.15786517427176 416"/><polygon points="324.0236616581524 394.66666666666663 348.3571482648127 394.66666666666663 408.22668481465604 416 308.9543744768813 416"/><polygon points="442.3957494802899 394.66666666666663 392.2649043845386 394.66666666666663 461.3983771062814 416 435.1739832745615 416"/><polygon points="424.42851189535077 394.66666666666663 493.7817673167996 394.66666666666663 440.48728294288463 416 448.44489506504806 416"/><polygon points="506.0297128494279 394.66666666666663 512.390565836612 394.66666666666663 518.1352544808993 416 514.9830195582575 416"/><polygon points="10.666666666666666 437.33333333333326 20.135160972274086 437.33333333333326 32 458.66666666666663 30.66341822626395 458.66666666666663"/><polygon points="55.23105586420854 437.33333333333326 118.29952897643898 437.33333333333326 73.80675864996796 458.66666666666663 48.497186874413934 458.66666666666663"/><polygon points="105.16580213337721 437.33333333333326 71.02873911859731 437.33333333333326 110.1885710619235 458.66666666666663 84.5024435808045 458.66666666666663"/><polygon points="137.67698842990353 437.33333333333326 203.26529163342968 437.33333333333326 161.74455615552242 458.66666666666663 90.76058455020474 458.66666666666663"/><polygon points="200.8924028543704 437.33333333333326 153.03418840827447 437.33333333333326 186.21844757606598 458.66666666666663 195.8334390811631 458.66666666666663"/><polygon points="214.3091307736605 437.33333333333326 250.91655598168975 437.33333333333326 234.2414805771352 458.66666666666663 209.89103189744557 458.66666666666663"/><polygon points="280.44346384275667 437.33333333333326 322.10264615607156 437.33333333333326 302.91590984416587 458.66666666666663 240.7924419438946 458.66666666666663"/><polygon points="301.3048574751382 437.33333333333326 350.0967578114903 437.33333333333326 296.80344609083625 458.66666666666663 295.23773425008386 458.66666666666663"/><polygon points="354.657920113541 437.33333333333326 412.72117651172664 437.33333333333326 410.1078418424696 458.66666666666663 383.9071704286862 458.66666666666663"/><polygon points="350.9322554738664 437.33333333333326 444.17737601318447 437.33333333333326 431.1706385368553 458.66666666666663 377.2693232456717 458.66666666666663"/><polygon points="443.8476480488817 437.33333333333326 503.9421667458905 437.33333333333326 417.932407517357 458.66666666666663 459.6516428302929 458.66666666666663"/><polygon points="450.0910702954693 437.33333333333326 450.1970819642053 437.33333333333326 511.43521820817807 458.66666666666663 515.4200652392809 458.66666666666663"/><polygon points="10.666666666666666 479.99999999999994 2.507698811381516 479.99999999999994 32 501.3333333333333 35.638896421161604 501.3333333333333"/><polygon points="57.12872580164852 479.99999999999994 67.66168503225371 479.99999999999994 78.20676740336958 501.3333333333333 -2.201431292475206 501.3333333333333"/><polygon points="101.21896254505559 479.99999999999994 77.64939274555744 479.99999999999994 126.91419882380444 501.3333333333333 149.56687168438378 501.3333333333333"/><polygon points="132.5976844032711 479.99999999999994 193.31750227119966 479.99999999999994 153.61159594127827 501.3333333333333 97.751473745964 501.3333333333333"/><polygon points="170.39864944949278 479.99999999999994 151.29133097032172 479.99999999999994 192.9728166986796 501.3333333333333 221.83148611703336 501.3333333333333"/><polygon points="204.18950945669852 479.99999999999994 208.84708484488235 479.99999999999994 226.10983912120201 501.3333333333333 177.59726129141973 501.3333333333333"/><polygon points="275.9563806357624 479.99999999999994 291.33655730636394 479.99999999999994 279.36666491346233 501.3333333333333 255.84932157256694 501.3333333333333"/><polygon points="336.1666227552699 479.99999999999994 387.5578834861112 479.99999999999994 299.2105287918075 501.3333333333333 273.22503450079296 501.3333333333333"/><polygon points="358.17983279193743 479.99999999999994 426.137601595133 479.99999999999994 335.1226679003894 501.3333333333333 293.8082694671393 501.3333333333333"/><polygon points="362.6623466885899 479.99999999999994 378.6845362661062 479.99999999999994 385.24810985623344 501.3333333333333 382.0170891164817 501.3333333333333"/><polygon points="476.81156424915577 479.99999999999994 467.927833577985 479.99999999999994 467.75210733845597 501.3333333333333 471.89206658162885 501.3333333333333"/><polygon points="450.38413339993184 479.99999999999994 474.8419617433669 479.99999999999994 543.2031123316622 501.3333333333333 471.27359438806525 501.3333333333333"/>
</svg>
