<?xml version="1.0" encoding="UTF-8"?>
<svg xmlns="http://www.w3.org/2000/svg" id="RSSicon" viewBox="0 0 512 512" width="512" height="512">
  <defs>
    <style type="text/css">
      svg {
        background: black;
        margin: 0;
      }
      
      polygon {stroke: darkorange; fill: none;}
    </style>
  </defs>
  <polygon points="10.666666666666666 10.666666666666666 32 10.666666666666666 32 32 10.666666666666666 32"/><polygon points="52.445269875096045 10.666666666666666 75.55473012490395 10.666666666666666 72.6588495491825 32 55.341150450817494 32"/><polygon points="94.97999647294631 10.666666666666666 118.353336860387 10.666666666666666 115.319968102868 32 98.01336523046531 32"/><polygon points="143.8764626740396 10.666666666666666 154.79020399262708 10.666666666666666 162.69014772002006 32 135.97651894664662 32"/><polygon points="191.0209668786525 10.666666666666666 192.9790331213475 10.666666666666666 205.0363505722126 32 178.9636494277874 32"/><polygon points="230.06735418781366 10.666666666666666 239.26597914551965 10.666666666666666 257.6276878828061 32 211.70564545052724 32"/><polygon points="271.8800713247882 10.666666666666666 282.7865953418784 10.666666666666666 297.9704861597913 32 256.69618050687535 32"/><polygon points="303.33557523456386 10.666666666666666 336.664424765436 10.666666666666666 345.1846657977611 32 294.8153342022388 32"/><polygon points="360.62178833940675 10.666666666666666 364.7115449939265 10.666666666666666 392.02508711120544 32 333.3082462221278 32"/><polygon points="375.0319378130971 10.666666666666666 435.6347288535695 10.666666666666666 420.3675290310105 32 390.2991376356561 32"/><polygon points="447.08526674784275 10.666666666666666 448.91473325215713 10.666666666666666 445.644850259361 32 450.35514974063886 32"/><polygon points="453.1481013318072 10.666666666666666 528.1852320015261 10.666666666666666 499.5674089332533 32 481.76592440007994 32"/><polygon points="10.666666666666666 54.19247247541209 32 55.71695269542294 32 72.28304730457705 10.666666666666666 73.80752752458791"/><polygon points="54.934290847307075 54.59795856975274 73.06570915269293 53.77877324228363 75.74375137648077 74.22122675771638 52.256248623519234 73.40204143024727"/><polygon points="91.21578576169345 54.499560156745446 122.11754757163986 55.01887042050237 112.08409846239857 72.98112957949763 101.24923487093474 73.50043984325455"/><polygon points="131.83691707984607 52.98641692854589 166.8297495868206 51.592443931919846 152.45660110325264 76.40755606808015 146.21006556341405 75.01358307145411"/><polygon points="174.07729590137657 54.60991142632056 209.92270409862343 53.06345491179913 208.32948389026612 74.93654508820087 175.67051610973388 73.39008857367944"/><polygon points="231.31384129836746 51.145510126541666 238.01949203496585 55.84685296065577 247.97372146415876 72.15314703934423 221.35961186917456 76.85448987345833"/><polygon points="268.3147382416355 52.051958858880866 286.35192842503113 53.9572587498309 302.4977616766822 74.0427412501691 252.16890498998438 75.94804114111913"/><polygon points="311.57805813849654 52.13839996903086 328.42194186150334 55.85019553908063 338.43298810606467 72.14980446091937 301.5670118939352 75.86160003096914"/><polygon points="339.19733431676974 54.472984625223255 386.1359990165635 53.00534383933824 356.15028185626454 74.99465616066176 369.1830514770687 73.52701537477674"/><polygon points="381.57327340313645 55.60447416556839 429.0933932635302 52.355955611797036 417.4256094850333 75.64404438820296 393.2410571816333 72.39552583443161"/><polygon points="458.166811641027 53.64201687715433 437.8331883589729 55.95251170089365 475.69770515542757 72.04748829910635 420.3022948445723 74.35798312284567"/><polygon points="491.48372981150294 55.86143729833175 489.8496035218303 53.0388539600257 503.57901532429076 74.96114603997431 477.7543180090425 72.13856270166825"/><polygon points="10.666666666666666 92.16573256544922 32 95.91830071933663 32 117.41503261399669 10.666666666666666 121.1676007678841"/><polygon points="52.537662765534634 100.75799793978925 75.46233723446537 99.6258062841815 76.26497485061525 113.70752704915182 51.735025149384754 112.57533539354407"/><polygon points="93.12608193990054 95.57666982130532 120.20725139343277 96.96863856744442 114.69760393319497 116.3646947658889 98.63572940013835 117.756663512028"/><polygon points="142.01906576156304 97.71649493614751 156.64760090510364 96.56003527552285 159.17740904004094 116.77329805781046 139.48925762662574 115.6168383971858"/><polygon points="186.61415544179928 99.92652552639807 197.38584455820072 96.05870568190018 205.87163788188485 117.27462765143314 178.12836211811515 113.40680780693525"/><polygon points="235.88260131749115 91.57814076842132 233.45073201584216 101.16447294623364 254.53284215473343 112.16886038709967 214.80049117859988 121.755192564912"/><polygon points="269.0868262301977 96.73759075558917 285.57984043646894 90.86172683506703 300.5089908688 122.47160649826628 254.1576757978666 116.59574257774415"/><polygon points="312.04678019117404 100.10947348964947 327.95321980882585 99.59601622369767 347.00626405413726 113.73731710963564 292.9937359458626 113.22385984368384"/><polygon points="338.97870843421316 93.82232751539573 386.3546248991201 94.68411800529768 378.43815050056105 118.64921532803564 346.8951828327722 119.51100581793759"/><polygon points="410.176259635985 99.16527871872636 400.49040703068164 93.4244135860536 397.02146156568597 119.90891974727971 413.64520510098066 114.16805461460696"/><polygon points="438.43755553056184 99.10499071031435 457.56244446943805 95.8670642232045 446.30968630810014 117.46626911012882 449.69031369189975 114.22834262301896"/><polygon points="452.26838385866824 97.71363299624856 529.064949474665 97.6183357511567 528.2513064673321 115.71499758217661 453.0820268660012 115.61970033708475"/><polygon points="10.666666666666666 141.48801320578903 32 145.08627154546315 32 153.58039512120354 10.666666666666666 157.17865346087765"/><polygon points="53.45421530201681 142.44774475955657 74.5457846979832 145.30687974573829 75.36118354621232 153.3597869209284 52.63881645378768 156.21892190711011"/><polygon points="101.13366357304933 145.25556240780378 112.19966976028398 143.56567044364078 114.52490893379127 155.1009962230259 98.80842439954205 153.4111042588629"/><polygon points="135.33192560791505 132.8341502826165 163.33474105875163 134.7362980440249 159.56460583962166 163.9303686226418 139.10206082704502 165.8325163840502"/><polygon points="179.23776405244047 135.09068815703665 204.76223594755953 132.44781253781838 209.11217480192295 166.2188541288483 174.88782519807705 163.57597850963003"/><polygon points="215.7310209855008 144.40105495203065 253.6023123478325 141.57214330419842 232.34214307973826 157.09452336246827 236.99119025359505 154.26561171463604"/><polygon points="257.3132899190671 132.7330647685008 297.35337674759955 138.43993925811404 277.1203126435766 160.22672740855265 277.54635402309003 165.93360189816588"/><polygon points="300.6592982977399 145.51655038144582 339.34070170226 143.7896602884514 343.48646829693655 154.8770063782153 296.51353170306334 153.15011628522086"/><polygon points="351.96101645911244 132.08131197802473 373.3723168742208 136.61875091932944 391.8593200515664 162.04791574733724 333.4740132817669 166.58535468864196"/><polygon points="375.2982298975658 134.1197505448145 435.3684367691008 138.99446331006092 419.98899114407095 159.67220335660576 390.6776755225957 164.54691612185218"/><polygon points="417.77945456996537 135.82135637642068 478.2205454300345 139.37006664589535 434.87866904214616 159.29660002077134 461.12133095785373 162.845310290246"/><polygon points="477.79991508877515 144.75660027320967 503.5334182445581 144.69042738284486 504.02058743325284 153.97623928382183 477.3127459000804 153.91006639345702"/><polygon points="10.666666666666666 188.77167752101474 32 177.74980945502787 32 206.25019054497213 10.666666666666666 195.22832247898526"/><polygon points="50.754817203663066 175.2923339930711 77.24518279633693 180.59132448264734 74.66736838145621 203.40867551735266 53.332631618543786 208.7076660069289"/><polygon points="100.52267823812124 175.89269166338107 112.81065509521207 187.39731549809747 120.25423822876833 196.60268450190253 93.07909510456498 208.10730833661893"/><polygon points="139.20819245931983 171.01582404343083 159.45847420734685 176.51235693233787 156.7742495609454 207.48764306766213 141.89241710572128 212.98417595656917"/><polygon points="185.35016955476445 186.7622380972095 198.64983044523555 173.55798563026937 213.06314227822705 210.44201436973063 170.93685772177295 197.2377619027905"/><polygon points="214.08088113482734 173.14197063200677 255.25245219850598 191.39683192388225 250.73803951546535 192.60316807611775 218.59529381786797 210.85802936799323"/><polygon points="250.67086934306263 185.44684673936004 303.995797323604 176.16396278024638 296.83848750412596 207.83603721975362 257.82817916254066 198.55315326063996"/><polygon points="309.24729233693176 174.6792832883698 330.7527076630681 191.12548737868588 335.25896497916375 192.87451262131412 304.74103502083614 209.3207167116302"/><polygon points="337.7673886537125 175.5057039761499 387.56594467962077 177.81896253547043 383.35639279400357 206.18103746452957 341.9769405393297 208.4942960238501"/><polygon points="412.6672672593288 184.81323015757508 397.9993994073378 176.61380355244555 413.3396618973677 207.38619644755445 397.3270047692989 199.18676984242492"/><polygon points="430.3478443792924 182.37916713616877 465.6521556207075 181.19775769404728 455.41673301095244 202.80224230595272 440.58326698904744 201.62083286383123"/><polygon points="476.0368015615417 175.91342717522545 505.29653177179154 170.90082375617203 505.84483364025465 213.09917624382797 475.4884996930786 208.08657282477455"/><polygon points="10.666666666666666 233.91501597177856 32 214.21539574655614 32 255.11793758677717 10.666666666666666 235.41831736155476"/><polygon points="52.69383373546921 232.47723506687123 75.30616626453079 215.82387998762488 72.4952587483139 253.50945334570844 55.5047412516861 236.85609826646208"/><polygon points="96.68292654483402 214.68074394527218 116.6504067884993 233.7909986497839 121.0269501125214 235.54233468354943 92.30638322081191 254.65258938806113"/><polygon points="143.2914992026184 235.7325048226629 155.37516746404827 211.5627269171975 154.5825406316607 257.7706064161358 144.084126035006 233.60082851067042"/><polygon points="178.39557523065434 224.89469547946064 205.60442476934566 228.80158292199468 207.5970775188438 240.53175041133863 176.4029224811562 244.43863785387268"/><polygon points="219.69657241780266 215.59014970006947 249.63676091553066 237.00344782983822 253.89954653151767 232.3298855034951 215.43378680181564 253.74318363326384"/><polygon points="253.66215684328492 224.2164790185617 301.0045098233817 233.7853461979279 284.09139235839535 235.5479871354054 270.5752743082713 245.11685431477162"/><polygon points="315.3609520275583 234.37343848731993 324.6390479724416 227.5564334213503 331.5999314600165 241.776899911983 308.4000685399834 234.95989484601338"/><polygon points="353.9593470987606 224.62154665678224 371.37398623457267 211.99392515537147 356.99916624593686 257.33940817796184 368.3341670873964 244.71178667655107"/><polygon points="417.5199978011917 217.53443688024018 393.1466688654749 222.09203744659212 401.5933506596547 247.2412958867412 409.07331600701195 251.79889645309314"/><polygon points="423.0144450030972 230.11685728435614 472.9855549969027 235.5458402163687 479.2034161149791 233.7874931169646 416.79658388502077 239.21647604897717"/><polygon points="462.54536327906294 221.6818234316391 518.7879700542703 216.43427201597098 494.58009366634224 252.89906131736234 486.753239666991 247.65150990169423"/><polygon points="10.666666666666666 263.06044019773924 32 270.27744431464663 32 284.38922235202 10.666666666666666 291.6062264689274"/><polygon points="51.3095218734975 267.5593821970025 76.6904781265025 253.6440466628169 72.71279826707655 301.02262000384974 55.28720173292345 287.10728446966414"/><polygon points="94.07966945540753 256.47283200865036 119.25366387792579 256.4767976132265 112.3522942460109 298.18986905344013 100.98103908732242 298.19383465801627"/><polygon points="131.99910570654094 279.5832882995221 166.66756096012574 261.02646258375046 153.81602846861972 293.64020408291617 144.85063819804697 275.0833783671445"/><polygon points="187.65599183048417 279.6048881132997 196.34400816951583 270.81470344053827 198.24219823668273 283.85196322612836 185.75780176331727 275.06177855336693"/><polygon points="220.1467212343024 253.79575177746622 249.18661209903092 268.3326978366935 244.56119165085389 286.3339688299731 224.77214168247943 300.87091488920044"/><polygon points="261.1429596635018 274.8799888171858 293.5237070031648 259.8508782491654 288.1540530212427 294.8157884175012 266.5126136454239 279.78667784948084"/><polygon points="322.64110977189017 262.1946200232249 317.3588902281097 273.39631175968805 312.4740184882754 281.2703549069786 327.52598151172447 292.47204664344173"/><polygon points="332.3216921593651 271.795519827552 393.01164117396814 267.74249439488534 355.80216833402284 286.9241722717813 369.5311649993104 282.8711468391146"/><polygon points="377.88493761959546 263.26155645870233 432.78172904707117 270.5116674466629 435.42066180367004 284.15499922000373 375.2460048629966 291.4051102079643"/><polygon points="438.2344411957152 264.2814870051568 457.7655588042847 260.7778991029919 440.65101976303356 293.8887675636747 455.3489802369663 290.3851796615098"/><polygon points="494.4984019511579 269.0063177306918 486.83493138217534 266.59628613981346 485.04469484179606 288.07038052685317 496.2886384915372 285.6603489359748"/><polygon points="10.666666666666666 316.73587807574415 32 320.53090946952835 32 319.46909053047153 10.666666666666666 323.26412192425573"/><polygon points="54.93396169729431 308.29026750074235 73.06603830270569 305.273992687953 76.90790390867873 334.7260073120469 51.09209609132127 331.70973249925754"/><polygon points="94.12173097662897 311.55047676395327 119.21160235670435 297.25922570428315 114.73079759048481 342.74077429571673 98.6025357428485 328.4495232360466"/><polygon points="131.44881431083738 317.4548569376546 167.2178523558293 300.67969893302785 165.38588223698426 339.32030106697204 133.28078442968243 322.5451430623453"/><polygon points="181.5195336269856 297.53179447520955 202.4804663730144 312.9688228001653 202.7760777125548 327.0311771998346 181.2239222874452 342.46820552479033"/><polygon points="229.99206089683958 325.748986397862 239.34127243649374 313.46372448152414 237.53140158528765 326.53627551847575 231.80193174804566 314.2510136021379"/><polygon points="263.0957789498534 311.7965113697468 291.5708877168132 319.1555664663779 301.1327518598785 320.844433533622 253.53391480678812 328.2034886302531"/><polygon points="327.3071411602205 316.72038065227605 312.6928588397794 310.05790568627674 327.13278596730964 329.94209431372315 312.86721403269024 323.27961934772384"/><polygon points="332.9677076540728 320.43444963148227 392.36562567926046 300.5751526926011 380.3659091437306 339.4248473073988 344.96742418960264 319.5655503685176"/><polygon points="386.92118089631424 307.08925169970917 423.7454857703524 310.4587157833694 424.77607651539563 329.54128421663046 385.890590151271 332.9107483002907"/><polygon points="422.7223621046841 302.0874796350263 473.27763789531576 326.13952360539776 473.4884293244914 313.86047639460213 422.5115706755085 337.9125203649736"/><polygon points="466.48628307315954 316.3414689191422 514.8470502601738 298.8323934341775 513.9852961515531 341.1676065658224 467.34803718178017 323.6585310808577"/><polygon points="10.666666666666666 354.2343414355297 32 336.0302529508606 32 389.3030803824727 10.666666666666666 371.09899189780356"/><polygon points="55.07954829536843 336.6906526855227 72.92045170463157 360.96509918738406 73.80246329665997 364.3682341459492 54.19753670334003 388.64268064781055"/><polygon points="101.08043911740796 359.2141566162088 112.25289421592535 369.082430223045 120.09136144614575 356.2509031102883 93.24197188718756 366.11917671712445"/><polygon points="135.14878262102778 354.1331592603417 163.5178840456389 342.46540993977624 158.29543053918403 382.867923393557 140.37123612748266 371.20017407299156"/><polygon points="188.1946463570419 338.06948202769655 195.8053536429581 339.59089804358103 206.52465391611364 385.7424352897522 177.47534608388636 387.2638513056367"/><polygon points="226.36991866179474 346.3238982901291 242.96341467153857 336.8076831949801 244.97747204258573 388.52565013835317 224.35586129074758 379.0094350432042"/><polygon points="266.47060591767325 341.5026250620367 288.1960607489934 366.6500699949761 291.90087748124625 358.68326333835716 262.7657891854204 383.83070827129654"/><polygon points="316.89758309387713 350.0659844153105 323.10241690612276 369.5130378647253 320.7096518776573 355.820295468608 319.2903481223426 375.2673489180228"/><polygon points="365.120442150334 366.2810615303749 360.2128911829993 351.08536364949066 372.9967519228246 374.2479696838426 352.33658141050864 359.05227180295833"/><polygon points="379.57985659322105 339.11745404686053 431.0868100734456 371.7031540063628 417.5963969322484 353.63017932697045 393.0702697344182 386.2158792864727"/><polygon points="440.5193243339168 340.5374870756111 455.4806756660831 331.9170311011776 453.21124152437426 393.41630223215566 442.7887584756256 384.79584625772213"/><polygon points="478.15724568037 334.6495432767152 503.17608765296325 348.88850748943 481.9639264682235 376.44482584390323 499.36940686510974 390.6837900566181"/><polygon points="10.666666666666666 389.5772687153573 32 384.8817982313319 32 425.7848684353347 10.666666666666666 421.0893979513093"/><polygon points="51.9837348249979 405.2514204618264 76.0162651750021 377.60114682109725 73.93903277900743 433.0655198455694 54.060967220992566 405.41524620484023"/><polygon points="91.81518251462346 414.4228188393194 121.51815081870986 396.40885216068534 116.18725660791041 414.2578145059813 97.1460767254229 396.2438478273472"/><polygon points="137.77288193110576 407.68044291469624 160.89378473556093 389.93619484171586 159.83076817966176 420.73047182495077 138.83589848700493 402.9862237519704"/><polygon points="173.9959507337586 373.2196449886336 210.0040492662414 376.67974864720895 211.96530602357652 433.9869180194577 172.03469397642348 437.447021678033"/><polygon points="220.29756108002516 394.39396546878146 249.03577225330815 415.792402086464 249.77777841110728 394.87426458020263 219.55555492222604 416.27270119788517"/><polygon points="268.8896822762173 377.5620367994251 285.77698439044934 370.85999950346206 288.81894760600153 439.80666716320457 265.8477190606651 433.10462986724156"/><polygon points="303.51682337835035 383.75565275418654 336.48317662164953 370.72227956850344 338.45427552106565 439.9443870981632 301.54572447893423 426.9110139124801"/><polygon points="334.26580999876364 415.6875629928791 391.0675233345696 411.84547040445733 366.89094918692797 398.8211962622093 358.4423841464053 394.9791036737875"/><polygon points="390.72473833403916 387.20042622978946 419.94192833262747 386.59547676097475 423.32905150403286 424.0711899056919 387.33761516263377 423.4662404368772"/><polygon points="451.166645091795 375.8574752587776 444.8333549082049 394.6313177736334 475.08966376173896 416.03534889303324 420.9103362382609 434.80919140788905"/><polygon points="507.7390956265438 387.2488173354532 473.59423770678944 381.6187571338994 476.8054623917784 429.0479095327672 504.52787094155485 423.4178493312134"/><polygon points="10.666666666666666 440.80525050177664 32 423.5141227150171 32 472.4858772849828 10.666666666666666 455.19474949822325"/><polygon points="51.91052863859639 449.7624418962249 76.08947136140361 440.12865484630896 76.16647738188827 455.8713451536909 51.833522618111736 446.237558103775"/><polygon points="101.31762096766239 458.95602660466704 112.01571236567092 435.2442822781258 120.15969830510114 460.7557177218741 93.17363502823217 437.04397339533284"/><polygon points="143.18492668069987 444.44017234647924 155.4817399859668 450.181522239894 160.08769973510562 445.8184777601059 138.57896693156107 451.55982765352064"/><polygon points="187.6737799560132 435.8565225328816 196.3262200439868 434.2687533847732 207.2315971248114 461.73124661522667 176.7684028751886 460.14347746711826"/><polygon points="234.4400884644879 435.1276618665155 234.89324486884541 445.82462183626984 233.81251367195196 450.17537816373004 235.52081966138135 460.8723381334844"/><polygon points="265.85188260369716 443.0624192053187 288.81478406296947 436.0320914172777 281.33509696522435 459.9679085827222 273.3315697014423 452.9375807946812"/><polygon points="291.7707097060383 440.1516631600351 348.2292902939616 455.2446981112333 337.9967642087557 440.7553018887666 302.0032357912442 455.84833683996476"/><polygon points="341.44709700183137 420.3734037615512 383.8862363315019 412.3832451203493 380.1108132714957 483.6167548796506 345.22252006183754 475.6265962384487"/><polygon points="410.439918456439 443.7176314028439 400.22674821022764 439.4397913057336 433.1934064857332 456.5602086942663 377.47326018093344 452.282368597156"/><polygon points="426.65603311192615 446.10349035094845 469.34396688807374 427.5128470359892 436.4519357873672 468.4871529640107 459.5480642126327 449.89650964905144"/><polygon points="482.2237251442293 418.58637236106784 499.10960818910394 412.07791868405513 494.20824045215994 483.92208131594475 487.1250928811733 477.41362763893204"/><polygon points="10.666666666666666 505.77820719800394 32 491.4320818597239 32 489.90125147360936 10.666666666666666 475.5551261353293"/><polygon points="55.90767627653059 484.03619413401316 72.0923237234694 466.98236406676347 72.84511837019487 514.3509692665698 55.15488162980514 497.2971391993201"/><polygon points="96.91197334599227 506.1643189856706 116.42135998734105 493.906116196343 113.2868645646482 487.42721713699024 100.04646876868512 475.16901434766265"/><polygon points="141.10656797930878 478.0216571061099 157.5600986873579 457.899961792578 157.17954351406186 523.4333715407553 141.48712315260482 503.31167622722336"/><polygon points="187.24328220246343 500.12434872333745 196.75671779753657 480.7022009189607 205.9613538453767 500.63113241437253 178.0386461546233 481.2089846099958"/><polygon points="229.57047980666462 507.72838203216645 239.7628535266687 479.0697202019264 232.14418061703452 502.2636131314069 237.1891527162988 473.6049513011668"/><polygon points="253.40853207076015 452.67294783285405 301.2581345959065 495.4492419112604 292.2446546086226 485.88409142207286 262.422012058044 528.6603855004792"/><polygon points="327.5746336857983 506.5268305719637 312.4253663142016 484.0434294441746 348.0019097534629 497.28990388915867 291.998090246537 474.80650276136953"/><polygon points="364.578772624133 469.72282556391116 360.75456070920023 463.1759648089798 368.5189568568646 518.1573685243535 356.8143764764687 511.6105077694221"/><polygon points="402.8719775264686 468.7927780381702 407.79468914019805 486.9109804515327 436.3806516619315 494.4223528818006 374.28601500473513 512.5405552951631"/><polygon points="421.6497823463583 463.94103516727967 474.3502176536416 501.14755577134036 437.39803874346444 480.1857775619929 458.60196125653545 517.3922981660536"/><polygon points="487.0999749981057 452.8006994015174 494.23335833522754 466.4499049723112 487.33741580162365 514.8834283610221 493.9959175317096 528.5326339318159"/>
</svg>
